OpenSans-Medium.ufo
<glyph name="exclam" format="2">
	<unicode hex="0021"/>
	<advance width="535"/>
	<outline>
		<contour>
			<point x="374.286" y="447.429" type="line"/>
			<point x="405.143" y="1462" type="line"/>
			<point x="133" y="1462" type="line"/>
			<point x="163.857" y="447.429" type="line"/>
		</contour>
		<contour>
			<point x="123.714" y="115" type="curve" smooth="yes"/>
			<point x="123.714" y="22.8571"/>
			<point x="182.857" y="-21.1429"/>
			<point x="266.143" y="-21.1429" type="curve" smooth="yes"/>
			<point x="351.714" y="-21.1429"/>
			<point x="408.429" y="22.8571"/>
			<point x="408.429" y="115" type="curve" smooth="yes"/>
			<point x="408.429" y="209.714"/>
			<point x="351.714" y="252.143"/>
			<point x="266.143" y="252.143" type="curve" smooth="yes"/>
			<point x="182.857" y="252.143"/>
			<point x="123.714" y="209.714"/>
		</contour>
	</outline>
</glyph>
<glyph name="numbersign" format="2">
	<unicode hex="0023"/>
	<advance width="1342"/>
	<outline>
		<contour>
			<point x="1005.14" y="870" type="line"/>
			<point x="1296.29" y="870" type="line"/>
			<point x="1296.29" y="1039.57" type="line"/>
			<point x="1036.43" y="1039.57" type="line"/>
			<point x="1116.71" y="1462" type="line"/>
			<point x="941.714" y="1462" type="line"/>
			<point x="861.571" y="1039.57" type="line"/>
			<point x="592.286" y="1039.57" type="line"/>
			<point x="673.143" y="1462" type="line"/>
			<point x="498.143" y="1462" type="line"/>
			<point x="418.429" y="1039.57" type="line"/>
			<point x="118.143" y="1039.57" type="line"/>
			<point x="118.143" y="870" type="line"/>
			<point x="386.571" y="870" type="line"/>
			<point x="332.857" y="588.857" type="line"/>
			<point x="45.5714" y="588.857" type="line"/>
			<point x="45.5714" y="422.714" type="line"/>
			<point x="301.429" y="422.714" type="line"/>
			<point x="221.714" y="0" type="line"/>
			<point x="396.143" y="0" type="line"/>
			<point x="475.714" y="422.714" type="line"/>
			<point x="746.143" y="422.714" type="line"/>
			<point x="665.857" y="0" type="line"/>
			<point x="840.857" y="0" type="line"/>
			<point x="921.714" y="422.714" type="line"/>
			<point x="1225.43" y="422.714" type="line"/>
			<point x="1225.43" y="588.857" type="line"/>
			<point x="952" y="588.857" type="line"/>
		</contour>
		<contour>
			<point x="507.714" y="588.857" type="line"/>
			<point x="560.857" y="870" type="line"/>
			<point x="830.143" y="870" type="line"/>
			<point x="776.429" y="588.857" type="line"/>
		</contour>
	</outline>
</glyph>
<glyph name="dollar" format="2">
	<unicode hex="0024"/>
	<advance width="1176"/>
	<outline>
		<contour>
			<point x="505.429" y="-119" type="line"/>
			<point x="633.857" y="-119" type="line"/>
			<point x="633.857" y="36.5714" type="line"/>
			<point x="909.286" y="61"/>
			<point x="1060.43" y="207.143"/>
			<point x="1060.43" y="432.429" type="curve" smooth="yes"/>
			<point x="1060.43" y="663.714"/>
			<point x="895.286" y="743.143"/>
			<point x="633.857" y="828.286" type="curve"/>
			<point x="633.857" y="1240.71" type="line"/>
			<point x="733.857" y="1234.14"/>
			<point x="844.857" y="1211.14"/>
			<point x="951.857" y="1164.71" type="curve"/>
			<point x="1011.57" y="1341.43" type="line"/>
			<point x="900.571" y="1389"/>
			<point x="775.429" y="1422.29"/>
			<point x="633.857" y="1427.71" type="curve"/>
			<point x="633.857" y="1555.14" type="line"/>
			<point x="505.429" y="1555.14" type="line"/>
			<point x="505.429" y="1426.57" type="line"/>
			<point x="258.143" y="1411.14"/>
			<point x="86.4286" y="1291.86"/>
			<point x="86.4286" y="1058" type="curve" smooth="yes"/>
			<point x="86.4286" y="813.571"/>
			<point x="269.857" y="724.714"/>
			<point x="505.429" y="648.143" type="curve"/>
			<point x="505.429" y="225.143" type="line"/>
			<point x="370.143" y="231.714"/>
			<point x="221.857" y="263.714"/>
			<point x="107.857" y="312.143" type="curve"/>
			<point x="107.857" y="108" type="line"/>
			<point x="210.429" y="67.5714"/>
			<point x="330.571" y="37.8571"/>
			<point x="505.429" y="34.2857" type="curve"/>
		</contour>
		<contour>
			<point x="633.857" y="227.429" type="curve"/>
			<point x="633.857" y="612.286" type="line"/>
			<point x="774" y="561.857"/>
			<point x="845.571" y="517.286"/>
			<point x="845.571" y="414.429" type="curve" smooth="yes"/>
			<point x="845.571" y="297.429"/>
			<point x="763.143" y="238.571"/>
		</contour>
		<contour>
			<point x="505.429" y="867.429" type="line"/>
			<point x="384" y="911.143"/>
			<point x="298.571" y="956.714"/>
			<point x="298.571" y="1067.71" type="curve" smooth="yes"/>
			<point x="298.571" y="1175.71"/>
			<point x="384.286" y="1232.29"/>
			<point x="505.429" y="1239.57" type="curve"/>
		</contour>
	</outline>
</glyph>
<glyph name="parenright" format="2">
	<unicode hex="0029"/>
	<advance width="644"/>
	<outline>
		<contour>
			<point x="566" y="580.286" type="curve" smooth="yes"/>
			<point x="566" y="924"/>
			<point x="476.571" y="1245.57"/>
			<point x="278.143" y="1485.43" type="curve"/>
			<point x="63.1429" y="1485.43" type="line"/>
			<point x="257.571" y="1235"/>
			<point x="345.286" y="910.429"/>
			<point x="345.286" y="580.143" type="curve" smooth="yes"/>
			<point x="345.286" y="251"/>
			<point x="259.286" y="-77.4286"/>
			<point x="64.2857" y="-324" type="curve"/>
			<point x="278.143" y="-324" type="line"/>
			<point x="476.571" y="-91.7143"/>
			<point x="566" y="236.143"/>
		</contour>
	</outline>
</glyph>
<glyph name="asterisk" format="2">
	<unicode hex="002A"/>
	<advance width="1112"/>
	<outline>
		<contour>
			<point x="653.143" y="1554.29" type="line"/>
			<point x="455.143" y="1554.29" type="line"/>
			<point x="483" y="1172.29" type="line"/>
			<point x="113.571" y="1290.86" type="line"/>
			<point x="80.1429" y="1101" type="line"/>
			<point x="432.571" y="1036.57" type="line"/>
			<point x="205.143" y="734.571" type="line"/>
			<point x="381.143" y="642.714" type="line"/>
			<point x="552.143" y="951.571" type="line"/>
			<point x="735.857" y="640.714" type="line"/>
			<point x="904.571" y="734.571" type="line"/>
			<point x="676.571" y="1036.57" type="line"/>
			<point x="1027.86" y="1098.71" type="line"/>
			<point x="999.857" y="1290.86" type="line"/>
			<point x="625.857" y="1172.29" type="line"/>
		</contour>
	</outline>
</glyph>
<glyph name="plus" format="2">
	<unicode hex="002B"/>
	<advance width="1186"/>
	<outline>
		<contour>
			<point x="679.429" y="809.714" type="line"/>
			<point x="679.429" y="1210.57" type="line"/>
			<point x="505.286" y="1210.57" type="line"/>
			<point x="505.286" y="809.714" type="line"/>
			<point x="101" y="809.714" type="line"/>
			<point x="101" y="635.143" type="line"/>
			<point x="505.286" y="635.143" type="line"/>
			<point x="505.286" y="237.714" type="line"/>
			<point x="679.429" y="237.714" type="line"/>
			<point x="679.429" y="635.143" type="line"/>
			<point x="1084.14" y="635.143" type="line"/>
			<point x="1084.14" y="809.714" type="line"/>
		</contour>
	</outline>
</glyph>
<glyph name="comma" format="2">
	<unicode hex="002C"/>
	<advance width="522"/>
	<outline>
		<contour>
			<point x="391.714" y="272.857" type="line"/>
			<point x="171.857" y="272.857" type="line"/>
			<point x="151.143" y="112.286"/>
			<point x="113.571" y="-84.2857"/>
			<point x="66" y="-276" type="curve"/>
			<point x="244.714" y="-276" type="line"/>
			<point x="307.429" y="-128.714"/>
			<point x="367.857" y="99.8571"/>
			<point x="402.286" y="249" type="curve"/>
		</contour>
	</outline>
</glyph>
<glyph name="hyphen" format="2">
	<unicode hex="002D"/>
	<advance width="654"/>
	<outline>
		<contour>
			<point x="59.7143" y="451.714" type="line"/>
			<point x="595.143" y="451.714" type="line"/>
			<point x="595.143" y="652.286" type="line"/>
			<point x="59.7143" y="652.286" type="line"/>
		</contour>
	</outline>
</glyph>
<glyph name="zero" format="2">
	<unicode hex="0030"/>
	<advance width="1186"/>
	<outline>
		<contour>
			<point x="1089.43" y="732.429" type="curve" smooth="yes"/>
			<point x="1089.43" y="1192"/>
			<point x="951.714" y="1483.86"/>
			<point x="594" y="1483.86" type="curve" smooth="yes"/>
			<point x="225.714" y="1483.86"/>
			<point x="95.5714" y="1185.29"/>
			<point x="95.5714" y="732.429" type="curve" smooth="yes"/>
			<point x="95.5714" y="244.143"/>
			<point x="259.571" y="-20"/>
			<point x="593.143" y="-20" type="curve" smooth="yes"/>
			<point x="946.429" y="-20"/>
			<point x="1089.43" y="249.714"/>
		</contour>
		<contour>
			<point x="343.714" y="732.429" type="curve" smooth="yes"/>
			<point x="343.714" y="1070.71"/>
			<point x="399" y="1281.43"/>
			<point x="594" y="1281.43" type="curve" smooth="yes"/>
			<point x="791.286" y="1281.43"/>
			<point x="841.286" y="1076.71"/>
			<point x="841.286" y="732.429" type="curve" smooth="yes"/>
			<point x="841.286" y="362.857"/>
			<point x="775.429" y="181.857"/>
			<point x="593.143" y="181.857" type="curve" smooth="yes"/>
			<point x="415.286" y="181.857"/>
			<point x="343.714" y="362.286"/>
		</contour>
	</outline>
</glyph>
<glyph name="two" format="2">
	<unicode hex="0032"/>
	<advance width="1186"/>
	<outline>
		<contour>
			<point x="1072.29" y="0" type="line"/>
			<point x="1072.29" y="208.143" type="line"/>
			<point x="408.714" y="208.143" type="line"/>
			<point x="408.714" y="214.714" type="line"/>
			<point x="652.429" y="462.857" type="line"/>
			<point x="896.143" y="696.429"/>
			<point x="1027.14" y="841.429"/>
			<point x="1027.14" y="1092" type="curve" smooth="yes"/>
			<point x="1027.14" y="1319.86"/>
			<point x="851.143" y="1483"/>
			<point x="581.571" y="1483" type="curve" smooth="yes"/>
			<point x="365.143" y="1483"/>
			<point x="224.429" y="1399.43"/>
			<point x="96" y="1288.43" type="curve"/>
			<point x="233.286" y="1125.71" type="line"/>
			<point x="347.571" y="1222.71"/>
			<point x="453.143" y="1271.43"/>
			<point x="555.857" y="1271.43" type="curve" smooth="yes"/>
			<point x="688.857" y="1271.43"/>
			<point x="779.571" y="1197.57"/>
			<point x="779.571" y="1060.57" type="curve" smooth="yes"/>
			<point x="779.571" y="902.714"/>
			<point x="698.571" y="804.429"/>
			<point x="487.429" y="582.857" type="curve"/>
			<point x="86.7143" y="168.714" type="line"/>
			<point x="86.7143" y="0" type="line"/>
		</contour>
	</outline>
</glyph>
<glyph name="six" format="2">
	<unicode hex="0036"/>
	<advance width="1186"/>
	<outline>
		<contour>
			<point x="99.5714" y="619.286" type="curve" smooth="yes"/>
			<point x="99.5714" y="234.429"/>
			<point x="289.429" y="-20"/>
			<point x="617.143" y="-20" type="curve" smooth="yes"/>
			<point x="919" y="-20"/>
			<point x="1100.14" y="173.714"/>
			<point x="1100.14" y="483.286" type="curve" smooth="yes"/>
			<point x="1100.14" y="770.429"/>
			<point x="944.429" y="942.429"/>
			<point x="682.429" y="942.429" type="curve" smooth="yes"/>
			<point x="492.143" y="942.429"/>
			<point x="385.714" y="846.571"/>
			<point x="333.857" y="742.429" type="curve"/>
			<point x="324.857" y="742.429" type="line"/>
			<point x="337.286" y="1112.29"/>
			<point x="486.286" y="1287.43"/>
			<point x="794.857" y="1287.43" type="curve" smooth="yes"/>
			<point x="886.571" y="1287.43"/>
			<point x="952.143" y="1276.71"/>
			<point x="1004.57" y="1263.29" type="curve"/>
			<point x="1004.57" y="1463.43" type="line"/>
			<point x="949.571" y="1475.86"/>
			<point x="867.714" y="1484.71"/>
			<point x="800" y="1484.71" type="curve" smooth="yes"/>
			<point x="279.286" y="1484.71"/>
			<point x="99.5714" y="1126.71"/>
		</contour>
		<contour>
			<point x="612" y="180.714" type="curve" smooth="yes"/>
			<point x="410.714" y="180.714"/>
			<point x="352.429" y="390.429"/>
			<point x="352.429" y="518.857" type="curve" smooth="yes"/>
			<point x="352.429" y="622.571"/>
			<point x="451.143" y="746.286"/>
			<point x="619" y="746.286" type="curve" smooth="yes"/>
			<point x="781.143" y="746.286"/>
			<point x="857.286" y="644"/>
			<point x="857.286" y="478.714" type="curve" smooth="yes"/>
			<point x="857.286" y="285.857"/>
			<point x="766.286" y="180.714"/>
		</contour>
	</outline>
</glyph>
<glyph name="nine" format="2">
	<unicode hex="0039"/>
	<advance width="1186"/>
	<outline>
		<contour>
			<point x="1084.57" y="831.714" type="curve" smooth="yes"/>
			<point x="1084.57" y="1231"/>
			<point x="893.857" y="1483"/>
			<point x="568.714" y="1483" type="curve" smooth="yes"/>
			<point x="265.143" y="1483"/>
			<point x="84.4286" y="1289.14"/>
			<point x="84.4286" y="982.571" type="curve" smooth="yes"/>
			<point x="84.4286" y="692.429"/>
			<point x="240.286" y="519.571"/>
			<point x="497" y="519.571" type="curve" smooth="yes"/>
			<point x="692.571" y="519.571"/>
			<point x="797.286" y="615.143"/>
			<point x="850.714" y="721.286" type="curve"/>
			<point x="859.286" y="721.286" type="line"/>
			<point x="847.286" y="359.143"/>
			<point x="700.714" y="175.571"/>
			<point x="375.429" y="175.571" type="curve" smooth="yes"/>
			<point x="295.143" y="175.571"/>
			<point x="228" y="185"/>
			<point x="174" y="198.429" type="curve"/>
			<point x="174" y="-4.85714" type="line"/>
			<point x="229.429" y="-16.2857"/>
			<point x="317.714" y="-22.1429"/>
			<point x="386.286" y="-22.1429" type="curve" smooth="yes"/>
			<point x="846" y="-22.1429"/>
			<point x="1084.57" y="264.714"/>
		</contour>
		<contour>
			<point x="574.429" y="1280.57" type="curve" smooth="yes"/>
			<point x="775" y="1280.57"/>
			<point x="831.714" y="1073.43"/>
			<point x="831.714" y="944.857" type="curve" smooth="yes"/>
			<point x="831.714" y="840.714"/>
			<point x="728.714" y="715.143"/>
			<point x="567.857" y="715.143" type="curve" smooth="yes"/>
			<point x="407" y="715.143"/>
			<point x="326.857" y="818.857"/>
			<point x="326.857" y="984.857" type="curve" smooth="yes"/>
			<point x="326.857" y="1177.43"/>
			<point x="415.571" y="1280.57"/>
		</contour>
	</outline>
</glyph>
<glyph name="greater" format="2">
	<unicode hex="003E"/>
	<advance width="1186"/>
	<outline>
		<contour>
			<point x="101.857" y="414.286" type="line"/>
			<point x="101.857" y="223" type="line"/>
			<point x="1082.14" y="668.143" type="line"/>
			<point x="1082.14" y="782.286" type="line"/>
			<point x="101.857" y="1260" type="line"/>
			<point x="101.857" y="1067.57" type="line"/>
			<point x="827.857" y="731.857" type="line"/>
		</contour>
	</outline>
</glyph>
<glyph name="A" format="2">
	<unicode hex="0041"/>
	<advance width="1356"/>
	<outline>
		<contour>
			<point x="1084.57" y="0" type="line"/>
			<point x="1356.29" y="0" type="line"/>
			<point x="843.286" y="1467.14" type="line"/>
			<point x="520.286" y="1467.14" type="line"/>
			<point x="0" y="0" type="line"/>
			<point x="272.429" y="0" type="line"/>
			<point x="408.571" y="394.429" type="line"/>
			<point x="952.143" y="394.429" type="line"/>
		</contour>
		<contour>
			<point x="896.714" y="601.429" type="line"/>
			<point x="463.571" y="601.429" type="line"/>
			<point x="601.143" y="999.143" type="line"/>
			<point x="624.429" y="1078"/>
			<point x="662.857" y="1215.57"/>
			<point x="681.714" y="1299.86" type="curve"/>
			<point x="704.143" y="1209.57"/>
			<point x="745" y="1064.57"/>
			<point x="764.286" y="1000.43" type="curve"/>
		</contour>
	</outline>
	<anchor name="bottom" x="678.286" y="0"/>
	<anchor name="top" x="678.286" y="1462"/>
	<anchor name="topright" x="1233.57" y="1462"/>
</glyph>
<glyph name="G" format="2">
	<unicode hex="0047"/>
	<advance width="1498"/>
	<outline>
		<contour>
			<point x="748" y="796.429" type="line"/>
			<point x="748" y="600.286" type="line"/>
			<point x="1112.71" y="600.286" type="line"/>
			<point x="1112.71" y="227.714" type="line"/>
			<point x="1047.29" y="203.286"/>
			<point x="944.571" y="187.571"/>
			<point x="850" y="187.571" type="curve" smooth="yes"/>
			<point x="553" y="187.571"/>
			<point x="371.429" y="358.714"/>
			<point x="371.429" y="726.714" type="curve" smooth="yes"/>
			<point x="371.429" y="1036.71"/>
			<point x="539.143" y="1277.71"/>
			<point x="870.571" y="1277.71" type="curve" smooth="yes"/>
			<point x="1001" y="1277.71"/>
			<point x="1121.14" y="1253"/>
			<point x="1241.14" y="1194.57" type="curve"/>
			<point x="1322.86" y="1393.57" type="line"/>
			<point x="1198.43" y="1450.86"/>
			<point x="1041.71" y="1484.71"/>
			<point x="870.286" y="1484.71" type="curve" smooth="yes"/>
			<point x="388" y="1484.71"/>
			<point x="114.714" y="1179"/>
			<point x="114.714" y="731.571" type="curve" smooth="yes"/>
			<point x="114.714" y="233.714"/>
			<point x="385.571" y="-20"/>
			<point x="829.429" y="-20" type="curve" smooth="yes"/>
			<point x="1020.57" y="-20"/>
			<point x="1204.86" y="13.4286"/>
			<point x="1347.29" y="70.5714" type="curve"/>
			<point x="1347.29" y="796.429" type="line"/>
		</contour>
	</outline>
	<anchor name="bottom" x="795.571" y="0"/>
	<anchor name="top" x="829.143" y="1462"/>
	<anchor name="topright" x="1457.43" y="1462"/>
</glyph>
<glyph name="I" format="2">
	<unicode hex="0049"/>
	<advance width="611"/>
	<outline>
		<contour>
			<point x="180.714" y="0" type="line"/>
			<point x="430.286" y="0" type="line"/>
			<point x="430.286" y="1462" type="line"/>
			<point x="180.714" y="1462" type="line"/>
		</contour>
	</outline>
	<anchor name="bottom" x="305.429" y="0"/>
	<anchor name="top" x="305.429" y="1462"/>
	<anchor name="topright" x="545.571" y="1462"/>
</glyph>
<glyph name="R" format="2">
	<unicode hex="0052"/>
	<advance width="1299"/>
	<outline>
		<contour>
			<point x="594.143" y="1462" type="curve" smooth="yes"/>
			<point x="180.714" y="1462" type="line"/>
			<point x="180.714" y="0" type="line"/>
			<point x="429.143" y="0" type="line"/>
			<point x="429.143" y="584.714" type="line"/>
			<point x="660.286" y="584.714" type="line"/>
			<point x="1005" y="0" type="line"/>
			<point x="1289.71" y="0" type="line"/>
			<point x="874.429" y="651.143" type="line"/>
			<point x="1051.14" y="723.857"/>
			<point x="1157.57" y="854.571"/>
			<point x="1157.57" y="1049.29" type="curve" smooth="yes"/>
			<point x="1157.57" y="1342"/>
			<point x="965.429" y="1462"/>
		</contour>
		<contour>
			<point x="586" y="1269.29" type="line" smooth="yes"/>
			<point x="804.857" y="1269.29"/>
			<point x="905.571" y="1204.14"/>
			<point x="905.571" y="1038.14" type="curve" smooth="yes"/>
			<point x="905.571" y="859.429"/>
			<point x="785.714" y="776.714"/>
			<point x="614.571" y="776.714" type="curve" smooth="yes"/>
			<point x="429.143" y="776.714" type="line"/>
			<point x="429.143" y="1269.29" type="line"/>
		</contour>
	</outline>
	<anchor name="bottom" x="674.857" y="0"/>
	<anchor name="top" x="650.286" y="1462"/>
	<anchor name="topright" x="1258.14" y="1462"/>
</glyph>
<glyph name="Z" format="2">
	<unicode hex="005A"/>
	<advance width="1222"/>
	<outline>
		<contour>
			<point x="1158" y="0" type="line"/>
			<point x="1158" y="204.143" type="line"/>
			<point x="379.143" y="204.143" type="line"/>
			<point x="1138.14" y="1307.29" type="line"/>
			<point x="1138.14" y="1462" type="line"/>
			<point x="99.5714" y="1462" type="line"/>
			<point x="99.5714" y="1257.86" type="line"/>
			<point x="825.571" y="1257.86" type="line"/>
			<point x="66.5714" y="155.286" type="line"/>
			<point x="66.5714" y="0" type="line"/>
		</contour>
	</outline>
	<anchor name="bottom" x="623.429" y="0"/>
	<anchor name="top" x="622.286" y="1462"/>
	<anchor name="topright" x="1181.29" y="1462"/>
</glyph>
<glyph name="bracketleft" format="2">
	<unicode hex="005B"/>
	<advance width="654"/>
	<outline>
		<contour>
			<point x="604.857" y="-335.429" type="line"/>
			<point x="604.857" y="-168" type="line"/>
			<point x="347" y="-168" type="line"/>
			<point x="347" y="1318.43" type="line"/>
			<point x="604.857" y="1318.43" type="line"/>
			<point x="604.857" y="1485.43" type="line"/>
			<point x="144" y="1485.43" type="line"/>
			<point x="144" y="-335.429" type="line"/>
		</contour>
	</outline>
</glyph>
<glyph name="b" format="2">
	<unicode hex="0062"/>
	<advance width="1264"/>
	<outline>
		<contour>
			<point x="401.714" y="1556" type="line"/>
			<point x="155.143" y="1556" type="line"/>
			<point x="155.143" y="0" type="line"/>
			<point x="348.714" y="0" type="line"/>
			<point x="388" y="154.714" type="line"/>
			<point x="403.429" y="154.714" type="line"/>
			<point x="457.571" y="60.2857"/>
			<point x="550" y="-20"/>
			<point x="724.571" y="-20" type="curve" smooth="yes"/>
			<point x="1006.57" y="-20"/>
			<point x="1162.14" y="203.857"/>
			<point x="1162.14" y="558.714" type="curve" smooth="yes"/>
			<point x="1162.14" y="931.286"/>
			<point x="1003.43" y="1132"/>
			<point x="745.571" y="1132" type="curve" smooth="yes"/>
			<point x="569.429" y="1132"/>
			<point x="454.143" y="1040.43"/>
			<point x="401.714" y="920.143" type="curve"/>
			<point x="391.571" y="920.143" type="line"/>
			<point x="397" y="985.857"/>
			<point x="401.714" y="1075.14"/>
			<point x="401.714" y="1148.71" type="curve" smooth="yes"/>
		</contour>
		<contour>
			<point x="663.857" y="934.714" type="curve" smooth="yes"/>
			<point x="829.857" y="934.714"/>
			<point x="911.143" y="808.429"/>
			<point x="911.143" y="561" type="curve" smooth="yes"/>
			<point x="911.143" y="316.429"/>
			<point x="820.286" y="181.857"/>
			<point x="652" y="181.857" type="curve" smooth="yes"/>
			<point x="476.571" y="181.857"/>
			<point x="401.714" y="302.714"/>
			<point x="401.714" y="539.143" type="curve" smooth="yes"/>
			<point x="401.714" y="579.571" type="line" smooth="yes"/>
			<point x="401.714" y="808.857"/>
			<point x="485" y="934.714"/>
		</contour>
	</outline>
	<anchor name="bottom" x="646" y="0"/>
	<anchor name="top" x="640.286" y="1556"/>
	<anchor name="topright" x="1150.29" y="1556"/>
</glyph>
<glyph name="c" format="2">
	<unicode hex="0063"/>
	<advance width="1045"/>
	<outline>
		<contour>
			<point x="636.857" y="-20" type="curve" smooth="yes"/>
			<point x="774.429" y="-20"/>
			<point x="881" y="12"/>
			<point x="963.857" y="59.8571" type="curve"/>
			<point x="963.857" y="259.429" type="line"/>
			<point x="871.857" y="209.286"/>
			<point x="762.714" y="179.571"/>
			<point x="655.714" y="179.571" type="curve" smooth="yes"/>
			<point x="454.429" y="179.571"/>
			<point x="351.429" y="319.429"/>
			<point x="351.429" y="551" type="curve" smooth="yes"/>
			<point x="351.429" y="790"/>
			<point x="475.143" y="933.857"/>
			<point x="669.571" y="933.857" type="curve" smooth="yes"/>
			<point x="752.143" y="933.857"/>
			<point x="830.714" y="912.857"/>
			<point x="919.571" y="873.571" type="curve"/>
			<point x="989.571" y="1061" type="line"/>
			<point x="895.857" y="1105"/>
			<point x="791.429" y="1131.14"/>
			<point x="669.571" y="1131.14" type="curve" smooth="yes"/>
			<point x="332.286" y="1131.14"/>
			<point x="101" y="926.286"/>
			<point x="101" y="549.857" type="curve" smooth="yes"/>
			<point x="101" y="183.286"/>
			<point x="292" y="-20"/>
		</contour>
	</outline>
	<anchor name="bottom" x="628.286" y="0"/>
	<anchor name="top" x="611.571" y="1110.71"/>
	<anchor name="topright" x="998.571" y="1110.71"/>
</glyph>
<glyph name="f" format="2">
	<unicode hex="0066"/>
	<advance width="724"/>
	<outline>
		<contour>
			<point x="698.857" y="921.429" type="line"/>
			<point x="698.857" y="1110.71" type="line"/>
			<point x="457" y="1110.71" type="line"/>
			<point x="457" y="1193.86" type="line" smooth="yes"/>
			<point x="457" y="1326.86"/>
			<point x="500.571" y="1381.14"/>
			<point x="609.429" y="1381.14" type="curve" smooth="yes"/>
			<point x="663.143" y="1381.14"/>
			<point x="715.286" y="1371.57"/>
			<point x="758.571" y="1358.14" type="curve"/>
			<point x="810" y="1525.43" type="line"/>
			<point x="728.714" y="1551.43"/>
			<point x="657.429" y="1567"/>
			<point x="561.429" y="1567" type="curve" smooth="yes"/>
			<point x="313.857" y="1567"/>
			<point x="215" y="1443.43"/>
			<point x="215" y="1184.71" type="curve" smooth="yes"/>
			<point x="215" y="1107.86" type="line"/>
			<point x="35.5714" y="1050.43" type="line"/>
			<point x="35.5714" y="921.429" type="line"/>
			<point x="210.429" y="921.429" type="line"/>
			<point x="210.429" y="0" type="line"/>
			<point x="457" y="0" type="line"/>
			<point x="457" y="921.429" type="line"/>
		</contour>
	</outline>
	<anchor name="bottom" x="332.857" y="0"/>
	<anchor name="top" x="513.143" y="1567"/>
	<anchor name="topright" x="790.286" y="1567"/>
</glyph>
<glyph name="h" format="2">
	<unicode hex="0068"/>
	<advance width="1287"/>
	<outline>
		<contour>
			<point x="402.571" y="1556" type="line"/>
			<point x="156" y="1556" type="line"/>
			<point x="156" y="0" type="line"/>
			<point x="402.571" y="0" type="line"/>
			<point x="402.571" y="549.429" type="line" smooth="yes"/>
			<point x="402.571" y="803.286"/>
			<point x="496.429" y="933.857"/>
			<point x="678.714" y="933.857" type="curve" smooth="yes"/>
			<point x="816.143" y="933.857"/>
			<point x="890.857" y="844.286"/>
			<point x="890.857" y="656.143" type="curve" smooth="yes"/>
			<point x="890.857" y="0" type="line"/>
			<point x="1138.14" y="0" type="line"/>
			<point x="1138.14" y="725" type="line" smooth="yes"/>
			<point x="1138.14" y="1007.29"/>
			<point x="978.571" y="1131.14"/>
			<point x="751.286" y="1131.14" type="curve" smooth="yes"/>
			<point x="575.571" y="1131.14"/>
			<point x="464.429" y="1055.57"/>
			<point x="403.714" y="933.429" type="curve"/>
			<point x="391.286" y="933.429" type="line"/>
			<point x="396" y="993"/>
			<point x="402.571" y="1075.71"/>
			<point x="402.571" y="1198.29" type="curve" smooth="yes"/>
		</contour>
	</outline>
	<anchor name="bottom" x="649.714" y="0"/>
	<anchor name="center" x="644" y="555.857"/>
	<anchor name="top" x="282.429" y="1556"/>
	<anchor name="topright" x="1191.29" y="1556"/>
</glyph>
<glyph name="q" format="2">
	<unicode hex="0071"/>
	<advance width="1264"/>
	<outline>
		<contour>
			<point x="860" y="-484.714" type="line"/>
			<point x="1106.57" y="-484.714" type="line"/>
			<point x="1106.57" y="1110.71" type="line"/>
			<point x="894.143" y="1110.71" type="line"/>
			<point x="873.714" y="939.429" type="line"/>
			<point x="867.429" y="939.429" type="line"/>
			<point x="813.571" y="1046.14"/>
			<point x="707.714" y="1131.14"/>
			<point x="534.857" y="1131.14" type="curve" smooth="yes"/>
			<point x="254" y="1131.14"/>
			<point x="98.4286" y="905.143"/>
			<point x="98.4286" y="553" type="curve" smooth="yes"/>
			<point x="98.4286" y="177.714"/>
			<point x="256" y="-21.2857"/>
			<point x="517.286" y="-21.2857" type="curve" smooth="yes"/>
			<point x="694.571" y="-21.2857"/>
			<point x="809.857" y="69.7143"/>
			<point x="860" y="188.857" type="curve"/>
			<point x="868.571" y="188.857" type="line"/>
			<point x="863.143" y="128.286"/>
			<point x="860" y="49.7143"/>
			<point x="860" y="-10.5714" type="curve" smooth="yes"/>
		</contour>
		<contour>
			<point x="608.143" y="174.143" type="curve" smooth="yes"/>
			<point x="434.143" y="174.143"/>
			<point x="348.857" y="293"/>
			<point x="348.857" y="549.571" type="curve" smooth="yes"/>
			<point x="348.857" y="798.857"/>
			<point x="441" y="936.143"/>
			<point x="618.857" y="936.143" type="curve" smooth="yes"/>
			<point x="804.143" y="936.143"/>
			<point x="877.143" y="805"/>
			<point x="877.143" y="567.571" type="curve" smooth="yes"/>
			<point x="877.143" y="532.143" type="line" smooth="yes"/>
			<point x="877.143" y="302.429"/>
			<point x="799" y="174.143"/>
		</contour>
	</outline>
	<anchor name="bottom" x="982.429" y="-484.714"/>
	<anchor name="top" x="632.857" y="1110.71"/>
	<anchor name="topright" x="1203.29" y="1110.71"/>
</glyph>
<glyph name="t" format="2">
	<unicode hex="0074"/>
	<advance width="818"/>
	<outline>
		<contour>
			<point x="580.286" y="178.429" type="curve" smooth="yes"/>
			<point x="477.286" y="178.429"/>
			<point x="436.571" y="239.857"/>
			<point x="436.571" y="353.571" type="curve" smooth="yes"/>
			<point x="436.571" y="921.429" type="line"/>
			<point x="746.286" y="921.429" type="line"/>
			<point x="746.286" y="1110.71" type="line"/>
			<point x="436.571" y="1110.71" type="line"/>
			<point x="436.571" y="1355.71" type="line"/>
			<point x="271.857" y="1355.71" type="line"/>
			<point x="208.571" y="1104.43" type="line"/>
			<point x="38.8571" y="1031.57" type="line"/>
			<point x="38.8571" y="921.429" type="line"/>
			<point x="188.286" y="921.429" type="line"/>
			<point x="188.286" y="336.143" type="line" smooth="yes"/>
			<point x="188.286" y="78.8571"/>
			<point x="298.857" y="-20"/>
			<point x="506.571" y="-20" type="curve" smooth="yes"/>
			<point x="622" y="-20"/>
			<point x="689.286" y="0"/>
			<point x="757.714" y="27.1429" type="curve"/>
			<point x="757.714" y="211.857" type="line"/>
			<point x="701.857" y="191.857"/>
			<point x="649.429" y="178.429"/>
		</contour>
	</outline>
	<anchor name="bottom" x="476.714" y="0"/>
	<anchor name="center" x="409.714" y="555.857"/>
	<anchor name="top" x="352.143" y="1355.71"/>
	<anchor name="topright" x="754.857" y="1355.71"/>
</glyph>
<glyph name="w" format="2">
	<unicode hex="0077"/>
	<advance width="1666"/>
	<outline>
		<contour>
			<point x="1078.29" y="-0.857143" type="line"/>
			<point x="1336.43" y="-0.857143" type="line"/>
			<point x="1638" y="1109.86" type="line"/>
			<point x="1399.86" y="1109.86" type="line"/>
			<point x="1255.71" y="535.571" type="line" smooth="yes"/>
			<point x="1230.43" y="435.571"/>
			<point x="1211" y="312.143"/>
			<point x="1203" y="222.286" type="curve"/>
			<point x="1197.86" y="222.286" type="line"/>
			<point x="1184.29" y="309.857"/>
			<point x="1158.57" y="431.286"/>
			<point x="1134.71" y="520.857" type="curve" smooth="yes"/>
			<point x="975.286" y="1109.86" type="line"/>
			<point x="710" y="1109.86" type="line"/>
			<point x="540.286" y="523" type="line" smooth="yes"/>
			<point x="518.143" y="447.571"/>
			<point x="489.571" y="311"/>
			<point x="479.286" y="222.286" type="curve"/>
			<point x="474.143" y="222.286" type="line"/>
			<point x="464.286" y="311"/>
			<point x="444.857" y="427.571"/>
			<point x="418.429" y="535.571" type="curve"/>
			<point x="273.714" y="1109.86" type="line"/>
			<point x="28.4286" y="1109.86" type="line"/>
			<point x="339.143" y="-0.857143" type="line"/>
			<point x="593.286" y="-0.857143" type="line"/>
			<point x="772.143" y="615.571" type="line"/>
			<point x="797.429" y="710.286"/>
			<point x="822" y="832.429"/>
			<point x="835.571" y="899.571" type="curve"/>
			<point x="840.714" y="899.571" type="line"/>
			<point x="853.857" y="832.429"/>
			<point x="876.571" y="712.857"/>
			<point x="899.714" y="624.143" type="curve"/>
		</contour>
	</outline>
	<anchor name="bottom" x="830" y="0"/>
	<anchor name="top" x="833.429" y="1110.71"/>
	<anchor name="topright" x="1625.43" y="1110.71"/>
</glyph>
<glyph name="x" format="2">
	<unicode hex="0078"/>
	<advance width="1158"/>
	<outline>
		<contour>
			<point x="406.714" y="569" type="line"/>
			<point x="28.4286" y="0" type="line"/>
			<point x="310.143" y="0" type="line"/>
			<point x="575.571" y="418.571" type="line"/>
			<point x="843.714" y="0" type="line"/>
			<point x="1125.71" y="0" type="line"/>
			<point x="743.429" y="569" type="line"/>
			<point x="1107" y="1110.71" type="line"/>
			<point x="824.429" y="1110.71" type="line"/>
			<point x="575.571" y="720.286" type="line"/>
			<point x="329" y="1110.71" type="line"/>
			<point x="46.5714" y="1110.71" type="line"/>
		</contour>
	</outline>
	<anchor name="bottom" x="579.429" y="0"/>
	<anchor name="top" x="578.286" y="1110.71"/>
	<anchor name="topright" x="1116.57" y="1110.71"/>
</glyph>
<glyph name="bar" format="2">
	<unicode hex="007C"/>
	<advance width="1065"/>
	<outline>
		<contour>
			<point x="443.143" y="1559" type="line"/>
			<point x="443.143" y="-475.143" type="line"/>
			<point x="618.143" y="-475.143" type="line"/>
			<point x="618.143" y="1559" type="line"/>
		</contour>
	</outline>
</glyph>
<glyph name="braceright" format="2">
	<unicode hex="007D"/>
	<advance width="803"/>
	<outline>
		<contour>
			<point x="69.4286" y="-335.429" type="line"/>
			<point x="404.429" y="-335.429"/>
			<point x="507.143" y="-233.571"/>
			<point x="507.143" y="-20.1429" type="curve" smooth="yes"/>
			<point x="507.143" y="271.571" type="line" smooth="yes"/>
			<point x="507.143" y="414.714"/>
			<point x="603" y="472.429"/>
			<point x="743.571" y="472.429" type="curve"/>
			<point x="743.571" y="665.429" type="line"/>
			<point x="600.714" y="665.429"/>
			<point x="507.143" y="719"/>
			<point x="507.143" y="866.286" type="curve" smooth="yes"/>
			<point x="507.143" y="1161.43" type="line" smooth="yes"/>
			<point x="507.143" y="1370.86"/>
			<point x="408.429" y="1474"/>
			<point x="69.4286" y="1474" type="curve"/>
			<point x="69.4286" y="1292.71" type="line"/>
			<point x="198.857" y="1291.57"/>
			<point x="298" y="1259.57"/>
			<point x="298" y="1130.57" type="curve" smooth="yes"/>
			<point x="298" y="827" type="line" smooth="yes"/>
			<point x="298" y="673.143"/>
			<point x="365.857" y="595.143"/>
			<point x="504.571" y="573.286" type="curve"/>
			<point x="504.571" y="564.714" type="line"/>
			<point x="363.571" y="541.571"/>
			<point x="298" y="463.571"/>
			<point x="298" y="314.429" type="curve" smooth="yes"/>
			<point x="298" y="5.85714" type="line" smooth="yes"/>
			<point x="298" y="-119.857"/>
			<point x="197.714" y="-152.571"/>
			<point x="69.4286" y="-154.286" type="curve"/>
		</contour>
	</outline>
</glyph>
<glyph name="exclamdown" format="2">
	<unicode hex="00A1"/>
	<advance width="535"/>
	<outline>
		<contour>
			<point x="162.143" y="660.429" type="line"/>
			<point x="131.286" y="-354.143" type="line"/>
			<point x="402.571" y="-354.143" type="line"/>
			<point x="371.714" y="660.429" type="line"/>
		</contour>
		<contour>
			<point x="411.857" y="993.429" type="curve" smooth="yes"/>
			<point x="411.857" y="1085.57"/>
			<point x="352.286" y="1129.43"/>
			<point x="269" y="1129.43" type="curve" smooth="yes"/>
			<point x="183.429" y="1129.43"/>
			<point x="127.143" y="1085.57"/>
			<point x="127.143" y="993.429" type="curve" smooth="yes"/>
			<point x="127.143" y="898.143"/>
			<point x="183.429" y="856.143"/>
			<point x="269" y="856.143" type="curve" smooth="yes"/>
			<point x="352.286" y="856.143"/>
			<point x="411.857" y="898.143"/>
		</contour>
	</outline>
</glyph>
<glyph name="sterling" format="2">
	<unicode hex="00A3"/>
	<advance width="1186"/>
	<outline>
		<contour>
			<point x="715.286" y="1483.29" type="curve" smooth="yes"/>
			<point x="459" y="1483.29"/>
			<point x="298" y="1347.57"/>
			<point x="298" y="1049.57" type="curve" smooth="yes"/>
			<point x="298" y="845" type="line"/>
			<point x="109.286" y="845" type="line"/>
			<point x="109.286" y="664.857" type="line"/>
			<point x="298" y="664.857" type="line"/>
			<point x="298" y="479" type="line" smooth="yes"/>
			<point x="298" y="314.571"/>
			<point x="229.714" y="248"/>
			<point x="96.2857" y="199" type="curve"/>
			<point x="96.2857" y="0" type="line"/>
			<point x="1120.43" y="0" type="line"/>
			<point x="1120.43" y="208.143" type="line"/>
			<point x="379.571" y="208.143" type="line"/>
			<point x="460.857" y="247.714"/>
			<point x="540.714" y="324.714"/>
			<point x="540.714" y="481" type="curve" smooth="yes"/>
			<point x="540.714" y="664.857" type="line"/>
			<point x="912.143" y="664.857" type="line"/>
			<point x="912.143" y="845" type="line"/>
			<point x="540.714" y="845" type="line"/>
			<point x="540.714" y="1039.29" type="line" smooth="yes"/>
			<point x="540.714" y="1213"/>
			<point x="612.857" y="1280.86"/>
			<point x="739.857" y="1280.86" type="curve" smooth="yes"/>
			<point x="823.571" y="1280.86"/>
			<point x="907.286" y="1261.86"/>
			<point x="1004.71" y="1223.71" type="curve"/>
			<point x="1075.71" y="1410.71" type="line"/>
			<point x="975.143" y="1452.86"/>
			<point x="853.429" y="1483.29"/>
		</contour>
	</outline>
</glyph>
<glyph name="currency" format="2">
	<unicode hex="00A4"/>
	<advance width="1162"/>
	<outline>
		<contour>
			<point x="176.571" y="723.857" type="curve" smooth="yes"/>
			<point x="176.571" y="645.286"/>
			<point x="199" y="571.429"/>
			<point x="243.714" y="507" type="curve"/>
			<point x="106.143" y="370.429" type="line"/>
			<point x="220.714" y="254.571" type="line"/>
			<point x="357.286" y="388.857" type="line"/>
			<point x="421.571" y="343.429"/>
			<point x="497.286" y="322.714"/>
			<point x="575.714" y="322.714" type="curve" smooth="yes"/>
			<point x="654.286" y="322.714"/>
			<point x="732" y="346.857"/>
			<point x="795.143" y="390" type="curve"/>
			<point x="931.429" y="253.429" type="line"/>
			<point x="1047.86" y="369.286" type="line"/>
			<point x="910.143" y="505.857" type="line"/>
			<point x="955.714" y="570.286"/>
			<point x="978.143" y="644.143"/>
			<point x="978.143" y="723.857" type="curve" smooth="yes"/>
			<point x="978.143" y="801.857"/>
			<point x="954.571" y="882"/>
			<point x="910.143" y="943" type="curve"/>
			<point x="1050.43" y="1082.14" type="line"/>
			<point x="931.429" y="1195.71" type="line"/>
			<point x="795.143" y="1055.43" type="line"/>
			<point x="728.571" y="1103.14"/>
			<point x="654.286" y="1126.14"/>
			<point x="575.714" y="1126.14" type="curve" smooth="yes"/>
			<point x="503" y="1126.14"/>
			<point x="422.714" y="1102"/>
			<point x="359.571" y="1057.71" type="curve"/>
			<point x="220.714" y="1196.57" type="line"/>
			<point x="105" y="1078.43" type="line"/>
			<point x="243.714" y="941.857" type="line"/>
			<point x="201.286" y="879.714"/>
			<point x="176.571" y="801.857"/>
		</contour>
		<contour>
			<point x="342.143" y="723.857" type="curve" smooth="yes"/>
			<point x="342.143" y="855.429"/>
			<point x="448.714" y="959.429"/>
			<point x="576.571" y="959.429" type="curve" smooth="yes"/>
			<point x="706" y="959.429"/>
			<point x="813.714" y="854.571"/>
			<point x="813.714" y="724.714" type="curve" smooth="yes"/>
			<point x="813.714" y="595.143"/>
			<point x="706" y="489.429"/>
			<point x="574.857" y="489.429" type="curve" smooth="yes"/>
			<point x="449.571" y="489.429"/>
			<point x="342.143" y="590.857"/>
		</contour>
	</outline>
</glyph>
<glyph name="brokenbar" format="2">
	<unicode hex="00A6"/>
	<advance width="1065"/>
	<outline>
		<contour>
			<point x="443.143" y="1559" type="line"/>
			<point x="443.143" y="756.429" type="line"/>
			<point x="618.143" y="756.429" type="line"/>
			<point x="618.143" y="1559" type="line"/>
		</contour>
		<contour>
			<point x="443.143" y="328.286" type="line"/>
			<point x="443.143" y="-475.143" type="line"/>
			<point x="618.143" y="-475.143" type="line"/>
			<point x="618.143" y="328.286" type="line"/>
		</contour>
	</outline>
</glyph>
<glyph name="ordfeminine" format="2">
	<unicode hex="00AA"/>
	<advance width="747"/>
	<outline>
		<contour>
			<point x="397.429" y="1479" type="curve" smooth="yes"/>
			<point x="271.429" y="1479"/>
			<point x="193.857" y="1451.43"/>
			<point x="108.714" y="1410.14" type="curve"/>
			<point x="161.143" y="1294.29" type="line"/>
			<point x="237.286" y="1331.57"/>
			<point x="292.857" y="1347.57"/>
			<point x="364" y="1347.57" type="curve" smooth="yes"/>
			<point x="443.429" y="1347.57"/>
			<point x="487.429" y="1314"/>
			<point x="487.429" y="1235.14" type="curve" smooth="yes"/>
			<point x="487.429" y="1204.29" type="line"/>
			<point x="397.286" y="1200.29" type="line" smooth="yes"/>
			<point x="177.143" y="1190.29"/>
			<point x="64" y="1133.71"/>
			<point x="64" y="979" type="curve" smooth="yes"/>
			<point x="64" y="834.571"/>
			<point x="157.143" y="765.857"/>
			<point x="287.286" y="765.857" type="curve" smooth="yes"/>
			<point x="398.714" y="765.857"/>
			<point x="465.286" y="812"/>
			<point x="512.286" y="890.286" type="curve"/>
			<point x="541.429" y="776.143" type="line"/>
			<point x="654.143" y="776.143" type="line"/>
			<point x="654.143" y="1226" type="line" smooth="yes"/>
			<point x="654.143" y="1391.86"/>
			<point x="556.714" y="1479"/>
		</contour>
		<contour>
			<point x="487.429" y="1104.14" type="line"/>
			<point x="487.429" y="1060.71" type="line" smooth="yes"/>
			<point x="487.429" y="963.714"/>
			<point x="437.143" y="891.714"/>
			<point x="338.429" y="891.714" type="curve" smooth="yes"/>
			<point x="269.857" y="891.714"/>
			<point x="231.571" y="924.429"/>
			<point x="231.571" y="985.857" type="curve" smooth="yes"/>
			<point x="231.571" y="1054"/>
			<point x="275.571" y="1092.14"/>
			<point x="398.714" y="1099" type="curve" smooth="yes"/>
		</contour>
	</outline>
	<anchor name="bottom" x="357.857" y="770.143"/>
	<anchor name="top" x="366.857" y="1485"/>
</glyph>
<glyph name="logicalnot" format="2">
	<unicode hex="00AC"/>
	<advance width="1186"/>
	<outline>
		<contour>
			<point x="1069.14" y="809.714" type="line"/>
			<point x="101" y="809.714" type="line"/>
			<point x="101" y="635.143" type="line"/>
			<point x="893.857" y="635.143" type="line"/>
			<point x="893.857" y="251.714" type="line"/>
			<point x="1069.14" y="251.714" type="line"/>
		</contour>
	</outline>
</glyph>
<glyph name="degree" format="2">
	<unicode hex="00B0"/>
	<advance width="870"/>
	<outline>
		<contour>
			<point x="434.571" y="815.571" type="curve" smooth="yes"/>
			<point x="629.429" y="815.571"/>
			<point x="771" y="949.143"/>
			<point x="771" y="1148.29" type="curve" smooth="yes"/>
			<point x="771" y="1342.86"/>
			<point x="629.429" y="1483"/>
			<point x="434.571" y="1483" type="curve" smooth="yes"/>
			<point x="240.571" y="1483"/>
			<point x="98.1429" y="1344.57"/>
			<point x="98.1429" y="1148.29" type="curve" smooth="yes"/>
			<point x="98.1429" y="949.143"/>
			<point x="241.429" y="815.571"/>
		</contour>
		<contour>
			<point x="433.714" y="972.857" type="curve" smooth="yes"/>
			<point x="326.714" y="972.857"/>
			<point x="258.143" y="1045.29"/>
			<point x="258.143" y="1148.29" type="curve" smooth="yes"/>
			<point x="258.143" y="1255.29"/>
			<point x="326.714" y="1326.29"/>
			<point x="433.714" y="1326.29" type="curve" smooth="yes"/>
			<point x="539" y="1326.29"/>
			<point x="611.429" y="1255.29"/>
			<point x="611.429" y="1148.29" type="curve" smooth="yes"/>
			<point x="611.429" y="1045.29"/>
			<point x="539" y="972.857"/>
		</contour>
	</outline>
</glyph>
<glyph name="onequarter" format="2">
	<unicode hex="00BC"/>
	<advance width="1651"/>
	<outline>
		<contour>
			<point x="332.429" y="0" type="line"/>
			<point x="528.857" y="0" type="line"/>
			<point x="1286.29" y="1462" type="line"/>
			<point x="1089.86" y="1462" type="line"/>
		</contour>
		<contour>
			<point x="279" y="586" type="line"/>
			<point x="463.429" y="586" type="line"/>
			<point x="463.429" y="1462" type="line"/>
			<point x="320.714" y="1462" type="line"/>
			<point x="7.28571" y="1241.57" type="line"/>
			<point x="99.5714" y="1125.14" type="line"/>
			<point x="189.143" y="1189.29" type="line" smooth="yes"/>
			<point x="232.429" y="1219.14"/>
			<point x="262" y="1243.43"/>
			<point x="285.571" y="1263.57" type="curve"/>
			<point x="280.143" y="1189.57"/>
			<point x="279" y="1090.71"/>
			<point x="279" y="1035" type="curve" smooth="yes"/>
		</contour>
		<contour>
			<point x="1317.14" y="0" type="line"/>
			<point x="1496" y="0" type="line"/>
			<point x="1496" y="194.286" type="line"/>
			<point x="1632.14" y="194.286" type="line"/>
			<point x="1632.14" y="330.143" type="line"/>
			<point x="1496" y="330.143" type="line"/>
			<point x="1496" y="883" type="line"/>
			<point x="1302.57" y="883" type="line"/>
			<point x="926.429" y="318.143" type="line"/>
			<point x="926.429" y="194.286" type="line"/>
			<point x="1317.14" y="194.286" type="line"/>
		</contour>
		<contour>
			<point x="1076" y="330.143" type="line"/>
			<point x="1256.43" y="597.571" type="line" smooth="yes"/>
			<point x="1277" y="627.714"/>
			<point x="1294.86" y="660.857"/>
			<point x="1321.43" y="719" type="curve"/>
			<point x="1318.29" y="671.714"/>
			<point x="1317.14" y="624.143"/>
			<point x="1317.14" y="569" type="curve" smooth="yes"/>
			<point x="1317.14" y="330.143" type="line"/>
		</contour>
	</outline>
</glyph>
<glyph name="onehalf" format="2">
	<unicode hex="00BD"/>
	<advance width="1737"/>
	<outline>
		<contour>
			<point x="346.714" y="0" type="line"/>
			<point x="543.143" y="0" type="line"/>
			<point x="1300.57" y="1462" type="line"/>
			<point x="1104.14" y="1462" type="line"/>
		</contour>
		<contour>
			<point x="279" y="586" type="line"/>
			<point x="463.429" y="586" type="line"/>
			<point x="463.429" y="1462" type="line"/>
			<point x="320.714" y="1462" type="line"/>
			<point x="7.28571" y="1241.57" type="line"/>
			<point x="99.5714" y="1125.14" type="line"/>
			<point x="185.714" y="1186.43" type="line"/>
			<point x="229" y="1215.71"/>
			<point x="262" y="1243.43"/>
			<point x="285.571" y="1263.57" type="curve"/>
			<point x="283.571" y="1226.14"/>
			<point x="279" y="1081.57"/>
			<point x="279" y="1035" type="curve" smooth="yes"/>
		</contour>
		<contour>
			<point x="1048.71" y="0" type="line"/>
			<point x="1679.86" y="0" type="line"/>
			<point x="1679.86" y="150.429" type="line"/>
			<point x="1268.71" y="150.429" type="line"/>
			<point x="1471.14" y="342" type="line"/>
			<point x="1580.57" y="453.143"/>
			<point x="1657.14" y="539.714"/>
			<point x="1657.14" y="663.714" type="curve" smooth="yes"/>
			<point x="1657.14" y="806.714"/>
			<point x="1555.14" y="899"/>
			<point x="1376.86" y="899" type="curve" smooth="yes"/>
			<point x="1247.14" y="899"/>
			<point x="1147.14" y="863.714"/>
			<point x="1054.86" y="781.571" type="curve"/>
			<point x="1147" y="669.143" type="line"/>
			<point x="1214" y="727.286"/>
			<point x="1277.14" y="755.429"/>
			<point x="1344.29" y="755.429" type="curve" smooth="yes"/>
			<point x="1425.86" y="755.429"/>
			<point x="1469" y="712.571"/>
			<point x="1469" y="644.857" type="curve" smooth="yes"/>
			<point x="1469" y="565.286"/>
			<point x="1407.57" y="498.143"/>
			<point x="1279.57" y="369" type="curve" smooth="yes"/>
			<point x="1048.71" y="136.714" type="line"/>
		</contour>
	</outline>
</glyph>
<glyph name="Aring" format="2">
	<unicode hex="00C5"/>
	<advance width="1356"/>
	<outline>
		<contour>
			<point x="1084.57" y="0" type="line"/>
			<point x="1356.29" y="0" type="line"/>
			<point x="843.286" y="1467.14" type="line"/>
			<point x="520.286" y="1467.14" type="line"/>
			<point x="0" y="0" type="line"/>
			<point x="272.429" y="0" type="line"/>
			<point x="408.571" y="394.429" type="line"/>
			<point x="952.143" y="394.429" type="line"/>
		</contour>
		<contour>
			<point x="896.714" y="601.429" type="line"/>
			<point x="463.571" y="601.429" type="line"/>
			<point x="601.143" y="999.143" type="line"/>
			<point x="624.429" y="1078"/>
			<point x="662.857" y="1215.57"/>
			<point x="681.714" y="1299.86" type="curve"/>
			<point x="704.143" y="1209.57"/>
			<point x="745" y="1064.57"/>
			<point x="764.286" y="1000.43" type="curve"/>
		</contour>
		<contour>
			<point x="677.429" y="1355.29" type="curve" smooth="yes"/>
			<point x="812.286" y="1355.29"/>
			<point x="920.714" y="1446.14"/>
			<point x="920.714" y="1588.29" type="curve" smooth="yes"/>
			<point x="920.714" y="1725.86"/>
			<point x="811.143" y="1820.14"/>
			<point x="677.429" y="1820.14" type="curve" smooth="yes"/>
			<point x="538.714" y="1820.14"/>
			<point x="437.857" y="1727.57"/>
			<point x="437.857" y="1587.14" type="curve" smooth="yes"/>
			<point x="437.857" y="1445.29"/>
			<point x="539.571" y="1355.29"/>
		</contour>
		<contour>
			<point x="677.429" y="1472.29" type="curve" smooth="yes"/>
			<point x="606.571" y="1472.29"/>
			<point x="561.714" y="1522.29"/>
			<point x="561.714" y="1587.14" type="curve" smooth="yes"/>
			<point x="561.714" y="1653.14"/>
			<point x="612" y="1702"/>
			<point x="677.429" y="1702" type="curve" smooth="yes"/>
			<point x="740.286" y="1702"/>
			<point x="791.857" y="1653.14"/>
			<point x="791.857" y="1587.14" type="curve" smooth="yes"/>
			<point x="791.857" y="1522.29"/>
			<point x="743.714" y="1472.29"/>
		</contour>
	</outline>
	<anchor name="bottom" x="678.286" y="0"/>
	<anchor name="top" x="678.286" y="1819.57"/>
</glyph>
<glyph name="AE" format="2">
	<unicode hex="00C6"/>
	<advance width="1777"/>
	<outline>
		<contour>
			<point x="1709.14" y="0" type="line"/>
			<point x="1709.14" y="205.857" type="line"/>
			<point x="1123.86" y="205.857" type="line"/>
			<point x="1123.86" y="661" type="line"/>
			<point x="1671.57" y="661" type="line"/>
			<point x="1671.57" y="864.429" type="line"/>
			<point x="1123.86" y="864.429" type="line"/>
			<point x="1123.86" y="1259" type="line"/>
			<point x="1709.14" y="1259" type="line"/>
			<point x="1709.14" y="1462" type="line"/>
			<point x="621.857" y="1462" type="line"/>
			<point x="-6.57143" y="0" type="line"/>
			<point x="273" y="0" type="line"/>
			<point x="430.429" y="393.571" type="line"/>
			<point x="874.286" y="393.571" type="line"/>
			<point x="874.286" y="0" type="line"/>
		</contour>
		<contour>
			<point x="509.857" y="602.857" type="line"/>
			<point x="774" y="1249.29" type="line"/>
			<point x="874.286" y="1249.29" type="line"/>
			<point x="874.286" y="602.857" type="line"/>
		</contour>
	</outline>
	<anchor name="bottom" x="888.857" y="0"/>
	<anchor name="top" x="952.857" y="1462"/>
</glyph>
<glyph name="Oslash" format="2">
	<unicode hex="00D8"/>
	<advance width="1594"/>
	<outline>
		<contour>
			<point x="1477.57" y="733" type="curve" smooth="yes"/>
			<point x="1477.57" y="981.286"/>
			<point x="1414.57" y="1181.43"/>
			<point x="1285.57" y="1311.57" type="curve"/>
			<point x="1386" y="1455.86" type="line"/>
			<point x="1259.86" y="1534.29" type="line"/>
			<point x="1163.71" y="1395.71" type="line"/>
			<point x="1068.14" y="1454"/>
			<point x="946.857" y="1485"/>
			<point x="802" y="1485" type="curve" smooth="yes"/>
			<point x="340.286" y="1485"/>
			<point x="114.714" y="1184"/>
			<point x="114.714" y="735" type="curve" smooth="yes"/>
			<point x="114.714" y="488"/>
			<point x="179.857" y="285.571"/>
			<point x="314.143" y="151.714" type="curve"/>
			<point x="206.571" y="-0.714286" type="line"/>
			<point x="334.429" y="-85" type="line"/>
			<point x="440.286" y="68.4286" type="line"/>
			<point x="534.714" y="10.7143"/>
			<point x="653.429" y="-20"/>
			<point x="795.714" y="-20" type="curve" smooth="yes"/>
			<point x="1267.71" y="-20"/>
			<point x="1477.57" y="286.143"/>
		</contour>
		<contour>
			<point x="1216.29" y="733" type="curve" smooth="yes"/>
			<point x="1216.29" y="404.714"/>
			<point x="1092.86" y="189.857"/>
			<point x="796.571" y="189.857" type="curve" smooth="yes"/>
			<point x="700.857" y="189.857"/>
			<point x="621.286" y="215.143"/>
			<point x="562.143" y="258.857" type="curve"/>
			<point x="1134.86" y="1083.71" type="line"/>
			<point x="1188" y="1000.14"/>
			<point x="1216.29" y="881"/>
		</contour>
		<contour>
			<point x="376" y="733.857" type="curve" smooth="yes"/>
			<point x="376" y="1057.86"/>
			<point x="507.286" y="1278"/>
			<point x="802" y="1278" type="curve" smooth="yes"/>
			<point x="896" y="1278"/>
			<point x="976.429" y="1251.86"/>
			<point x="1039" y="1207.57" type="curve"/>
			<point x="461.143" y="371.857" type="line"/>
			<point x="402.571" y="463.429"/>
			<point x="376" y="588.286"/>
		</contour>
	</outline>
	<anchor name="bottom" x="797.714" y="0"/>
	<anchor name="top" x="801.143" y="1462"/>
</glyph>
<glyph name="divide" format="2">
	<unicode hex="00F7"/>
	<advance width="1186"/>
	<outline>
		<contour>
			<point x="101" y="635.143" type="line"/>
			<point x="1084.14" y="635.143" type="line"/>
			<point x="1084.14" y="809.714" type="line"/>
			<point x="101" y="809.714" type="line"/>
		</contour>
		<contour>
			<point x="591.143" y="219" type="curve" smooth="yes"/>
			<point x="659" y="219"/>
			<point x="705" y="260.571"/>
			<point x="705" y="343.143" type="curve" smooth="yes"/>
			<point x="705" y="429.857"/>
			<point x="659" y="467.714"/>
			<point x="591.143" y="467.714" type="curve" smooth="yes"/>
			<point x="525.571" y="467.714"/>
			<point x="479.714" y="429.857"/>
			<point x="479.714" y="343.143" type="curve" smooth="yes"/>
			<point x="479.714" y="260.571"/>
			<point x="525.571" y="219"/>
		</contour>
		<contour>
			<point x="591.143" y="977.143" type="curve" smooth="yes"/>
			<point x="659" y="977.143"/>
			<point x="705" y="1018.71"/>
			<point x="705" y="1101.29" type="curve" smooth="yes"/>
			<point x="705" y="1188"/>
			<point x="659" y="1225.86"/>
			<point x="591.143" y="1225.86" type="curve" smooth="yes"/>
			<point x="525.571" y="1225.86"/>
			<point x="479.714" y="1188"/>
			<point x="479.714" y="1101.29" type="curve" smooth="yes"/>
			<point x="479.714" y="1018.71"/>
			<point x="525.571" y="977.143"/>
		</contour>
	</outline>
</glyph>
<glyph name="oslash" format="2">
	<unicode hex="00F8"/>
	<advance width="1283"/>
	<outline>
		<contour>
			<point x="1180.14" y="557" type="curve" smooth="yes"/>
			<point x="1180.14" y="739.857"/>
			<point x="1124.29" y="888.857"/>
			<point x="1024.86" y="988.571" type="curve"/>
			<point x="1115.86" y="1113.14" type="line"/>
			<point x="1003.14" y="1187.29" type="line"/>
			<point x="911.571" y="1060.43" type="line"/>
			<point x="840.714" y="1105.57"/>
			<point x="752.143" y="1131.14"/>
			<point x="647.143" y="1131.14" type="curve" smooth="yes"/>
			<point x="305" y="1131.14"/>
			<point x="101" y="918.714"/>
			<point x="101" y="557" type="curve" smooth="yes"/>
			<point x="101" y="375.571"/>
			<point x="156.857" y="229.714"/>
			<point x="254.714" y="129.714" type="curve"/>
			<point x="149.143" y="-15.5714" type="line"/>
			<point x="263" y="-90.4286" type="line"/>
			<point x="368.857" y="55.5714" type="line"/>
			<point x="440.857" y="7.85714"/>
			<point x="530.857" y="-20"/>
			<point x="638.571" y="-20" type="curve" smooth="yes"/>
			<point x="988.143" y="-20"/>
			<point x="1180.14" y="204.143"/>
		</contour>
		<contour>
			<point x="338.857" y="557" type="curve" smooth="yes"/>
			<point x="338.857" y="812"/>
			<point x="436.571" y="955"/>
			<point x="644.857" y="955" type="curve" smooth="yes"/>
			<point x="713.571" y="955"/>
			<point x="766.143" y="936"/>
			<point x="807.429" y="903.429" type="curve"/>
			<point x="382.571" y="324.714" type="line"/>
			<point x="352.429" y="387"/>
			<point x="338.857" y="464.429"/>
		</contour>
		<contour>
			<point x="941.857" y="557" type="curve" smooth="yes"/>
			<point x="941.857" y="310.286"/>
			<point x="858.286" y="156.143"/>
			<point x="640.857" y="156.143" type="curve" smooth="yes"/>
			<point x="569.857" y="156.143"/>
			<point x="514.571" y="176.571"/>
			<point x="472.714" y="212.571" type="curve"/>
			<point x="895" y="788.714" type="line"/>
			<point x="928.714" y="728.714"/>
			<point x="941.857" y="647.143"/>
		</contour>
	</outline>
	<anchor name="bottom" x="642.571" y="0"/>
	<anchor name="top" x="643.714" y="1110.71"/>
</glyph>
<glyph name="thorn" format="2">
	<unicode hex="00FE"/>
	<advance width="1264"/>
	<outline>
		<contour>
			<point x="1163.86" y="561.286" type="curve" smooth="yes"/>
			<point x="1163.86" y="934.429"/>
			<point x="1005.14" y="1131.14"/>
			<point x="747.286" y="1131.14" type="curve" smooth="yes"/>
			<point x="565.714" y="1131.14"/>
			<point x="452.429" y="1034.43"/>
			<point x="403.429" y="920.143" type="curve"/>
			<point x="391.429" y="920.143" type="line"/>
			<point x="396.857" y="972.714"/>
			<point x="403.429" y="1062.57"/>
			<point x="403.429" y="1153.29" type="curve" smooth="yes"/>
			<point x="403.429" y="1556" type="line"/>
			<point x="156.857" y="1556" type="line"/>
			<point x="156.857" y="-484.714" type="line"/>
			<point x="403.429" y="-484.714" type="line"/>
			<point x="403.429" y="-37.8571" type="line" smooth="yes"/>
			<point x="403.429" y="23.5714"/>
			<point x="400" y="101"/>
			<point x="393.714" y="164.286" type="curve"/>
			<point x="403.429" y="164.286" type="line"/>
			<point x="455.857" y="64.8571"/>
			<point x="558" y="-20"/>
			<point x="730.714" y="-20" type="curve" smooth="yes"/>
			<point x="991.286" y="-20"/>
			<point x="1163.86" y="183.714"/>
		</contour>
		<contour>
			<point x="912.857" y="563.571" type="curve" smooth="yes"/>
			<point x="912.857" y="312.143"/>
			<point x="828" y="181.857"/>
			<point x="659.286" y="181.857" type="curve" smooth="yes"/>
			<point x="489.857" y="181.857"/>
			<point x="404.286" y="304"/>
			<point x="404.286" y="556.429" type="curve" smooth="yes"/>
			<point x="404.286" y="575.571" type="line"/>
			<point x="406.571" y="806"/>
			<point x="487.571" y="933.857"/>
			<point x="664.429" y="933.857" type="curve" smooth="yes"/>
			<point x="835" y="933.857"/>
			<point x="912.857" y="810.714"/>
		</contour>
	</outline>
	<anchor name="bottom" x="632.857" y="-484.714"/>
	<anchor name="top" x="632.857" y="1556"/>
</glyph>
<glyph name="hbar" format="2">
	<unicode hex="0127"/>
	<advance width="1299"/>
	<outline>
		<contour>
			<point x="414.571" y="1556" type="line"/>
			<point x="168" y="1556" type="line"/>
			<point x="168" y="1379.86" type="line"/>
			<point x="14.1429" y="1379.86" type="line"/>
			<point x="14.1429" y="1219.71" type="line"/>
			<point x="168" y="1219.71" type="line"/>
			<point x="168" y="0" type="line"/>
			<point x="414.571" y="0" type="line"/>
			<point x="414.571" y="490.571" type="line" smooth="yes"/>
			<point x="414.571" y="746.143"/>
			<point x="508.429" y="876.143"/>
			<point x="690.143" y="876.143" type="curve" smooth="yes"/>
			<point x="827.571" y="876.143"/>
			<point x="902.286" y="787.143"/>
			<point x="902.286" y="599" type="curve" smooth="yes"/>
			<point x="902.286" y="0" type="line"/>
			<point x="1150.14" y="0" type="line"/>
			<point x="1150.14" y="669" type="line" smooth="yes"/>
			<point x="1150.14" y="949"/>
			<point x="992.286" y="1074"/>
			<point x="763.857" y="1074" type="curve" smooth="yes"/>
			<point x="587" y="1074"/>
			<point x="478.714" y="997.286"/>
			<point x="418" y="876.286" type="curve"/>
			<point x="402.714" y="876.286" type="line"/>
			<point x="408" y="937.571"/>
			<point x="413.429" y="1016.29"/>
			<point x="413.429" y="1078.86" type="curve" smooth="yes"/>
			<point x="413.429" y="1219.71" type="line"/>
			<point x="759.857" y="1219.71" type="line"/>
			<point x="759.857" y="1379.86" type="line"/>
			<point x="414.571" y="1379.86" type="line"/>
		</contour>
	</outline>
	<anchor name="bottom" x="649.714" y="0"/>
	<anchor name="top" x="444" y="1556"/>
</glyph>
<glyph name="kgreenlandic" format="2">
	<unicode hex="0138"/>
	<advance width="1170"/>
	<outline>
		<contour>
			<point x="1145.86" y="1110.71" type="line"/>
			<point x="865.571" y="1110.71" type="line"/>
			<point x="520.571" y="702.143" type="line"/>
			<point x="469.857" y="640"/>
			<point x="435.286" y="588.429"/>
			<point x="400.429" y="545.714" type="curve"/>
			<point x="397.143" y="545.714" type="line"/>
			<point x="400.286" y="631"/>
			<point x="403.714" y="723.857"/>
			<point x="403.714" y="844.571" type="curve" smooth="yes"/>
			<point x="403.714" y="1110.71" type="line"/>
			<point x="156" y="1110.71" type="line"/>
			<point x="156" y="0" type="line"/>
			<point x="403.714" y="0" type="line"/>
			<point x="403.714" y="322.857" type="line"/>
			<point x="564.857" y="476.571" type="line"/>
			<point x="895.286" y="0" type="line"/>
			<point x="1174.29" y="0" type="line"/>
			<point x="734.429" y="628" type="line"/>
		</contour>
	</outline>
	<anchor name="bottom" x="585.571" y="0"/>
	<anchor name="top" x="585.571" y="1110.71"/>
</glyph>
<glyph name="Eng" format="2">
	<unicode hex="014A"/>
	<advance width="1589"/>
	<outline>
		<contour>
			<point x="977.857" y="-432" type="curve" smooth="yes"/>
			<point x="1239.43" y="-432"/>
			<point x="1407.29" y="-278.714"/>
			<point x="1407.29" y="-2" type="curve" smooth="yes"/>
			<point x="1407.29" y="1462" type="line"/>
			<point x="1183" y="1462" type="line"/>
			<point x="1183" y="799.429" type="line" smooth="yes"/>
			<point x="1183" y="680.857"/>
			<point x="1188.71" y="515"/>
			<point x="1193" y="426.714" type="curve"/>
			<point x="1186.71" y="426.714" type="line"/>
			<point x="469.714" y="1462" type="line"/>
			<point x="180.714" y="1462" type="line"/>
			<point x="180.714" y="0" type="line"/>
			<point x="403.429" y="0" type="line"/>
			<point x="403.429" y="791.429" type="line" smooth="yes"/>
			<point x="403.429" y="923.857"/>
			<point x="397.714" y="1067"/>
			<point x="391.714" y="1163.29" type="curve"/>
			<point x="398.571" y="1163.29" type="line"/>
			<point x="1195" y="8.57143" type="line"/>
			<point x="1188.71" y="-156.143"/>
			<point x="1111.86" y="-233.857"/>
			<point x="947.857" y="-233.857" type="curve" smooth="yes"/>
			<point x="883.714" y="-233.857"/>
			<point x="828.143" y="-222.714"/>
			<point x="780.571" y="-212.143" type="curve"/>
			<point x="780.571" y="-409.429" type="line"/>
			<point x="822.571" y="-420.286"/>
			<point x="894.857" y="-432"/>
		</contour>
	</outline>
	<anchor name="bottom" x="794.429" y="-432"/>
	<anchor name="top" x="794.429" y="1462"/>
</glyph>
<glyph name="eng" format="2">
	<unicode hex="014B"/>
	<advance width="1287"/>
	<outline>
		<contour>
			<point x="810.571" y="-492" type="curve" smooth="yes"/>
			<point x="1034.43" y="-492"/>
			<point x="1138.14" y="-346.286"/>
			<point x="1138.14" y="-158" type="curve" smooth="yes"/>
			<point x="1138.14" y="725" type="line" smooth="yes"/>
			<point x="1138.14" y="1006.14"/>
			<point x="979.714" y="1131.14"/>
			<point x="754.714" y="1131.14" type="curve" smooth="yes"/>
			<point x="579" y="1131.14"/>
			<point x="451.571" y="1052.71"/>
			<point x="390.857" y="933.429" type="curve"/>
			<point x="374.857" y="933.429" type="line"/>
			<point x="343" y="1110.71" type="line"/>
			<point x="156" y="1110.71" type="line"/>
			<point x="156" y="0" type="line"/>
			<point x="402.571" y="0" type="line"/>
			<point x="402.571" y="548.286" type="line" smooth="yes"/>
			<point x="402.571" y="803.286"/>
			<point x="493" y="933.857"/>
			<point x="678.714" y="933.857" type="curve" smooth="yes"/>
			<point x="812.714" y="933.857"/>
			<point x="890.857" y="851.143"/>
			<point x="890.857" y="677.286" type="curve" smooth="yes"/>
			<point x="890.857" y="-107.714" type="line" smooth="yes"/>
			<point x="890.857" y="-240.429"/>
			<point x="837.857" y="-291.429"/>
			<point x="756.857" y="-291.429" type="curve" smooth="yes"/>
			<point x="714.714" y="-291.429"/>
			<point x="680.286" y="-286.286"/>
			<point x="636.857" y="-271.714" type="curve"/>
			<point x="636.857" y="-468.714" type="line"/>
			<point x="681.429" y="-481.857"/>
			<point x="753.857" y="-492"/>
		</contour>
	</outline>
	<anchor name="bottom" x="644" y="-492"/>
	<anchor name="top" x="644" y="1110.71"/>
	<anchor name="topright" x="1230.14" y="1110.71"/>
</glyph>
<glyph name="Uogonek" format="2">
	<unicode hex="0172"/>
	<advance width="1511"/>
	<outline>
		<component base="U"/>
		<contour>
			<point x="985.857" y="-210" type="curve" smooth="yes"/>
			<point x="985.857" y="-80.5714"/>
			<point x="1079.29" y="17.7143"/>
			<point x="1182.43" y="132.286" type="curve"/>
			<point x="1042.86" y="112.857" type="line"/>
			<point x="886.571" y="-13.1429"/>
			<point x="818.429" y="-130.429"/>
			<point x="818.429" y="-248.857" type="curve" smooth="yes"/>
			<point x="818.429" y="-397.857"/>
			<point x="918.429" y="-471.429"/>
			<point x="1047.29" y="-471.429" type="curve" smooth="yes"/>
			<point x="1108" y="-471.429"/>
			<point x="1155.29" y="-460.571"/>
			<point x="1191.43" y="-449.143" type="curve"/>
			<point x="1191.43" y="-301.857" type="line"/>
			<point x="1165" y="-312.143"/>
			<point x="1117.71" y="-320.429"/>
			<point x="1081" y="-320.429" type="curve" smooth="yes"/>
			<point x="1020.29" y="-320.429"/>
			<point x="985.857" y="-291.714"/>
		</contour>
	</outline>
	<anchor name="bottom" x="753.571" y="-471.429"/>
	<anchor name="top" x="755.857" y="1462"/>
</glyph>
<glyph name="uni0180" format="2">
	<unicode hex="0180"/>
	<advance width="1272"/>
	<outline>
		<contour>
			<point x="736.571" y="-20" type="curve" smooth="yes"/>
			<point x="1010" y="-20"/>
			<point x="1174.71" y="193.571"/>
			<point x="1174.71" y="558.714" type="curve" smooth="yes"/>
			<point x="1174.71" y="950.143"/>
			<point x="1008" y="1114.29"/>
			<point x="756.429" y="1114.29" type="curve" smooth="yes"/>
			<point x="575.143" y="1114.29"/>
			<point x="461" y="1019.29"/>
			<point x="413.714" y="909.857" type="curve"/>
			<point x="403" y="909.857" type="line"/>
			<point x="410.143" y="973.857"/>
			<point x="413.714" y="1055.71"/>
			<point x="413.714" y="1127.57" type="curve" smooth="yes"/>
			<point x="413.714" y="1216.29" type="line"/>
			<point x="766.429" y="1216.29" type="line"/>
			<point x="766.429" y="1382.14" type="line"/>
			<point x="413.714" y="1382.14" type="line"/>
			<point x="413.714" y="1556" type="line"/>
			<point x="163.714" y="1556" type="line"/>
			<point x="163.714" y="1382.14" type="line"/>
			<point x="9.85714" y="1382.14" type="line"/>
			<point x="9.85714" y="1216.29" type="line"/>
			<point x="163.714" y="1216.29" type="line"/>
			<point x="163.714" y="0" type="line"/>
			<point x="360.714" y="0" type="line"/>
			<point x="399.429" y="150.714" type="line"/>
			<point x="415.429" y="150.714" type="line"/>
			<point x="467.857" y="61.4286"/>
			<point x="557.429" y="-20"/>
		</contour>
		<contour>
			<point x="665.143" y="184.143" type="curve" smooth="yes"/>
			<point x="486.286" y="184.143"/>
			<point x="413.714" y="314.143"/>
			<point x="413.714" y="553.429" type="curve" smooth="yes"/>
			<point x="413.714" y="568.143" type="line"/>
			<point x="417.143" y="792.286"/>
			<point x="514.714" y="913.571"/>
			<point x="675.857" y="913.571" type="curve" smooth="yes"/>
			<point x="829.857" y="913.571"/>
			<point x="919.714" y="806.143"/>
			<point x="919.714" y="561" type="curve" smooth="yes"/>
			<point x="919.714" y="317.571"/>
			<point x="822.571" y="184.143"/>
		</contour>
	</outline>
	<anchor name="bottom" x="636.857" y="0"/>
	<anchor name="top" x="636.857" y="1556"/>
</glyph>
<glyph name="uni0181" format="2">
	<unicode hex="0181"/>
	<advance width="1574"/>
	<outline>
		<contour>
			<point x="422" y="0" type="line"/>
			<point x="934.857" y="0" type="line" smooth="yes"/>
			<point x="1259.57" y="0"/>
			<point x="1470.29" y="146.429"/>
			<point x="1470.29" y="421.714" type="curve" smooth="yes"/>
			<point x="1470.29" y="638.857"/>
			<point x="1365.14" y="734.429"/>
			<point x="1200.71" y="766.857" type="curve"/>
			<point x="1200.71" y="775.429" type="line"/>
			<point x="1349.29" y="801.571"/>
			<point x="1433.29" y="933.714"/>
			<point x="1433.29" y="1099.71" type="curve" smooth="yes"/>
			<point x="1433.29" y="1364.29"/>
			<point x="1246.86" y="1462"/>
			<point x="862.571" y="1462" type="curve" smooth="yes"/>
			<point x="374.143" y="1462" type="line" smooth="yes"/>
			<point x="109.857" y="1462"/>
			<point x="12" y="1310"/>
			<point x="12" y="1130.86" type="curve" smooth="yes"/>
			<point x="12" y="1077.86"/>
			<point x="24.7143" y="1034.86"/>
			<point x="35.5714" y="1012" type="curve"/>
			<point x="233.714" y="1012" type="line"/>
			<point x="225.714" y="1031.71"/>
			<point x="213.143" y="1065.57"/>
			<point x="213.143" y="1111.71" type="curve" smooth="yes"/>
			<point x="213.143" y="1193.57"/>
			<point x="260.429" y="1253.29"/>
			<point x="369" y="1253.29" type="curve" smooth="yes"/>
			<point x="422" y="1253.29" type="line"/>
		</contour>
		<contour>
			<point x="674.286" y="210.429" type="line"/>
			<point x="674.286" y="661.286" type="line"/>
			<point x="902" y="661.286" type="line" smooth="yes"/>
			<point x="1116.14" y="661.286"/>
			<point x="1209" y="592.286"/>
			<point x="1209" y="446.571" type="curve" smooth="yes"/>
			<point x="1209" y="294"/>
			<point x="1118.43" y="210.429"/>
			<point x="913.714" y="210.429" type="curve" smooth="yes"/>
		</contour>
		<contour>
			<point x="674.286" y="863.571" type="line"/>
			<point x="674.286" y="1253.29" type="line"/>
			<point x="876.571" y="1253.29" type="line" smooth="yes"/>
			<point x="1087.29" y="1253.29"/>
			<point x="1174.29" y="1200.14"/>
			<point x="1174.29" y="1064.57" type="curve" smooth="yes"/>
			<point x="1174.29" y="933.571"/>
			<point x="1095.86" y="863.571"/>
			<point x="893.714" y="863.571" type="curve" smooth="yes"/>
		</contour>
	</outline>
	<anchor name="bottom" x="791.286" y="0"/>
	<anchor name="top" x="791.286" y="1462"/>
</glyph>
<glyph name="uni0186" format="2">
	<unicode hex="0186"/>
	<advance width="1298"/>
	<outline>
		<contour>
			<point x="473.429" y="-20" type="curve" smooth="yes"/>
			<point x="945.286" y="-20"/>
			<point x="1183.43" y="314.571"/>
			<point x="1183.43" y="760.857" type="curve" smooth="yes"/>
			<point x="1183.43" y="1196"/>
			<point x="971.429" y="1483"/>
			<point x="521.286" y="1483" type="curve" smooth="yes"/>
			<point x="375.143" y="1483"/>
			<point x="205.714" y="1449.43"/>
			<point x="74.2857" y="1386.43" type="curve"/>
			<point x="137.714" y="1189.86" type="line"/>
			<point x="248.429" y="1245.57"/>
			<point x="382" y="1276"/>
			<point x="505" y="1276" type="curve" smooth="yes"/>
			<point x="784.143" y="1276"/>
			<point x="927.857" y="1069.57"/>
			<point x="927.857" y="743.143" type="curve" smooth="yes"/>
			<point x="927.857" y="403.143"/>
			<point x="768.286" y="186.429"/>
			<point x="462" y="186.429" type="curve" smooth="yes"/>
			<point x="324" y="186.429"/>
			<point x="212.571" y="220.143"/>
			<point x="100.286" y="264.286" type="curve"/>
			<point x="100.286" y="51.5714" type="line"/>
			<point x="208" y="7.42857"/>
			<point x="324.571" y="-20"/>
		</contour>
	</outline>
	<anchor name="bottom" x="591.286" y="0"/>
	<anchor name="top" x="591.286" y="1462"/>
</glyph>
<glyph name="uni018A" format="2">
	<unicode hex="018A"/>
	<advance width="1714"/>
	<outline>
		<contour>
			<point x="418.571" y="0" type="line"/>
			<point x="806.571" y="0" type="line" smooth="yes"/>
			<point x="1315.14" y="0"/>
			<point x="1598" y="253.714"/>
			<point x="1598" y="745" type="curve" smooth="yes"/>
			<point x="1598" y="1212.29"/>
			<point x="1319.43" y="1462"/>
			<point x="852.429" y="1462" type="curve" smooth="yes"/>
			<point x="374.143" y="1462" type="line" smooth="yes"/>
			<point x="111.571" y="1462"/>
			<point x="11.1429" y="1314.29"/>
			<point x="11.1429" y="1130.86" type="curve" smooth="yes"/>
			<point x="11.1429" y="1077.86"/>
			<point x="24.7143" y="1034.86"/>
			<point x="35.5714" y="1012" type="curve"/>
			<point x="233.714" y="1012" type="line"/>
			<point x="225.714" y="1031.71"/>
			<point x="213.143" y="1065.57"/>
			<point x="213.143" y="1111.71" type="curve" smooth="yes"/>
			<point x="213.143" y="1193.57"/>
			<point x="260.429" y="1253.29"/>
			<point x="369" y="1253.29" type="curve" smooth="yes"/>
			<point x="418.571" y="1253.29" type="line"/>
		</contour>
		<contour>
			<point x="670.857" y="210.429" type="line"/>
			<point x="670.857" y="1253.29" type="line"/>
			<point x="863.429" y="1253.29" type="line" smooth="yes"/>
			<point x="1185.29" y="1253.29"/>
			<point x="1336.86" y="1085.43"/>
			<point x="1336.86" y="738.429" type="curve" smooth="yes"/>
			<point x="1336.86" y="386.429"/>
			<point x="1174.14" y="210.429"/>
			<point x="833.714" y="210.429" type="curve" smooth="yes"/>
		</contour>
	</outline>
	<anchor name="bottom" x="861.714" y="0"/>
	<anchor name="top" x="861.714" y="1462"/>
</glyph>
<glyph name="uni018B" format="2">
	<unicode hex="018B"/>
	<advance width="1264"/>
	<outline>
		<contour>
			<point x="632.429" y="0" type="curve" smooth="yes"/>
			<point x="1075" y="0" type="line"/>
			<point x="1075" y="1462" type="line"/>
			<point x="196.571" y="1462" type="line"/>
			<point x="196.571" y="1254.14" type="line"/>
			<point x="826.143" y="1254.14" type="line"/>
			<point x="826.143" y="899.714" type="line"/>
			<point x="644.429" y="899.714" type="line" smooth="yes"/>
			<point x="291.714" y="899.714"/>
			<point x="91.2857" y="723.857"/>
			<point x="91.2857" y="435.571" type="curve" smooth="yes"/>
			<point x="91.2857" y="138.429"/>
			<point x="280.714" y="0"/>
		</contour>
		<contour>
			<point x="643.857" y="200.714" type="line" smooth="yes"/>
			<point x="436.429" y="200.714"/>
			<point x="340.571" y="272.857"/>
			<point x="340.571" y="439.857" type="curve" smooth="yes"/>
			<point x="340.571" y="625.143"/>
			<point x="468.714" y="698.571"/>
			<point x="649.571" y="698.571" type="curve" smooth="yes"/>
			<point x="826.143" y="698.571" type="line"/>
			<point x="826.143" y="200.714" type="line"/>
		</contour>
	</outline>
	<anchor name="bottom" x="632.857" y="0"/>
	<anchor name="top" x="632.857" y="1462"/>
</glyph>
<glyph name="uni018C" format="2">
	<unicode hex="018C"/>
	<advance width="1272"/>
	<outline>
		<contour>
			<point x="524.571" y="-20" type="curve" smooth="yes"/>
			<point x="710.429" y="-20"/>
			<point x="809.571" y="72.8571"/>
			<point x="858.571" y="176.143" type="curve"/>
			<point x="868.143" y="176.143" type="line"/>
			<point x="912.714" y="0" type="line"/>
			<point x="1109.14" y="0" type="line"/>
			<point x="1109.14" y="1556" type="line"/>
			<point x="211.714" y="1556" type="line"/>
			<point x="211.714" y="1366.14" type="line"/>
			<point x="858.571" y="1366.14" type="line"/>
			<point x="858.571" y="1153.14" type="line" smooth="yes"/>
			<point x="858.571" y="1063.71"/>
			<point x="876.286" y="936.571"/>
			<point x="877.286" y="918.286" type="curve"/>
			<point x="868.286" y="918.286" type="line"/>
			<point x="822.143" y="1020.14"/>
			<point x="715.286" y="1113.43"/>
			<point x="538.857" y="1113.43" type="curve" smooth="yes"/>
			<point x="272.429" y="1113.43"/>
			<point x="97.5714" y="911.571"/>
			<point x="97.5714" y="548" type="curve" smooth="yes"/>
			<point x="97.5714" y="176.857"/>
			<point x="261.143" y="-20"/>
		</contour>
		<contour>
			<point x="613.714" y="180.714" type="curve" smooth="yes"/>
			<point x="442.143" y="180.714"/>
			<point x="350.286" y="302.714"/>
			<point x="350.286" y="544.571" type="curve" smooth="yes"/>
			<point x="350.286" y="784.286"/>
			<point x="451.143" y="910.429"/>
			<point x="617.143" y="910.429" type="curve" smooth="yes"/>
			<point x="800" y="910.429"/>
			<point x="875.143" y="781.143"/>
			<point x="875.143" y="553" type="curve" smooth="yes"/>
			<point x="875.143" y="528.143" type="line"/>
			<point x="871.714" y="299.571"/>
			<point x="799.429" y="180.714"/>
		</contour>
	</outline>
	<anchor name="bottom" x="636.857" y="0"/>
	<anchor name="top" x="636.857" y="1556"/>
</glyph>
<glyph name="uni018E" format="2">
	<unicode hex="018E"/>
	<advance width="1125"/>
	<outline>
		<contour>
			<point x="110.429" y="0" type="line"/>
			<point x="944.714" y="0" type="line"/>
			<point x="944.714" y="1462" type="line"/>
			<point x="110.429" y="1462" type="line"/>
			<point x="110.429" y="1259" type="line"/>
			<point x="695.714" y="1259" type="line"/>
			<point x="695.714" y="864.429" type="line"/>
			<point x="148" y="864.429" type="line"/>
			<point x="148" y="661" type="line"/>
			<point x="695.714" y="661" type="line"/>
			<point x="695.714" y="205.857" type="line"/>
			<point x="110.429" y="205.857" type="line"/>
		</contour>
	</outline>
	<anchor name="bottom" x="552.714" y="0"/>
	<anchor name="top" x="545.286" y="1462"/>
	<anchor name="topright" x="1050.14" y="1462"/>
</glyph>
<glyph name="uni0191" format="2">
	<unicode hex="0191"/>
	<advance width="1352"/>
	<outline>
		<contour>
			<point x="358.857" y="-31" type="curve" smooth="yes"/>
			<point x="586.714" y="-31"/>
			<point x="737.714" y="107.571"/>
			<point x="737.714" y="361.286" type="curve" smooth="yes"/>
			<point x="737.714" y="648.714" type="line"/>
			<point x="1242" y="648.714" type="line"/>
			<point x="1242" y="856.286" type="line"/>
			<point x="737.714" y="856.286" type="line"/>
			<point x="737.714" y="1254.43" type="line"/>
			<point x="1278.71" y="1254.43" type="line"/>
			<point x="1278.71" y="1462" type="line"/>
			<point x="492.714" y="1462" type="line"/>
			<point x="492.714" y="358.714" type="line" smooth="yes"/>
			<point x="492.714" y="227.571"/>
			<point x="437.286" y="149.429"/>
			<point x="333.714" y="149.429" type="curve" smooth="yes"/>
			<point x="245.571" y="149.429"/>
			<point x="184.714" y="204"/>
			<point x="184.714" y="299" type="curve" smooth="yes"/>
			<point x="184.714" y="350.143"/>
			<point x="194.429" y="383.714"/>
			<point x="209.286" y="417.714" type="curve"/>
			<point x="26.8571" y="481.429" type="line"/>
			<point x="2.57143" y="438"/>
			<point x="-19.4286" y="378.143"/>
			<point x="-19.4286" y="303.286" type="curve" smooth="yes"/>
			<point x="-19.4286" y="99.4286"/>
			<point x="117.429" y="-31"/>
		</contour>
	</outline>
	<anchor name="bottom" x="349.714" y="-4.28571"/>
	<anchor name="top" x="888.857" y="1462"/>
	<anchor name="topright" x="1331" y="1462"/>
</glyph>
<glyph name="florin" format="2">
	<unicode hex="0192"/>
	<advance width="1150"/>
	<outline>
		<contour>
			<point x="767" y="1531" type="curve" smooth="yes"/>
			<point x="529.143" y="1531"/>
			<point x="423.143" y="1409.71"/>
			<point x="423.143" y="1139.71" type="curve" smooth="yes"/>
			<point x="423.143" y="1038.86" type="line"/>
			<point x="249.429" y="981" type="line"/>
			<point x="249.429" y="852" type="line"/>
			<point x="418.571" y="852" type="line"/>
			<point x="418.571" y="-102.571" type="line" smooth="yes"/>
			<point x="418.571" y="-225.714"/>
			<point x="374.714" y="-291.429"/>
			<point x="283.429" y="-291.429" type="curve" smooth="yes"/>
			<point x="235.429" y="-291.429"/>
			<point x="202.714" y="-284.571"/>
			<point x="160.857" y="-272.571" type="curve"/>
			<point x="160.857" y="-467.286" type="line"/>
			<point x="202.143" y="-479.857"/>
			<point x="274.857" y="-492"/>
			<point x="343.714" y="-492" type="curve" smooth="yes"/>
			<point x="553.571" y="-492"/>
			<point x="664.714" y="-353.286"/>
			<point x="664.714" y="-134.143" type="curve" smooth="yes"/>
			<point x="664.714" y="852" type="line"/>
			<point x="933.143" y="852" type="line"/>
			<point x="933.143" y="1041.71" type="line"/>
			<point x="664.714" y="1041.71" type="line"/>
			<point x="664.714" y="1121.14" type="line" smooth="yes"/>
			<point x="664.714" y="1279.29"/>
			<point x="715.857" y="1345.14"/>
			<point x="827.857" y="1345.14" type="curve" smooth="yes"/>
			<point x="880.143" y="1345.14"/>
			<point x="928.857" y="1335.57"/>
			<point x="975.857" y="1320.14" type="curve"/>
			<point x="1024.43" y="1490.29" type="line"/>
			<point x="948.571" y="1515.29"/>
			<point x="857.571" y="1531"/>
		</contour>
	</outline>
	<anchor name="bottom" x="574.286" y="-492"/>
	<anchor name="top" x="716.571" y="1531"/>
</glyph>
<glyph name="uni0196" format="2">
	<unicode hex="0196"/>
	<advance width="778"/>
	<outline>
		<contour>
			<point x="516.286" y="-20" type="curve" smooth="yes"/>
			<point x="615.714" y="-20"/>
			<point x="700.429" y="0"/>
			<point x="758.286" y="26.8571" type="curve"/>
			<point x="758.286" y="226.429" type="line"/>
			<point x="701.571" y="205"/>
			<point x="656.286" y="192.143"/>
			<point x="588.857" y="192.143" type="curve" smooth="yes"/>
			<point x="501.571" y="192.143"/>
			<point x="441.429" y="244.286"/>
			<point x="441.429" y="365.143" type="curve" smooth="yes"/>
			<point x="441.429" y="1462" type="line"/>
			<point x="176" y="1462" type="line"/>
			<point x="176" y="339.714" type="line" smooth="yes"/>
			<point x="176" y="62.1429"/>
			<point x="326.714" y="-20"/>
		</contour>
	</outline>
	<anchor name="bottom" x="413" y="0"/>
	<anchor name="top" x="349.571" y="1462"/>
</glyph>
<glyph name="uni0198" format="2">
	<unicode hex="0198"/>
	<advance width="1363"/>
	<outline>
		<contour>
			<point x="1192" y="1483" type="curve" smooth="yes"/>
			<point x="1034.71" y="1483"/>
			<point x="933.429" y="1370.71"/>
			<point x="818.143" y="1213.29" type="curve"/>
			<point x="553.857" y="924.286" type="line"/>
			<point x="515.714" y="871.286"/>
			<point x="475" y="809.429"/>
			<point x="441.714" y="757.143" type="curve"/>
			<point x="441.714" y="1462" type="line"/>
			<point x="189.857" y="1462" type="line"/>
			<point x="189.857" y="0" type="line"/>
			<point x="441.714" y="0" type="line"/>
			<point x="441.714" y="535.429" type="line"/>
			<point x="593.857" y="661.857" type="line"/>
			<point x="1020.43" y="0" type="line"/>
			<point x="1310.43" y="0" type="line"/>
			<point x="774.286" y="824.857" type="line"/>
			<point x="1065" y="1176.14" type="line"/>
			<point x="1112" y="1230.86"/>
			<point x="1171.43" y="1274.43"/>
			<point x="1236.86" y="1274.43" type="curve" smooth="yes"/>
			<point x="1275.43" y="1274.43"/>
			<point x="1307.57" y="1265"/>
			<point x="1328.14" y="1256.71" type="curve"/>
			<point x="1328.14" y="1455.14" type="line"/>
			<point x="1300.71" y="1468"/>
			<point x="1254.29" y="1483"/>
		</contour>
	</outline>
	<anchor name="bottom" x="655.571" y="0"/>
	<anchor name="top" x="655.571" y="1462"/>
</glyph>
<glyph name="uni019A" format="2">
	<unicode hex="019A"/>
	<advance width="560"/>
	<outline>
		<contour>
			<point x="156.857" y="0" type="line"/>
			<point x="403.429" y="0" type="line"/>
			<point x="403.429" y="671.714" type="line"/>
			<point x="541.857" y="671.714" type="line"/>
			<point x="541.857" y="848.429" type="line"/>
			<point x="403.429" y="848.429" type="line"/>
			<point x="403.429" y="1556" type="line"/>
			<point x="156.857" y="1556" type="line"/>
			<point x="156.857" y="848.429" type="line"/>
			<point x="18.7143" y="848.429" type="line"/>
			<point x="18.7143" y="671.714" type="line"/>
			<point x="156.857" y="671.714" type="line"/>
		</contour>
	</outline>
	<anchor name="bottom" x="281" y="0"/>
	<anchor name="top" x="281" y="1556"/>
</glyph>
<glyph name="Ohorn" format="2">
	<unicode hex="01A0"/>
	<advance width="1649"/>
	<outline>
		<contour>
			<point x="1478.71" y="733" type="curve" smooth="yes"/>
			<point x="1478.71" y="886.286"/>
			<point x="1455.14" y="1015.86"/>
			<point x="1411" y="1124.86" type="curve"/>
			<point x="1558.14" y="1184.71"/>
			<point x="1651.57" y="1295.86"/>
			<point x="1683.86" y="1539.14" type="curve"/>
			<point x="1671.57" y="1556" type="line"/>
			<point x="1438" y="1556" type="line"/>
			<point x="1438" y="1396"/>
			<point x="1384" y="1321.71"/>
			<point x="1323.71" y="1271.57" type="curve"/>
			<point x="1213.29" y="1409"/>
			<point x="1038.86" y="1485"/>
			<point x="804.286" y="1485" type="curve" smooth="yes"/>
			<point x="342.571" y="1485"/>
			<point x="114.714" y="1184"/>
			<point x="114.714" y="735" type="curve" smooth="yes"/>
			<point x="114.714" y="285"/>
			<point x="333.714" y="-20"/>
			<point x="795.714" y="-20" type="curve" smooth="yes"/>
			<point x="1267.71" y="-20"/>
			<point x="1478.71" y="286.143"/>
		</contour>
		<contour>
			<point x="376" y="733.857" type="curve" smooth="yes"/>
			<point x="376" y="1059"/>
			<point x="509.571" y="1278"/>
			<point x="802" y="1278" type="curve" smooth="yes"/>
			<point x="1081.86" y="1278"/>
			<point x="1217.43" y="1075.71"/>
			<point x="1217.43" y="733" type="curve" smooth="yes"/>
			<point x="1217.43" y="404.714"/>
			<point x="1091.71" y="189.857"/>
			<point x="796.571" y="189.857" type="curve" smooth="yes"/>
			<point x="506.143" y="189.857"/>
			<point x="376" y="407.714"/>
		</contour>
	</outline>
	<anchor name="bottom" x="795.714" y="0"/>
	<anchor name="top" x="800.286" y="1462"/>
</glyph>
<glyph name="ohorn" format="2">
	<unicode hex="01A1"/>
	<advance width="1344"/>
	<outline>
		<contour>
			<point x="1147.57" y="557" type="curve" smooth="yes"/>
			<point x="1147.57" y="671.714"/>
			<point x="1127.71" y="772.429"/>
			<point x="1089.57" y="855.857" type="curve"/>
			<point x="1288.71" y="916.286"/>
			<point x="1357.86" y="1059.43"/>
			<point x="1379.29" y="1261.29" type="curve"/>
			<point x="1367" y="1278.14" type="line"/>
			<point x="1132.29" y="1278.14" type="line"/>
			<point x="1132.29" y="1112.71"/>
			<point x="1080" y="1020.71"/>
			<point x="1006.86" y="988.857" type="curve"/>
			<point x="918.571" y="1080.57"/>
			<point x="786.286" y="1131.14"/>
			<point x="630.571" y="1131.14" type="curve" smooth="yes"/>
			<point x="299.286" y="1131.14"/>
			<point x="101" y="918.714"/>
			<point x="101" y="557" type="curve" smooth="yes"/>
			<point x="101" y="202.429"/>
			<point x="301.429" y="-20"/>
			<point x="622" y="-20" type="curve" smooth="yes"/>
			<point x="960.714" y="-20"/>
			<point x="1147.57" y="204.143"/>
		</contour>
		<contour>
			<point x="352.571" y="557" type="curve" smooth="yes"/>
			<point x="352.571" y="799.429"/>
			<point x="444.571" y="931.571"/>
			<point x="628.286" y="931.571" type="curve" smooth="yes"/>
			<point x="821.286" y="931.571"/>
			<point x="896.143" y="783.571"/>
			<point x="896.143" y="557" type="curve" smooth="yes"/>
			<point x="896.143" y="324.571"/>
			<point x="813.714" y="179.571"/>
			<point x="624.286" y="179.571" type="curve" smooth="yes"/>
			<point x="436.429" y="179.571"/>
			<point x="352.571" y="322.857"/>
		</contour>
	</outline>
	<anchor name="bottom" x="621.429" y="0"/>
	<anchor name="top" x="624.857" y="1110.71"/>
</glyph>
<glyph name="uni01A2" format="2">
	<unicode hex="01A2"/>
	<advance width="2287"/>
	<outline>
		<contour>
			<point x="1452.57" y="733" type="curve" smooth="yes"/>
			<point x="1452.57" y="899.429"/>
			<point x="1423.86" y="1043.14"/>
			<point x="1366.71" y="1157" type="curve"/>
			<point x="1415.86" y="1223.71"/>
			<point x="1492.86" y="1271.71"/>
			<point x="1616.71" y="1271.71" type="curve" smooth="yes"/>
			<point x="1767.71" y="1271.71"/>
			<point x="1854.71" y="1174"/>
			<point x="1854.71" y="988.857" type="curve" smooth="yes"/>
			<point x="1854.71" y="0" type="line"/>
			<point x="2108.29" y="0" type="line"/>
			<point x="2108.29" y="1013.29" type="line" smooth="yes"/>
			<point x="2108.29" y="1335.57"/>
			<point x="1931" y="1483.29"/>
			<point x="1685.29" y="1483.29" type="curve" smooth="yes"/>
			<point x="1493.29" y="1483.29"/>
			<point x="1364.57" y="1400.43"/>
			<point x="1275.86" y="1295.14" type="curve"/>
			<point x="1166.29" y="1416.71"/>
			<point x="1005" y="1485"/>
			<point x="792.286" y="1485" type="curve" smooth="yes"/>
			<point x="341.429" y="1485"/>
			<point x="121" y="1184"/>
			<point x="121" y="735" type="curve" smooth="yes"/>
			<point x="121" y="278.714"/>
			<point x="333.714" y="-20"/>
			<point x="786" y="-20" type="curve" smooth="yes"/>
			<point x="1242.14" y="-20"/>
			<point x="1452.57" y="278.714"/>
		</contour>
		<contour>
			<point x="385.714" y="733.857" type="curve" smooth="yes"/>
			<point x="385.714" y="1061.86"/>
			<point x="514.143" y="1274.57"/>
			<point x="792.286" y="1274.57" type="curve" smooth="yes"/>
			<point x="1063.14" y="1274.57"/>
			<point x="1188.43" y="1070"/>
			<point x="1188.43" y="733" type="curve" smooth="yes"/>
			<point x="1188.43" y="403.571"/>
			<point x="1066.14" y="192.143"/>
			<point x="786.857" y="192.143" type="curve" smooth="yes"/>
			<point x="511.857" y="192.143"/>
			<point x="385.714" y="405.429"/>
		</contour>
	</outline>
	<anchor name="bottom" x="1144.14" y="0"/>
	<anchor name="top" x="1144.14" y="1462"/>
</glyph>
<glyph name="uni01A4" format="2">
	<unicode hex="01A4"/>
	<advance width="1484"/>
	<outline>
		<contour>
			<point x="418.571" y="0" type="line"/>
			<point x="670.857" y="0" type="line"/>
			<point x="670.857" y="543.857" type="line"/>
			<point x="835.429" y="543.857" type="line" smooth="yes"/>
			<point x="1243" y="543.857"/>
			<point x="1390.86" y="751.286"/>
			<point x="1390.86" y="1020.71" type="curve" smooth="yes"/>
			<point x="1390.86" y="1306.86"/>
			<point x="1222" y="1462"/>
			<point x="860" y="1462" type="curve" smooth="yes"/>
			<point x="374.143" y="1462" type="line" smooth="yes"/>
			<point x="109.857" y="1462"/>
			<point x="12" y="1310"/>
			<point x="12" y="1130.86" type="curve" smooth="yes"/>
			<point x="12" y="1077.86"/>
			<point x="24.7143" y="1034.86"/>
			<point x="35.5714" y="1012" type="curve"/>
			<point x="233.714" y="1012" type="line"/>
			<point x="225.714" y="1031.71"/>
			<point x="213.143" y="1065.57"/>
			<point x="213.143" y="1111.71" type="curve" smooth="yes"/>
			<point x="213.143" y="1193.57"/>
			<point x="260.429" y="1253.29"/>
			<point x="369" y="1253.29" type="curve" smooth="yes"/>
			<point x="418.571" y="1253.29" type="line"/>
		</contour>
		<contour>
			<point x="670.857" y="753.143" type="line"/>
			<point x="670.857" y="1253.29" type="line"/>
			<point x="846.286" y="1253.29" type="line" smooth="yes"/>
			<point x="1043.57" y="1253.29"/>
			<point x="1136.43" y="1179.86"/>
			<point x="1136.43" y="1013" type="curve" smooth="yes"/>
			<point x="1136.43" y="823.714"/>
			<point x="1005.43" y="753.143"/>
			<point x="814.857" y="753.143" type="curve" smooth="yes"/>
		</contour>
	</outline>
	<anchor name="bottom" x="746.857" y="0"/>
	<anchor name="top" x="746.857" y="1462"/>
</glyph>
<glyph name="uni01A5" format="2">
	<unicode hex="01A5"/>
	<advance width="1272"/>
	<outline>
		<contour>
			<point x="507.143" y="1567" type="curve" smooth="yes"/>
			<point x="299.571" y="1567"/>
			<point x="166.286" y="1463.43"/>
			<point x="166.286" y="1225.14" type="curve" smooth="yes"/>
			<point x="166.286" y="-484.714" type="line"/>
			<point x="416.286" y="-484.714" type="line"/>
			<point x="416.286" y="-31" type="line" smooth="yes"/>
			<point x="416.286" y="39"/>
			<point x="415.143" y="107.857"/>
			<point x="408.857" y="155.714" type="curve"/>
			<point x="418.571" y="155.714" type="line"/>
			<point x="467" y="63.7143"/>
			<point x="565.714" y="-20"/>
			<point x="749.286" y="-20" type="curve" smooth="yes"/>
			<point x="1002.43" y="-20"/>
			<point x="1177.29" y="174.571"/>
			<point x="1177.29" y="561.286" type="curve" smooth="yes"/>
			<point x="1177.29" y="934.429"/>
			<point x="1011.71" y="1131.14"/>
			<point x="756.714" y="1131.14" type="curve" smooth="yes"/>
			<point x="574.571" y="1131.14"/>
			<point x="467" y="1032.14"/>
			<point x="416.286" y="924.714" type="curve"/>
			<point x="407.714" y="924.714" type="line"/>
			<point x="412" y="996.143"/>
			<point x="416.286" y="1064.86"/>
			<point x="416.286" y="1124.14" type="curve" smooth="yes"/>
			<point x="416.286" y="1216.86" type="line" smooth="yes"/>
			<point x="416.286" y="1321.43"/>
			<point x="462.714" y="1365.71"/>
			<point x="547.143" y="1365.71" type="curve" smooth="yes"/>
			<point x="596.857" y="1365.71"/>
			<point x="642.143" y="1352.71"/>
			<point x="660.714" y="1346.14" type="curve"/>
			<point x="660.714" y="1539.71" type="line"/>
			<point x="634.429" y="1550.43"/>
			<point x="575.429" y="1567"/>
		</contour>
		<contour>
			<point x="675.571" y="930.429" type="curve" smooth="yes"/>
			<point x="841.571" y="930.429"/>
			<point x="922.286" y="810.714"/>
			<point x="922.286" y="566.429" type="curve" smooth="yes"/>
			<point x="922.286" y="306.429"/>
			<point x="831.143" y="184.143"/>
			<point x="671" y="184.143" type="curve" smooth="yes"/>
			<point x="502.714" y="184.143"/>
			<point x="417.143" y="307.429"/>
			<point x="417.143" y="557.571" type="curve" smooth="yes"/>
			<point x="417.143" y="579" type="line"/>
			<point x="420.571" y="807.143"/>
			<point x="499.286" y="930.429"/>
		</contour>
	</outline>
	<anchor name="bottom" x="636.857" y="-484.714"/>
	<anchor name="top" x="636.857" y="1567"/>
</glyph>
<glyph name="uni01A6" format="2">
	<unicode hex="01A6"/>
	<advance width="1314"/>
	<outline>
		<contour>
			<point x="1019.86" y="-205" type="line"/>
			<point x="1302.86" y="-205" type="line"/>
			<point x="875.571" y="439.286" type="line"/>
			<point x="1030" y="501.143"/>
			<point x="1162.14" y="622.714"/>
			<point x="1162.14" y="831.714" type="curve" smooth="yes"/>
			<point x="1162.14" y="1137.43"/>
			<point x="974" y="1257"/>
			<point x="593" y="1257" type="curve" smooth="yes"/>
			<point x="441.714" y="1257" type="line"/>
			<point x="441.714" y="1462" type="line"/>
			<point x="189.857" y="1462" type="line"/>
			<point x="189.857" y="0" type="line"/>
			<point x="441.714" y="0" type="line"/>
			<point x="441.714" y="377.286" type="line"/>
			<point x="660.286" y="377.286" type="line"/>
		</contour>
		<contour>
			<point x="441.714" y="584.857" type="line"/>
			<point x="441.714" y="1048.29" type="line"/>
			<point x="570.571" y="1048.29" type="line" smooth="yes"/>
			<point x="804.857" y="1048.29"/>
			<point x="907.857" y="991.143"/>
			<point x="907.857" y="826.286" type="curve" smooth="yes"/>
			<point x="907.857" y="671"/>
			<point x="805.143" y="584.857"/>
			<point x="596.857" y="584.857" type="curve" smooth="yes"/>
		</contour>
	</outline>
	<anchor name="bottom" x="657.714" y="-205"/>
	<anchor name="top" x="657.714" y="1462"/>
</glyph>
<glyph name="uni01A8" format="2">
	<unicode hex="01A8"/>
	<advance width="1000"/>
	<outline>
		<contour>
			<point x="501.857" y="1131.14" type="curve" smooth="yes"/>
			<point x="363.143" y="1131.14"/>
			<point x="226.143" y="1104.14"/>
			<point x="104.714" y="1049.71" type="curve"/>
			<point x="172.429" y="867.286" type="line"/>
			<point x="273.571" y="913.429"/>
			<point x="376.857" y="945.286"/>
			<point x="476.714" y="945.286" type="curve" smooth="yes"/>
			<point x="589.857" y="945.286"/>
			<point x="660.571" y="907.857"/>
			<point x="660.571" y="830.286" type="curve" smooth="yes"/>
			<point x="660.571" y="754.571"/>
			<point x="589.143" y="722.714"/>
			<point x="402.571" y="655.143" type="curve" smooth="yes"/>
			<point x="209.714" y="584.286"/>
			<point x="75.4286" y="493.286"/>
			<point x="75.4286" y="300" type="curve" smooth="yes"/>
			<point x="75.4286" y="90.5714"/>
			<point x="219.714" y="-20"/>
			<point x="518.143" y="-20" type="curve" smooth="yes"/>
			<point x="665.429" y="-20"/>
			<point x="789.714" y="5.71429"/>
			<point x="895.714" y="59.5714" type="curve"/>
			<point x="895.714" y="248" type="line"/>
			<point x="777.571" y="187.857"/>
			<point x="644.286" y="163"/>
			<point x="535" y="163" type="curve" smooth="yes"/>
			<point x="386.429" y="163"/>
			<point x="322.429" y="206.143"/>
			<point x="322.429" y="294.286" type="curve" smooth="yes"/>
			<point x="322.429" y="372"/>
			<point x="373.429" y="413"/>
			<point x="593" y="494.714" type="curve" smooth="yes"/>
			<point x="798.429" y="571.429"/>
			<point x="909.857" y="648.429"/>
			<point x="909.857" y="835.429" type="curve" smooth="yes"/>
			<point x="909.857" y="1036.86"/>
			<point x="742.286" y="1131.14"/>
		</contour>
	</outline>
	<anchor name="bottom" x="500.429" y="0"/>
	<anchor name="top" x="500.429" y="1110.71"/>
</glyph>
<glyph name="uni01AC" format="2">
	<unicode hex="01AC"/>
	<advance width="1205"/>
	<outline>
		<contour>
			<point x="513.571" y="0" type="line"/>
			<point x="767.571" y="0" type="line"/>
			<point x="767.571" y="1250.43" type="line"/>
			<point x="1183.14" y="1250.43" type="line"/>
			<point x="1183.14" y="1462" type="line"/>
			<point x="378.429" y="1462" type="line" smooth="yes"/>
			<point x="107.286" y="1462"/>
			<point x="11.1429" y="1308.29"/>
			<point x="11.1429" y="1130" type="curve" smooth="yes"/>
			<point x="11.1429" y="1073.57"/>
			<point x="26.4286" y="1031.43"/>
			<point x="36.4286" y="1009.86" type="curve"/>
			<point x="236.286" y="1009.86" type="line"/>
			<point x="228.286" y="1030"/>
			<point x="214" y="1063"/>
			<point x="214" y="1109.14" type="curve" smooth="yes"/>
			<point x="214" y="1189.57"/>
			<point x="262.143" y="1250.43"/>
			<point x="373.286" y="1250.43" type="curve" smooth="yes"/>
			<point x="513.571" y="1250.43" type="line"/>
		</contour>
	</outline>
	<anchor name="bottom" x="603.143" y="0"/>
	<anchor name="top" x="603.143" y="1462"/>
</glyph>
<glyph name="uni01B6" format="2">
	<unicode hex="01B6"/>
	<advance width="993"/>
	<outline>
		<contour>
			<point x="915.714" y="1110.71" type="line"/>
			<point x="103" y="1110.71" type="line"/>
			<point x="103" y="918" type="line"/>
			<point x="626.857" y="918" type="line"/>
			<point x="431.857" y="644" type="line"/>
			<point x="99.8571" y="644" type="line"/>
			<point x="99.8571" y="478.857" type="line"/>
			<point x="306.571" y="478.857" type="line"/>
			<point x="64" y="142.429" type="line"/>
			<point x="64" y="0" type="line"/>
			<point x="925.714" y="0" type="line"/>
			<point x="925.714" y="192.714" type="line"/>
			<point x="362.571" y="192.714" type="line"/>
			<point x="565.857" y="478.857" type="line"/>
			<point x="908.857" y="478.857" type="line"/>
			<point x="908.857" y="644" type="line"/>
			<point x="689.143" y="644" type="line"/>
			<point x="915.714" y="959.571" type="line"/>
		</contour>
	</outline>
	<anchor name="bottom" x="497.286" y="0"/>
	<anchor name="top" x="497.286" y="1110.71"/>
</glyph>
<glyph name="uni01B8" format="2">
	<unicode hex="01B8"/>
	<advance width="1189"/>
	<outline>
		<contour>
			<point x="667.429" y="-20" type="curve" smooth="yes"/>
			<point x="848.286" y="-20"/>
			<point x="992.429" y="12"/>
			<point x="1116" y="62.5714" type="curve"/>
			<point x="1116" y="279" type="line"/>
			<point x="991.857" y="219.429"/>
			<point x="827.429" y="180.714"/>
			<point x="688.571" y="180.714" type="curve" smooth="yes"/>
			<point x="442.143" y="180.714"/>
			<point x="334.571" y="272.571"/>
			<point x="334.571" y="434.143" type="curve" smooth="yes"/>
			<point x="334.571" y="585"/>
			<point x="448.714" y="671.714"/>
			<point x="766.143" y="671.714" type="curve" smooth="yes"/>
			<point x="861.571" y="671.714" type="line"/>
			<point x="861.571" y="851.857" type="line"/>
			<point x="486.714" y="1253.29" type="line"/>
			<point x="1077.57" y="1253.29" type="line"/>
			<point x="1077.57" y="1462" type="line"/>
			<point x="143.714" y="1462" type="line"/>
			<point x="143.714" y="1303.57" type="line"/>
			<point x="579" y="844.429" type="line"/>
			<point x="255.857" y="825"/>
			<point x="83.7143" y="684.857"/>
			<point x="83.7143" y="415.286" type="curve" smooth="yes"/>
			<point x="83.7143" y="154.429"/>
			<point x="281.143" y="-20"/>
		</contour>
	</outline>
	<anchor name="bottom" x="594.429" y="0"/>
	<anchor name="top" x="594.429" y="1462"/>
</glyph>
<glyph name="uni01BA" format="2">
	<unicode hex="01BA"/>
	<advance width="1062"/>
	<outline>
		<contour>
			<point x="460.286" y="-492" type="curve" smooth="yes"/>
			<point x="640.429" y="-492"/>
			<point x="802.571" y="-456.714"/>
			<point x="896.857" y="-417.714" type="curve"/>
			<point x="896.857" y="-233.857" type="line"/>
			<point x="795" y="-267.714"/>
			<point x="661.857" y="-306.857"/>
			<point x="490.571" y="-306.857" type="curve" smooth="yes"/>
			<point x="349.857" y="-306.857"/>
			<point x="270.143" y="-267.857"/>
			<point x="270.143" y="-182.286" type="curve" smooth="yes"/>
			<point x="270.143" y="-100.143"/>
			<point x="326.286" y="-59.4286"/>
			<point x="493.857" y="-45.5714" type="curve" smooth="yes"/>
			<point x="857.286" y="-16.1429"/>
			<point x="959" y="93.5714"/>
			<point x="959" y="306.143" type="curve" smooth="yes"/>
			<point x="959" y="567.286"/>
			<point x="742.143" y="620.857"/>
			<point x="529.286" y="624.857" type="curve"/>
			<point x="907.714" y="955.714" type="line"/>
			<point x="907.714" y="1110.71" type="line"/>
			<point x="102.429" y="1110.71" type="line"/>
			<point x="102.429" y="930.571" type="line"/>
			<point x="615.429" y="930.571" type="line"/>
			<point x="270.571" y="614.571" type="line"/>
			<point x="270.571" y="476.714" type="line"/>
			<point x="376.714" y="476.714" type="line" smooth="yes"/>
			<point x="581.571" y="476.714"/>
			<point x="705.857" y="452.571"/>
			<point x="705.857" y="311.857" type="curve" smooth="yes"/>
			<point x="705.857" y="180.286"/>
			<point x="612.286" y="147.857"/>
			<point x="425.286" y="127.143" type="curve" smooth="yes"/>
			<point x="152.286" y="97.7143"/>
			<point x="53.2857" y="-12.8571"/>
			<point x="53.2857" y="-185.143" type="curve" smooth="yes"/>
			<point x="53.2857" y="-389.429"/>
			<point x="211.429" y="-492"/>
		</contour>
	</outline>
	<anchor name="bottom" x="531" y="-492"/>
	<anchor name="top" x="531" y="1110.71"/>
</glyph>
<glyph name="uni01BF" format="2">
	<unicode hex="01BF"/>
	<advance width="1287"/>
	<outline>
		<contour>
			<point x="764.143" y="1131.14" type="curve" smooth="yes"/>
			<point x="568.286" y="1131.14"/>
			<point x="462.143" y="1028.43"/>
			<point x="413.143" y="919.571" type="curve"/>
			<point x="400.571" y="919.571" type="line"/>
			<point x="368.143" y="1110.71" type="line"/>
			<point x="165.429" y="1110.71" type="line"/>
			<point x="165.429" y="-484.714" type="line"/>
			<point x="415.429" y="-484.714" type="line"/>
			<point x="415.429" y="-24.2857" type="line"/>
			<point x="933.714" y="-2.28571"/>
			<point x="1183" y="270.571"/>
			<point x="1183" y="637.571" type="curve" smooth="yes"/>
			<point x="1183" y="954"/>
			<point x="1019.71" y="1131.14"/>
		</contour>
		<contour>
			<point x="683.571" y="925.286" type="curve" smooth="yes"/>
			<point x="840.714" y="925.286"/>
			<point x="927.429" y="818.429"/>
			<point x="927.429" y="636.429" type="curve" smooth="yes"/>
			<point x="927.429" y="337.429"/>
			<point x="729.857" y="181.286"/>
			<point x="415.429" y="168.429" type="curve"/>
			<point x="415.429" y="572" type="line" smooth="yes"/>
			<point x="415.429" y="792.571"/>
			<point x="492.857" y="925.286"/>
		</contour>
	</outline>
	<anchor name="bottom" x="643.714" y="-484.714"/>
	<anchor name="top" x="643.714" y="1110.71"/>
</glyph>
<glyph name="uni021D" format="2">
	<unicode hex="021D"/>
	<advance width="1053"/>
	<outline>
		<contour>
			<point x="62.1429" y="-492.857" type="line"/>
			<point x="586" y="-388.143"/>
			<point x="964.286" y="-258.286"/>
			<point x="964.286" y="116.857" type="curve" smooth="yes"/>
			<point x="964.286" y="291"/>
			<point x="872.714" y="399.857"/>
			<point x="746.571" y="464.143" type="curve"/>
			<point x="859.571" y="534.286"/>
			<point x="928.714" y="633"/>
			<point x="928.714" y="764.286" type="curve" smooth="yes"/>
			<point x="928.714" y="994.714"/>
			<point x="757.571" y="1128.57"/>
			<point x="471.143" y="1128.57" type="curve" smooth="yes"/>
			<point x="321.857" y="1128.57"/>
			<point x="191.286" y="1093.86"/>
			<point x="64.5714" y="1035.71" type="curve"/>
			<point x="135.857" y="857" type="line"/>
			<point x="227.286" y="898.571"/>
			<point x="342.714" y="930.143"/>
			<point x="460.286" y="930.143" type="curve" smooth="yes"/>
			<point x="594" y="930.143"/>
			<point x="698.857" y="880.714"/>
			<point x="698.857" y="748.857" type="curve" smooth="yes"/>
			<point x="698.857" y="611.857"/>
			<point x="578.286" y="549"/>
			<point x="262.571" y="470.714" type="curve"/>
			<point x="307" y="294" type="line"/>
			<point x="399.857" y="316.143"/>
			<point x="488.429" y="341.571"/>
			<point x="568.429" y="371.714" type="curve"/>
			<point x="662.286" y="316"/>
			<point x="713.286" y="242.571"/>
			<point x="713.286" y="126.857" type="curve" smooth="yes"/>
			<point x="713.286" y="-90.7143"/>
			<point x="504" y="-192.286"/>
			<point x="62.1429" y="-282.286" type="curve"/>
		</contour>
	</outline>
	<anchor name="bottom" x="515.571" y="-368.286"/>
	<anchor name="top" x="466.857" y="1110.71"/>
</glyph>
<glyph name="uni0221" format="2">
	<unicode hex="0221"/>
	<advance width="1765"/>
	<outline>
		<contour>
			<point x="1193" y="-210.429" type="line"/>
			<point x="1196.14" y="-136.429"/>
			<point x="1204.71" y="-55.8571"/>
			<point x="1216.57" y="5.14286" type="curve"/>
			<point x="1238.29" y="2.57143"/>
			<point x="1307.29" y="0"/>
			<point x="1372.57" y="0" type="curve" smooth="yes"/>
			<point x="1666.86" y="0"/>
			<point x="1759.14" y="119.143"/>
			<point x="1759.14" y="266" type="curve" smooth="yes"/>
			<point x="1759.14" y="402.714"/>
			<point x="1660.71" y="492.571"/>
			<point x="1486" y="492.571" type="curve" smooth="yes"/>
			<point x="1289.71" y="492.571"/>
			<point x="1186.29" y="364.714"/>
			<point x="1136.14" y="265.143" type="curve"/>
			<point x="1117.43" y="295.571"/>
			<point x="1109.14" y="349.286"/>
			<point x="1109.14" y="408.143" type="curve" smooth="yes"/>
			<point x="1109.14" y="1556" type="line"/>
			<point x="858.571" y="1556" type="line"/>
			<point x="858.571" y="1169.14" type="line" smooth="yes"/>
			<point x="858.571" y="1080.86"/>
			<point x="876.286" y="953.143"/>
			<point x="877.286" y="935.429" type="curve"/>
			<point x="868.286" y="935.429" type="line"/>
			<point x="822.143" y="1036.71"/>
			<point x="715.286" y="1131.14"/>
			<point x="538.857" y="1131.14" type="curve" smooth="yes"/>
			<point x="272.429" y="1131.14"/>
			<point x="97.5714" y="929.857"/>
			<point x="97.5714" y="548" type="curve" smooth="yes"/>
			<point x="97.5714" y="168.857"/>
			<point x="261.143" y="-20"/>
			<point x="558.857" y="-20" type="curve" smooth="yes"/>
			<point x="764.143" y="-20"/>
			<point x="878.714" y="74.5714"/>
			<point x="938.571" y="173.571" type="curve"/>
			<point x="947.857" y="173.571" type="line"/>
			<point x="958.714" y="114.429"/>
			<point x="989.571" y="69.5714"/>
			<point x="1038.29" y="43.5714" type="curve"/>
			<point x="1023.14" y="-31.5714"/>
			<point x="1012" y="-117.571"/>
			<point x="1007.14" y="-203" type="curve"/>
		</contour>
		<contour>
			<point x="613.714" y="180.714" type="curve" smooth="yes"/>
			<point x="442.143" y="180.714"/>
			<point x="350.286" y="302.714"/>
			<point x="350.286" y="544.571" type="curve" smooth="yes"/>
			<point x="350.286" y="795.714"/>
			<point x="451.143" y="927"/>
			<point x="617.143" y="927" type="curve" smooth="yes"/>
			<point x="800" y="927"/>
			<point x="875.143" y="793.714"/>
			<point x="875.143" y="553" type="curve" smooth="yes"/>
			<point x="875.143" y="528.143" type="line"/>
			<point x="871.714" y="297"/>
			<point x="799.429" y="180.714"/>
		</contour>
		<contour>
			<point x="1394.29" y="144.714" type="curve" smooth="yes"/>
			<point x="1337" y="144.714"/>
			<point x="1281.29" y="147.286"/>
			<point x="1252.29" y="149.857" type="curve"/>
			<point x="1284.14" y="249.571"/>
			<point x="1343" y="344.714"/>
			<point x="1468" y="344.714" type="curve" smooth="yes"/>
			<point x="1543.86" y="344.714"/>
			<point x="1585.57" y="315.143"/>
			<point x="1585.57" y="254.286" type="curve" smooth="yes"/>
			<point x="1585.57" y="186.714"/>
			<point x="1538.14" y="144.714"/>
		</contour>
	</outline>
	<anchor name="bottom" x="882.571" y="-210.429"/>
	<anchor name="top" x="882.571" y="1556"/>
</glyph>
<glyph name="uni0236" format="2">
	<unicode hex="0236"/>
	<advance width="876"/>
	<outline>
		<contour>
			<point x="230" y="-71.5714" type="line"/>
			<point x="249" y="-16.1429"/>
			<point x="285.714" y="57"/>
			<point x="315" y="93.7143" type="curve"/>
			<point x="356" y="26.7143"/>
			<point x="431.857" y="-20"/>
			<point x="557.143" y="-20" type="curve" smooth="yes"/>
			<point x="763.571" y="-20"/>
			<point x="877.714" y="87.2857"/>
			<point x="877.714" y="244.286" type="curve" smooth="yes"/>
			<point x="877.714" y="380.143"/>
			<point x="782.571" y="477.286"/>
			<point x="622.143" y="477.286" type="curve" smooth="yes"/>
			<point x="545.143" y="477.286"/>
			<point x="477.286" y="448.857"/>
			<point x="441.143" y="421.571" type="curve"/>
			<point x="441.143" y="920.286" type="line"/>
			<point x="769.714" y="920.286" type="line"/>
			<point x="769.714" y="1110.71" type="line"/>
			<point x="441.143" y="1110.71" type="line"/>
			<point x="441.143" y="1354.57" type="line"/>
			<point x="275.286" y="1354.57" type="line"/>
			<point x="208.571" y="1107.86" type="line"/>
			<point x="41.1429" y="1031.57" type="line"/>
			<point x="41.1429" y="920.286" type="line"/>
			<point x="191.143" y="920.286" type="line"/>
			<point x="191.143" y="388.143" type="line" smooth="yes"/>
			<point x="191.143" y="308.286"/>
			<point x="201.143" y="242.429"/>
			<point x="221" y="196.571" type="curve"/>
			<point x="176.429" y="146.286"/>
			<point x="130.286" y="56.8571"/>
			<point x="103.571" y="-17.8571" type="curve"/>
		</contour>
		<contour>
			<point x="585.143" y="130.429" type="curve" smooth="yes"/>
			<point x="499.429" y="130.429"/>
			<point x="451.429" y="188.714"/>
			<point x="442.571" y="267.286" type="curve"/>
			<point x="475.571" y="308.714"/>
			<point x="530.571" y="334.857"/>
			<point x="588.857" y="334.857" type="curve" smooth="yes"/>
			<point x="666.143" y="334.857"/>
			<point x="709.714" y="295.429"/>
			<point x="709.714" y="233.429" type="curve" smooth="yes"/>
			<point x="709.714" y="171.143"/>
			<point x="656.429" y="130.429"/>
		</contour>
	</outline>
	<anchor name="bottom" x="438" y="0"/>
	<anchor name="top" x="438" y="1354.57"/>
</glyph>
<glyph name="uni0238" format="2">
	<unicode hex="0238"/>
	<advance width="1968"/>
	<outline>
		<contour>
			<point x="593.286" y="-20" type="curve" smooth="yes"/>
			<point x="776.143" y="-20"/>
			<point x="912.571" y="59.1429"/>
			<point x="981.571" y="207.857" type="curve"/>
			<point x="1050.57" y="59.1429"/>
			<point x="1182.86" y="-20"/>
			<point x="1364.71" y="-20" type="curve" smooth="yes"/>
			<point x="1671.71" y="-20"/>
			<point x="1869" y="183.286"/>
			<point x="1869" y="553" type="curve" smooth="yes"/>
			<point x="1869" y="930.143"/>
			<point x="1700.86" y="1132"/>
			<point x="1443.29" y="1132" type="curve" smooth="yes"/>
			<point x="1258.57" y="1132"/>
			<point x="1155.57" y="1032.71"/>
			<point x="1109.14" y="925.857" type="curve"/>
			<point x="1098.86" y="925.857" type="line"/>
			<point x="1102" y="976.429"/>
			<point x="1109.14" y="1066"/>
			<point x="1109.14" y="1149.86" type="curve" smooth="yes"/>
			<point x="1109.14" y="1556" type="line"/>
			<point x="858.571" y="1556" type="line"/>
			<point x="858.571" y="1149.86" type="line" smooth="yes"/>
			<point x="858.571" y="1070.57"/>
			<point x="865" y="979.857"/>
			<point x="869.286" y="925.857" type="curve"/>
			<point x="858.571" y="925.857" type="line"/>
			<point x="813.286" y="1030.43"/>
			<point x="709.571" y="1132"/>
			<point x="524.857" y="1132" type="curve" smooth="yes"/>
			<point x="264.571" y="1132"/>
			<point x="97.5714" y="932.429"/>
			<point x="97.5714" y="557.571" type="curve" smooth="yes"/>
			<point x="97.5714" y="193.571"/>
			<point x="282.857" y="-20"/>
		</contour>
		<contour>
			<point x="606.429" y="183" type="curve" smooth="yes"/>
			<point x="440.714" y="183"/>
			<point x="352.571" y="299.286"/>
			<point x="352.571" y="556.429" type="curve" smooth="yes"/>
			<point x="352.571" y="805.714"/>
			<point x="445" y="931.286"/>
			<point x="606" y="931.286" type="curve" smooth="yes"/>
			<point x="778.286" y="931.286"/>
			<point x="858.571" y="808.286"/>
			<point x="858.571" y="559.571" type="curve" smooth="yes"/>
			<point x="858.571" y="290.143"/>
			<point x="773.429" y="183"/>
		</contour>
		<contour>
			<point x="1360.14" y="183" type="curve" smooth="yes"/>
			<point x="1196.14" y="183"/>
			<point x="1109.14" y="288.714"/>
			<point x="1109.14" y="559.571" type="curve" smooth="yes"/>
			<point x="1109.14" y="809.429"/>
			<point x="1191" y="931.286"/>
			<point x="1361" y="931.286" type="curve" smooth="yes"/>
			<point x="1522.71" y="931.286"/>
			<point x="1615.14" y="802.286"/>
			<point x="1615.14" y="553" type="curve" smooth="yes"/>
			<point x="1615.14" y="294.143"/>
			<point x="1527" y="183"/>
		</contour>
	</outline>
	<anchor name="bottom" x="983.857" y="0"/>
	<anchor name="top" x="983.857" y="1556"/>
</glyph>
<glyph name="uni023A" format="2">
	<unicode hex="023A"/>
	<advance width="1361"/>
	<outline>
		<component base="A"/>
		<contour>
			<point x="1121.86" y="1556" type="line"/>
			<point x="957.429" y="1556" type="line"/>
			<point x="363.429" y="-154" type="line"/>
			<point x="527.857" y="-154" type="line"/>
		</contour>
	</outline>
	<anchor name="bottom" x="678.286" y="0"/>
	<anchor name="top" x="678.286" y="1462"/>
</glyph>
<glyph name="uni023D" format="2">
	<unicode hex="023D"/>
	<advance width="1125"/>
	<outline>
		<component base="L"/>
		<contour>
			<point x="19.1429" y="617.143" type="line"/>
			<point x="763.714" y="617.143" type="line"/>
			<point x="763.714" y="817.286" type="line"/>
			<point x="19.1429" y="817.286" type="line"/>
		</contour>
	</outline>
	<anchor name="bottom" x="610.286" y="0"/>
	<anchor name="top" x="300.857" y="1462"/>
</glyph>
<glyph name="uni0240" format="2">
	<unicode hex="0240"/>
	<advance width="985"/>
	<outline>
		<contour>
			<point x="790.714" y="-492" type="curve" smooth="yes"/>
			<point x="867" y="-492"/>
			<point x="940.571" y="-479.571"/>
			<point x="985.286" y="-464.143" type="curve"/>
			<point x="985.286" y="-266.857" type="line"/>
			<point x="944.857" y="-279.714"/>
			<point x="898.714" y="-286.857"/>
			<point x="841" y="-286.857" type="curve" smooth="yes"/>
			<point x="728.143" y="-286.857"/>
			<point x="676.571" y="-232.286"/>
			<point x="608.857" y="-69.7143" type="curve" smooth="yes"/>
			<point x="559.286" y="50.8571"/>
			<point x="480.143" y="144.714"/>
			<point x="340.286" y="169.571" type="curve"/>
			<point x="906" y="948.714" type="line"/>
			<point x="906" y="1110.71" type="line"/>
			<point x="98.4286" y="1110.71" type="line"/>
			<point x="98.4286" y="918" type="line"/>
			<point x="618.857" y="918" type="line"/>
			<point x="60.5714" y="148.143" type="line"/>
			<point x="60.5714" y="0" type="line"/>
			<point x="152.571" y="0" type="line" smooth="yes"/>
			<point x="289.429" y="0"/>
			<point x="350.857" y="-54.4286"/>
			<point x="398.714" y="-185.857" type="curve" smooth="yes"/>
			<point x="462.143" y="-358.429"/>
			<point x="539.429" y="-492"/>
		</contour>
	</outline>
	<anchor name="bottom" x="492.714" y="-492"/>
	<anchor name="top" x="492.714" y="1110.71"/>
</glyph>
<glyph name="uni0243" format="2">
	<unicode hex="0243"/>
	<advance width="1326"/>
	<outline>
		<contour>
			<point x="180.714" y="0" type="line"/>
			<point x="681.571" y="0" type="line" smooth="yes"/>
			<point x="1006.29" y="0"/>
			<point x="1222.71" y="141.857"/>
			<point x="1222.71" y="427.429" type="curve" smooth="yes"/>
			<point x="1222.71" y="643.429"/>
			<point x="1107.29" y="745.286"/>
			<point x="935.571" y="778.286" type="curve"/>
			<point x="935.571" y="786.286" type="line"/>
			<point x="1078.86" y="815.286"/>
			<point x="1190.29" y="930.286"/>
			<point x="1190.29" y="1107.71" type="curve" smooth="yes"/>
			<point x="1190.29" y="1338.57"/>
			<point x="1034.71" y="1462"/>
			<point x="639.714" y="1462" type="curve" smooth="yes"/>
			<point x="180.714" y="1462" type="line"/>
			<point x="180.714" y="518.857" type="line"/>
			<point x="25.2857" y="518.857" type="line"/>
			<point x="25.2857" y="369" type="line"/>
			<point x="180.714" y="369" type="line"/>
		</contour>
		<contour>
			<point x="429.143" y="196.143" type="line"/>
			<point x="429.143" y="369" type="line"/>
			<point x="672" y="369" type="line"/>
			<point x="672" y="518.857" type="line"/>
			<point x="429.143" y="518.857" type="line"/>
			<point x="429.143" y="680.143" type="line"/>
			<point x="654" y="680.143" type="line" smooth="yes"/>
			<point x="863.571" y="680.143"/>
			<point x="966.143" y="601.429"/>
			<point x="966.143" y="445.429" type="curve" smooth="yes"/>
			<point x="966.143" y="281.429"/>
			<point x="865.857" y="196.143"/>
			<point x="668.429" y="196.143" type="curve" smooth="yes"/>
		</contour>
		<contour>
			<point x="429.143" y="867.571" type="line"/>
			<point x="429.143" y="1269.29" type="line"/>
			<point x="634.857" y="1269.29" type="line" smooth="yes"/>
			<point x="843.286" y="1269.29"/>
			<point x="935.286" y="1207"/>
			<point x="935.286" y="1074.29" type="curve" smooth="yes"/>
			<point x="935.286" y="944.429"/>
			<point x="848.429" y="867.571"/>
			<point x="650.143" y="867.571" type="curve" smooth="yes"/>
		</contour>
	</outline>
	<anchor name="bottom" x="663.857" y="0"/>
	<anchor name="top" x="663.857" y="1462"/>
</glyph>
<glyph name="uni0247" format="2">
	<unicode hex="0247"/>
	<advance width="1188"/>
	<outline>
		<component base="e"/>
		<contour>
			<point x="1006.71" y="1482.29" type="line"/>
			<point x="838.429" y="1482.29" type="line"/>
			<point x="193.429" y="-382" type="line"/>
			<point x="361.286" y="-382" type="line"/>
		</contour>
	</outline>
	<anchor name="bottom" x="626.714" y="-382"/>
	<anchor name="top" x="598.714" y="1482.29"/>
</glyph>
<glyph name="uni0248" format="2">
	<unicode hex="0248"/>
	<advance width="635"/>
	<outline>
		<contour>
			<point x="15.2857" y="-414.857" type="curve" smooth="yes"/>
			<point x="280.286" y="-414.857"/>
			<point x="444.286" y="-272.857"/>
			<point x="444.286" y="72.2857" type="curve" smooth="yes"/>
			<point x="444.286" y="620" type="line"/>
			<point x="635.286" y="620" type="line"/>
			<point x="635.286" y="831.571" type="line"/>
			<point x="444.286" y="831.571" type="line"/>
			<point x="444.286" y="1462" type="line"/>
			<point x="192.429" y="1462" type="line"/>
			<point x="192.429" y="831.571" type="line"/>
			<point x="2.85714" y="831.571" type="line"/>
			<point x="2.85714" y="620" type="line"/>
			<point x="192.429" y="620" type="line"/>
			<point x="192.429" y="69.7143" type="line" smooth="yes"/>
			<point x="192.429" y="-135.143"/>
			<point x="118.571" y="-200.143"/>
			<point x="-15.8571" y="-200.143" type="curve" smooth="yes"/>
			<point x="-75.7143" y="-200.143"/>
			<point x="-124.571" y="-190.143"/>
			<point x="-163.571" y="-176.571" type="curve"/>
			<point x="-163.571" y="-390.571" type="line"/>
			<point x="-122.857" y="-402.286"/>
			<point x="-64.1429" y="-414.857"/>
		</contour>
	</outline>
	<anchor name="bottom" x="318.571" y="-414.857"/>
	<anchor name="top" x="318.571" y="1462"/>
</glyph>
<glyph name="uni0249" format="2">
	<unicode hex="0249"/>
	<advance width="581"/>
	<outline>
		<contour>
			<point x="57.8571" y="-492" type="curve" smooth="yes"/>
			<point x="305.286" y="-492"/>
			<point x="414.571" y="-346.286"/>
			<point x="414.571" y="-151.143" type="curve" smooth="yes"/>
			<point x="414.571" y="479.143" type="line"/>
			<point x="579.429" y="479.143" type="line"/>
			<point x="579.429" y="645" type="line"/>
			<point x="414.571" y="645" type="line"/>
			<point x="414.571" y="1110.71" type="line"/>
			<point x="164.571" y="1110.71" type="line"/>
			<point x="164.571" y="645" type="line"/>
			<point x="1.42857" y="645" type="line"/>
			<point x="1.42857" y="479.143" type="line"/>
			<point x="164.571" y="479.143" type="line"/>
			<point x="164.571" y="-106.571" type="line" smooth="yes"/>
			<point x="164.571" y="-243.286"/>
			<point x="100.714" y="-289.143"/>
			<point x="12.1429" y="-289.143" type="curve" smooth="yes"/>
			<point x="-41.4286" y="-289.143"/>
			<point x="-81" y="-284"/>
			<point x="-126.571" y="-269.429" type="curve"/>
			<point x="-126.571" y="-468.714" type="line"/>
			<point x="-82.5714" y="-481.857"/>
			<point x="-7.85714" y="-492"/>
		</contour>
		<contour>
			<point x="168.714" y="1387.14" type="curve"/>
			<point x="189.714" y="1311.14"/>
			<point x="248.857" y="1299.71"/>
			<point x="314" y="1314.71" type="curve" smooth="yes"/>
			<point x="378.571" y="1328.86"/>
			<point x="432" y="1363.29"/>
			<point x="411" y="1441.57" type="curve"/>
			<point x="393.429" y="1521"/>
			<point x="333.143" y="1527.71"/>
			<point x="268.571" y="1513.57" type="curve" smooth="yes"/>
			<point x="203.429" y="1498.57"/>
			<point x="151.143" y="1465.43"/>
		</contour>
	</outline>
	<anchor name="bottom" x="291.286" y="-492"/>
	<anchor name="top" x="291.286" y="1541"/>
</glyph>
<glyph name="uni024B" format="2">
	<unicode hex="024B"/>
	<advance width="1272"/>
	<outline>
		<contour>
			<point x="533.714" y="1131.14" type="curve" smooth="yes"/>
			<point x="262" y="1131.14"/>
			<point x="95" y="916"/>
			<point x="95" y="554.143" type="curve" smooth="yes"/>
			<point x="95" y="176.571"/>
			<point x="257.143" y="-21.2857"/>
			<point x="515.571" y="-21.2857" type="curve" smooth="yes"/>
			<point x="696.857" y="-21.2857"/>
			<point x="809.857" y="72"/>
			<point x="856" y="184.286" type="curve"/>
			<point x="866.286" y="184.286" type="line"/>
			<point x="860.857" y="123.714"/>
			<point x="856" y="40"/>
			<point x="856" y="-23.1429" type="curve" smooth="yes"/>
			<point x="856" y="-169.143" type="line" smooth="yes"/>
			<point x="856" y="-364.857"/>
			<point x="936" y="-494.571"/>
			<point x="1161.57" y="-494.571" type="curve" smooth="yes"/>
			<point x="1228.57" y="-494.571"/>
			<point x="1293.57" y="-485.571"/>
			<point x="1334" y="-464.429" type="curve"/>
			<point x="1334" y="-272.857" type="line"/>
			<point x="1296.43" y="-284.857"/>
			<point x="1269.43" y="-292.857"/>
			<point x="1223.29" y="-292.857" type="curve" smooth="yes"/>
			<point x="1146.43" y="-292.857"/>
			<point x="1106.57" y="-245.857"/>
			<point x="1106.57" y="-160.857" type="curve" smooth="yes"/>
			<point x="1106.57" y="1110.71" type="line"/>
			<point x="895.286" y="1110.71" type="line"/>
			<point x="873.714" y="939.429" type="line"/>
			<point x="867.429" y="939.429" type="line"/>
			<point x="814.714" y="1041.57"/>
			<point x="712.857" y="1131.14"/>
		</contour>
		<contour>
			<point x="613.143" y="927" type="curve" smooth="yes"/>
			<point x="796.143" y="927"/>
			<point x="872.571" y="797.571"/>
			<point x="872.571" y="558.429" type="curve" smooth="yes"/>
			<point x="872.571" y="523" type="line"/>
			<point x="869.143" y="297.857"/>
			<point x="788.714" y="176.429"/>
			<point x="604.714" y="176.429" type="curve" smooth="yes"/>
			<point x="430.143" y="176.429"/>
			<point x="350" y="301.571"/>
			<point x="350" y="551.857" type="curve" smooth="yes"/>
			<point x="350" y="791.429"/>
			<point x="437" y="927"/>
		</contour>
	</outline>
	<anchor name="bottom" x="636.857" y="-494.571"/>
	<anchor name="top" x="636.857" y="1110.71"/>
</glyph>
<glyph name="uni024C" format="2">
	<unicode hex="024C"/>
	<advance width="1314"/>
	<outline>
		<component base="R"/>
		<contour>
			<point x="248.571" y="581.286" type="line"/>
			<point x="248.571" y="789.857" type="line"/>
			<point x="20" y="789.857" type="line"/>
			<point x="20" y="581.286" type="line"/>
		</contour>
	</outline>
	<anchor name="bottom" x="674.857" y="0"/>
	<anchor name="top" x="650.286" y="1462"/>
</glyph>
<glyph name="uni024F" format="2">
	<unicode hex="024F"/>
	<advance width="1099"/>
	<outline>
		<component base="y"/>
		<contour>
			<point x="1082.86" y="768.571" type="line"/>
			<point x="15.4286" y="768.571" type="line"/>
			<point x="15.4286" y="601.571" type="line"/>
			<point x="1082.86" y="601.571" type="line"/>
		</contour>
	</outline>
	<anchor name="bottom" x="205.429" y="-494.571"/>
	<anchor name="top" x="544.857" y="1110.71"/>
</glyph>
<glyph name="uni0253" format="2">
	<unicode hex="0253"/>
	<advance width="1272"/>
	<outline>
		<contour>
			<point x="512.714" y="1569.29" type="curve" smooth="yes"/>
			<point x="301.286" y="1569.29"/>
			<point x="163.714" y="1464"/>
			<point x="163.714" y="1225.71" type="curve" smooth="yes"/>
			<point x="163.714" y="0" type="line"/>
			<point x="360.714" y="0" type="line"/>
			<point x="399.429" y="150.714" type="line"/>
			<point x="415.429" y="150.714" type="line"/>
			<point x="467.857" y="61.4286"/>
			<point x="557.429" y="-20"/>
			<point x="736.571" y="-20" type="curve" smooth="yes"/>
			<point x="1010" y="-20"/>
			<point x="1174.71" y="193.571"/>
			<point x="1174.71" y="558.714" type="curve" smooth="yes"/>
			<point x="1174.71" y="933.571"/>
			<point x="1008" y="1132"/>
			<point x="756.429" y="1132" type="curve" smooth="yes"/>
			<point x="575.143" y="1132"/>
			<point x="461" y="1037"/>
			<point x="413.714" y="925.857" type="curve"/>
			<point x="403" y="925.857" type="line"/>
			<point x="407.857" y="989.286"/>
			<point x="413.714" y="1066.71"/>
			<point x="413.714" y="1140.71" type="curve" smooth="yes"/>
			<point x="413.714" y="1217" type="line"/>
			<point x="417.143" y="1321.43"/>
			<point x="460.429" y="1368"/>
			<point x="551" y="1368" type="curve" smooth="yes"/>
			<point x="601.429" y="1368"/>
			<point x="643.571" y="1357.86"/>
			<point x="666.714" y="1349.86" type="curve"/>
			<point x="666.714" y="1542.29" type="line"/>
			<point x="636.143" y="1553.29"/>
			<point x="578.571" y="1569.29"/>
		</contour>
		<contour>
			<point x="675.857" y="931.286" type="curve" smooth="yes"/>
			<point x="829.857" y="931.286"/>
			<point x="919.714" y="806.143"/>
			<point x="919.714" y="561" type="curve" smooth="yes"/>
			<point x="919.714" y="317.571"/>
			<point x="822.571" y="184.143"/>
			<point x="665.143" y="184.143" type="curve" smooth="yes"/>
			<point x="485.429" y="184.143"/>
			<point x="413.714" y="312.429"/>
			<point x="413.714" y="571.571" type="curve"/>
			<point x="417.143" y="807.714"/>
			<point x="499.286" y="931.286"/>
		</contour>
	</outline>
	<anchor name="bottom" x="636.857" y="0"/>
	<anchor name="top" x="636.857" y="1569.29"/>
</glyph>
<glyph name="uni0255" format="2">
	<unicode hex="0255"/>
	<advance width="1099"/>
	<outline>
		<contour>
			<point x="669.571" y="1131.14" type="curve" smooth="yes"/>
			<point x="325.429" y="1131.14"/>
			<point x="97.5714" y="919.429"/>
			<point x="97.5714" y="549.857" type="curve" smooth="yes"/>
			<point x="97.5714" y="391.571"/>
			<point x="137.143" y="271.429"/>
			<point x="202.714" y="172.857" type="curve"/>
			<point x="165.429" y="104.286"/>
			<point x="134.857" y="35.4286"/>
			<point x="107.857" y="-48.2857" type="curve"/>
			<point x="233.714" y="-101.429" type="line"/>
			<point x="255" y="-33.7143"/>
			<point x="279.286" y="28.7143"/>
			<point x="310" y="83" type="curve"/>
			<point x="386.286" y="23.5714"/>
			<point x="492.429" y="-20"/>
			<point x="644.286" y="-20" type="curve" smooth="yes"/>
			<point x="880.143" y="-20"/>
			<point x="1033.71" y="89.7143"/>
			<point x="1033.71" y="283.286" type="curve" smooth="yes"/>
			<point x="1033.71" y="433.143"/>
			<point x="931.571" y="534.857"/>
			<point x="735.714" y="534.857" type="curve" smooth="yes"/>
			<point x="573" y="534.857"/>
			<point x="453.143" y="465.143"/>
			<point x="390" y="390.429" type="curve"/>
			<point x="364.429" y="437.857"/>
			<point x="352.571" y="503.143"/>
			<point x="352.571" y="567.571" type="curve" smooth="yes"/>
			<point x="352.571" y="788.857"/>
			<point x="474" y="929.286"/>
			<point x="681" y="929.286" type="curve" smooth="yes"/>
			<point x="769.857" y="929.286"/>
			<point x="844.429" y="908.286"/>
			<point x="932.714" y="869" type="curve"/>
			<point x="996.429" y="1059.86" type="line"/>
			<point x="915.857" y="1097"/>
			<point x="819.429" y="1131.14"/>
		</contour>
		<contour>
			<point x="699.143" y="395.429" type="curve" smooth="yes"/>
			<point x="794.429" y="395.429"/>
			<point x="853.571" y="351.857"/>
			<point x="853.571" y="280.429" type="curve" smooth="yes"/>
			<point x="853.571" y="209.286"/>
			<point x="779.571" y="159.571"/>
			<point x="664.857" y="159.571" type="curve" smooth="yes"/>
			<point x="557.571" y="159.571"/>
			<point x="483.714" y="199.143"/>
			<point x="433.857" y="262.286" type="curve"/>
			<point x="485" y="333.571"/>
			<point x="579.714" y="395.429"/>
		</contour>
	</outline>
	<anchor name="bottom" x="550.571" y="0"/>
	<anchor name="top" x="550.571" y="1110.71"/>
</glyph>
<glyph name="eopenreversedhook" format="2">
	<unicode hex="025D"/>
	<advance width="1432"/>
	<outline>
		<component base="afii10073"/>
		<contour>
			<point x="1233.57" y="565.571" type="curve" smooth="yes"/>
			<point x="1312.57" y="565.571"/>
			<point x="1374.71" y="591.571"/>
			<point x="1431.71" y="628.286" type="curve"/>
			<point x="1370.29" y="770.429" type="line"/>
			<point x="1335.86" y="749.857"/>
			<point x="1301.14" y="730.571"/>
			<point x="1243.57" y="730.571" type="curve" smooth="yes"/>
			<point x="1161" y="730.571"/>
			<point x="1134.86" y="784.571"/>
			<point x="1098.71" y="920.429" type="curve"/>
			<point x="1072.57" y="1012.43" type="line"/>
			<point x="728.857" y="915.143" type="line"/>
			<point x="768.857" y="767.286" type="line"/>
			<point x="957.857" y="819.143" type="line"/>
			<point x="1002.86" y="662.857"/>
			<point x="1074.71" y="565.571"/>
		</contour>
	</outline>
	<anchor name="bottom" x="483.429" y="0"/>
	<anchor name="top" x="483.429" y="1110.71"/>
</glyph>
<glyph name="uni025E" format="2">
	<unicode hex="025E"/>
	<advance width="1226"/>
	<outline>
		<contour>
			<point x="670.857" y="1131.14" type="curve" smooth="yes"/>
			<point x="317.286" y="1131.14"/>
			<point x="97.5714" y="918"/>
			<point x="97.5714" y="552.286" type="curve" smooth="yes"/>
			<point x="97.5714" y="165.571"/>
			<point x="311.714" y="-20"/>
			<point x="641.571" y="-20" type="curve" smooth="yes"/>
			<point x="964.857" y="-20"/>
			<point x="1146.71" y="109.857"/>
			<point x="1146.71" y="321.857" type="curve" smooth="yes"/>
			<point x="1146.71" y="483.286"/>
			<point x="1033.57" y="553"/>
			<point x="894.143" y="579.143" type="curve"/>
			<point x="894.143" y="585.429" type="line"/>
			<point x="1026.86" y="612"/>
			<point x="1115.43" y="694.143"/>
			<point x="1115.43" y="831" type="curve" smooth="yes"/>
			<point x="1115.43" y="1031"/>
			<point x="942.429" y="1131.14"/>
		</contour>
		<contour>
			<point x="688.571" y="945.286" type="curve" smooth="yes"/>
			<point x="821.429" y="945.286"/>
			<point x="893" y="886.429"/>
			<point x="893" y="797.857" type="curve" smooth="yes"/>
			<point x="893" y="693.143"/>
			<point x="805.429" y="654.571"/>
			<point x="653.571" y="654.571" type="curve" smooth="yes"/>
			<point x="565.286" y="654.571" type="line"/>
			<point x="565.286" y="492.714" type="line"/>
			<point x="661" y="492.714" type="line" smooth="yes"/>
			<point x="809.714" y="492.714"/>
			<point x="904.286" y="453.857"/>
			<point x="904.286" y="343" type="curve" smooth="yes"/>
			<point x="904.286" y="250.286"/>
			<point x="832.143" y="173.857"/>
			<point x="659.857" y="173.857" type="curve" smooth="yes"/>
			<point x="454.714" y="173.857"/>
			<point x="349.143" y="297"/>
			<point x="349.143" y="552.286" type="curve" smooth="yes"/>
			<point x="349.143" y="798.857"/>
			<point x="456.429" y="945.286"/>
		</contour>
	</outline>
	<anchor name="bottom" x="614.143" y="0"/>
	<anchor name="top" x="614.143" y="1110.71"/>
</glyph>
<glyph name="uni0260" format="2">
	<unicode hex="0260"/>
	<advance width="1272"/>
	<outline>
		<contour>
			<point x="1183.29" y="1571.86" type="curve" smooth="yes"/>
			<point x="979.286" y="1571.86"/>
			<point x="856.857" y="1467.29"/>
			<point x="856.857" y="1255.57" type="curve" smooth="yes"/>
			<point x="856.857" y="1140.14" type="line" smooth="yes"/>
			<point x="856.857" y="1073"/>
			<point x="865.429" y="1011.43"/>
			<point x="874.286" y="953" type="curve"/>
			<point x="868" y="953" type="line"/>
			<point x="801.286" y="1058.29"/>
			<point x="695.857" y="1131.14"/>
			<point x="539.143" y="1131.14" type="curve" smooth="yes"/>
			<point x="263.571" y="1131.14"/>
			<point x="97.5714" y="918.143"/>
			<point x="97.5714" y="548.571" type="curve" smooth="yes"/>
			<point x="97.5714" y="187.143"/>
			<point x="256.143" y="-20"/>
			<point x="521.571" y="-20" type="curve" smooth="yes"/>
			<point x="676.571" y="-20"/>
			<point x="793" y="43.1429"/>
			<point x="856.857" y="180" type="curve"/>
			<point x="859.714" y="180" type="line"/>
			<point x="855.714" y="124.571"/>
			<point x="856.857" y="81.8571"/>
			<point x="856.857" y="24.1429" type="curve" smooth="yes"/>
			<point x="856.857" y="-21.8571" type="line" smooth="yes"/>
			<point x="856.857" y="-209.857"/>
			<point x="773.143" y="-310.286"/>
			<point x="577.857" y="-310.286" type="curve" smooth="yes"/>
			<point x="425.429" y="-310.286"/>
			<point x="286.857" y="-279.286"/>
			<point x="156.857" y="-224.286" type="curve"/>
			<point x="156.857" y="-422.857" type="line"/>
			<point x="280" y="-470.714"/>
			<point x="405" y="-492"/>
			<point x="564.714" y="-492" type="curve" smooth="yes"/>
			<point x="930.429" y="-492"/>
			<point x="1107.43" y="-317.286"/>
			<point x="1107.43" y="-17.2857" type="curve" smooth="yes"/>
			<point x="1107.43" y="1225.29" type="line" smooth="yes"/>
			<point x="1107.43" y="1317.43"/>
			<point x="1155.86" y="1370.71"/>
			<point x="1234.71" y="1370.71" type="curve" smooth="yes"/>
			<point x="1283.71" y="1370.71"/>
			<point x="1325.57" y="1360.43"/>
			<point x="1354" y="1348.14" type="curve"/>
			<point x="1354" y="1541.71" type="line"/>
			<point x="1323.71" y="1553.71"/>
			<point x="1261.57" y="1571.86"/>
		</contour>
		<contour>
			<point x="617.429" y="927" type="curve" smooth="yes"/>
			<point x="801.429" y="927"/>
			<point x="873.429" y="806.571"/>
			<point x="873.429" y="575.143" type="curve" smooth="yes"/>
			<point x="873.429" y="512" type="line" smooth="yes"/>
			<point x="873.429" y="310.429"/>
			<point x="802.714" y="177.286"/>
			<point x="610.714" y="177.286" type="curve" smooth="yes"/>
			<point x="437.857" y="177.286"/>
			<point x="352.571" y="302.429"/>
			<point x="352.571" y="546.286" type="curve" smooth="yes"/>
			<point x="352.571" y="791.714"/>
			<point x="435.571" y="927"/>
		</contour>
	</outline>
	<anchor name="bottom" x="636.857" y="-492"/>
	<anchor name="top" x="636.857" y="1571.86"/>
</glyph>
<glyph name="uni0265" format="2">
	<unicode hex="0265"/>
	<advance width="1287"/>
	<outline>
		<contour>
			<point x="884.571" y="-445.286" type="line"/>
			<point x="1131.14" y="-445.286" type="line"/>
			<point x="1131.14" y="1110.71" type="line"/>
			<point x="884.571" y="1110.71" type="line"/>
			<point x="884.571" y="561.286" type="line" smooth="yes"/>
			<point x="884.571" y="307.429"/>
			<point x="790.714" y="176.857"/>
			<point x="608.429" y="176.857" type="curve" smooth="yes"/>
			<point x="471" y="176.857"/>
			<point x="396.286" y="266.429"/>
			<point x="396.286" y="454.571" type="curve" smooth="yes"/>
			<point x="396.286" y="1110.71" type="line"/>
			<point x="149" y="1110.71" type="line"/>
			<point x="149" y="385.714" type="line" smooth="yes"/>
			<point x="149" y="103.429"/>
			<point x="308.571" y="-20.4286"/>
			<point x="535.857" y="-20.4286" type="curve" smooth="yes"/>
			<point x="711.571" y="-20.4286"/>
			<point x="822.714" y="55.1429"/>
			<point x="883.429" y="177.286" type="curve"/>
			<point x="895.857" y="177.286" type="line"/>
			<point x="891.143" y="117.714"/>
			<point x="884.571" y="35"/>
			<point x="884.571" y="-87.5714" type="curve" smooth="yes"/>
		</contour>
	</outline>
	<anchor name="bottom" x="644" y="-445.857"/>
	<anchor name="top" x="644" y="1110.71"/>
</glyph>
<glyph name="uni0266" format="2">
	<unicode hex="0266"/>
	<advance width="1287"/>
	<outline>
		<contour>
			<point x="156" y="0" type="line"/>
			<point x="402.571" y="0" type="line"/>
			<point x="402.571" y="522.571" type="line" smooth="yes"/>
			<point x="402.571" y="776.429"/>
			<point x="496.429" y="907"/>
			<point x="678.714" y="907" type="curve" smooth="yes"/>
			<point x="816.143" y="907"/>
			<point x="890.857" y="817.429"/>
			<point x="890.857" y="629.286" type="curve" smooth="yes"/>
			<point x="890.857" y="0" type="line"/>
			<point x="1138.14" y="0" type="line"/>
			<point x="1138.14" y="698.143" type="line" smooth="yes"/>
			<point x="1138.14" y="980.429"/>
			<point x="978.571" y="1104.29"/>
			<point x="751.286" y="1104.29" type="curve" smooth="yes"/>
			<point x="575.571" y="1104.29"/>
			<point x="464.429" y="1028.71"/>
			<point x="403.714" y="906.571" type="curve"/>
			<point x="391.286" y="906.571" type="line"/>
			<point x="397.143" y="949.571"/>
			<point x="402.571" y="991.714"/>
			<point x="402.571" y="1065.14" type="curve" smooth="yes"/>
			<point x="402.571" y="1236.14" type="line" smooth="yes"/>
			<point x="402.571" y="1327.71"/>
			<point x="451" y="1378.71"/>
			<point x="529.286" y="1378.71" type="curve" smooth="yes"/>
			<point x="577.143" y="1378.71"/>
			<point x="613.286" y="1371.29"/>
			<point x="640" y="1360.14" type="curve"/>
			<point x="640" y="1539.43" type="line"/>
			<point x="609.714" y="1552.57"/>
			<point x="549.286" y="1563.86"/>
			<point x="479" y="1563.86" type="curve" smooth="yes"/>
			<point x="289.857" y="1563.86"/>
			<point x="156" y="1467.29"/>
			<point x="156" y="1234.43" type="curve" smooth="yes"/>
		</contour>
	</outline>
	<anchor name="bottom" x="644" y="0"/>
	<anchor name="top" x="644" y="1563.86"/>
</glyph>
<glyph name="uni0268" format="2">
	<unicode hex="0268"/>
	<advance width="562"/>
	<outline>
		<contour>
			<point x="559" y="653.143" type="line"/>
			<point x="2.85714" y="653.143" type="line"/>
			<point x="2.85714" y="489.571" type="line"/>
			<point x="559" y="489.571" type="line"/>
		</contour>
		<contour>
			<point x="403.714" y="1110.71" type="line"/>
			<point x="157.143" y="1110.71" type="line"/>
			<point x="157.143" y="0" type="line"/>
			<point x="403.714" y="0" type="line"/>
		</contour>
		<contour>
			<point x="281.286" y="1541" type="curve" smooth="yes"/>
			<point x="198" y="1541"/>
			<point x="141.143" y="1507.71"/>
			<point x="141.143" y="1414.14" type="curve" smooth="yes"/>
			<point x="141.143" y="1322"/>
			<point x="198" y="1288.86"/>
			<point x="281.286" y="1288.86" type="curve" smooth="yes"/>
			<point x="366.286" y="1288.86"/>
			<point x="424.286" y="1322"/>
			<point x="424.286" y="1414.14" type="curve" smooth="yes"/>
			<point x="424.286" y="1507.71"/>
			<point x="366.286" y="1541"/>
		</contour>
	</outline>
	<anchor name="bottom" x="285.571" y="0"/>
	<anchor name="top" x="282.143" y="1541"/>
</glyph>
<glyph name="uni026B" format="2">
	<unicode hex="026B"/>
	<advance width="801"/>
	<outline>
		<contour>
			<point x="275.143" y="0" type="line"/>
			<point x="526.286" y="0" type="line"/>
			<point x="526.286" y="652.857" type="line"/>
			<point x="542.286" y="642.143"/>
			<point x="561" y="634.429"/>
			<point x="585.429" y="634.429" type="curve" smooth="yes"/>
			<point x="718.143" y="634.429"/>
			<point x="817.857" y="731.429"/>
			<point x="822.143" y="916.429" type="curve"/>
			<point x="696.286" y="916.429" type="line"/>
			<point x="683.857" y="828.571"/>
			<point x="644.571" y="798.857"/>
			<point x="593.143" y="798.857" type="curve" smooth="yes"/>
			<point x="567.286" y="798.857"/>
			<point x="545.714" y="810.857"/>
			<point x="526.286" y="824.143" type="curve"/>
			<point x="526.286" y="1556" type="line"/>
			<point x="275.143" y="1556" type="line"/>
			<point x="275.143" y="891.429" type="line"/>
			<point x="257.143" y="903"/>
			<point x="237" y="912.429"/>
			<point x="211.286" y="912.429" type="curve" smooth="yes"/>
			<point x="77.5714" y="912.429"/>
			<point x="-16.1429" y="821.714"/>
			<point x="-21.5714" y="634.143" type="curve"/>
			<point x="106" y="634.143" type="line"/>
			<point x="115" y="715.571"/>
			<point x="156.286" y="746.857"/>
			<point x="205.571" y="746.857" type="curve" smooth="yes"/>
			<point x="233.857" y="746.857"/>
			<point x="252.714" y="733.571"/>
			<point x="275.143" y="719.857" type="curve"/>
		</contour>
	</outline>
	<anchor name="bottom" x="401.571" y="0"/>
	<anchor name="top" x="401.571" y="1556"/>
</glyph>
<glyph name="uni0270" format="2">
	<unicode hex="0270"/>
	<advance width="1950"/>
	<outline>
		<contour>
			<point x="1533.86" y="-492" type="line"/>
			<point x="1784.43" y="-492" type="line"/>
			<point x="1784.43" y="1110.71" type="line"/>
			<point x="1533.86" y="1110.71" type="line"/>
			<point x="1533.86" y="543.429" type="line" smooth="yes"/>
			<point x="1533.86" y="303.857"/>
			<point x="1447.43" y="180.714"/>
			<point x="1283.29" y="180.714" type="curve" smooth="yes"/>
			<point x="1168" y="180.714"/>
			<point x="1094.43" y="264.429"/>
			<point x="1094.43" y="444.571" type="curve" smooth="yes"/>
			<point x="1094.43" y="1110.71" type="line"/>
			<point x="844.857" y="1110.71" type="line"/>
			<point x="844.857" y="523.429" type="line" smooth="yes"/>
			<point x="844.857" y="295.857"/>
			<point x="758.857" y="180.714"/>
			<point x="593.857" y="180.714" type="curve" smooth="yes"/>
			<point x="479.714" y="180.714"/>
			<point x="406.143" y="264.429"/>
			<point x="406.143" y="436.571" type="curve" smooth="yes"/>
			<point x="406.143" y="1110.71" type="line"/>
			<point x="154.857" y="1110.71" type="line"/>
			<point x="154.857" y="372.286" type="line" smooth="yes"/>
			<point x="154.857" y="98.5714"/>
			<point x="291.571" y="-20"/>
			<point x="520.143" y="-20" type="curve" smooth="yes"/>
			<point x="666.571" y="-20"/>
			<point x="799.286" y="35.5714"/>
			<point x="859.143" y="161" type="curve"/>
			<point x="882" y="161" type="line"/>
			<point x="940.143" y="37.8571"/>
			<point x="1055.71" y="-20"/>
			<point x="1208.43" y="-20" type="curve" smooth="yes"/>
			<point x="1370.57" y="-20"/>
			<point x="1470.86" y="55.1429"/>
			<point x="1532.14" y="164.286" type="curve"/>
			<point x="1543.57" y="164.286" type="line"/>
			<point x="1540.14" y="117.571"/>
			<point x="1533.86" y="41.7143"/>
			<point x="1533.86" y="-11.1429" type="curve" smooth="yes"/>
		</contour>
	</outline>
	<anchor name="bottom" x="975.429" y="-492"/>
	<anchor name="top" x="975.429" y="1110.71"/>
</glyph>
<glyph name="uni0272" format="2">
	<unicode hex="0272"/>
	<advance width="1307"/>
	<outline>
		<contour>
			<point x="758.143" y="1131.14" type="curve" smooth="yes"/>
			<point x="590.429" y="1131.14"/>
			<point x="462.429" y="1052.71"/>
			<point x="401.143" y="932.286" type="curve"/>
			<point x="388" y="932.286" type="line"/>
			<point x="355" y="1110.71" type="line"/>
			<point x="164.571" y="1110.71" type="line"/>
			<point x="164.571" y="-159.143" type="line" smooth="yes"/>
			<point x="164.571" y="-238.143"/>
			<point x="121.857" y="-290.286"/>
			<point x="45.8571" y="-290.286" type="curve" smooth="yes"/>
			<point x="3.71429" y="-290.286"/>
			<point x="-28.4286" y="-284"/>
			<point x="-68.2857" y="-269.429" type="curve"/>
			<point x="-68.2857" y="-461.857" type="line"/>
			<point x="-27.7143" y="-483"/>
			<point x="35.5714" y="-492"/>
			<point x="100.143" y="-492" type="curve" smooth="yes"/>
			<point x="321.857" y="-492"/>
			<point x="414.571" y="-350.857"/>
			<point x="414.571" y="-161.429" type="curve" smooth="yes"/>
			<point x="414.571" y="547.143" type="line" smooth="yes"/>
			<point x="414.571" y="797.571"/>
			<point x="502.714" y="930.429"/>
			<point x="687.857" y="930.429" type="curve" smooth="yes"/>
			<point x="826.429" y="930.429"/>
			<point x="898.857" y="842"/>
			<point x="898.857" y="663.571" type="curve" smooth="yes"/>
			<point x="898.857" y="0" type="line"/>
			<point x="1150.14" y="0" type="line"/>
			<point x="1150.14" y="725" type="line" smooth="yes"/>
			<point x="1150.14" y="1009.57"/>
			<point x="992.286" y="1131.14"/>
		</contour>
	</outline>
	<anchor name="bottom" x="654.857" y="-492"/>
	<anchor name="top" x="654.857" y="1110.71"/>
	<anchor name="topright" x="1230.14" y="1110.71"/>
</glyph>
<glyph name="uni0273" format="2">
	<unicode hex="0273"/>
	<advance width="1307"/>
	<outline>
		<contour>
			<point x="1150.14" y="-132.286" type="curve" smooth="yes"/>
			<point x="1150.14" y="725" type="line" smooth="yes"/>
			<point x="1150.14" y="1009.57"/>
			<point x="992.286" y="1131.14"/>
			<point x="758.143" y="1131.14" type="curve" smooth="yes"/>
			<point x="590.429" y="1131.14"/>
			<point x="462.429" y="1052.71"/>
			<point x="401.143" y="932.286" type="curve"/>
			<point x="388" y="932.286" type="line"/>
			<point x="355" y="1110.71" type="line"/>
			<point x="164.571" y="1110.71" type="line"/>
			<point x="164.571" y="0" type="line"/>
			<point x="414.571" y="0" type="line"/>
			<point x="414.571" y="547.143" type="line" smooth="yes"/>
			<point x="414.571" y="797.571"/>
			<point x="502.714" y="930.429"/>
			<point x="687.857" y="930.429" type="curve" smooth="yes"/>
			<point x="826.429" y="930.429"/>
			<point x="898.857" y="842"/>
			<point x="898.857" y="663.571" type="curve" smooth="yes"/>
			<point x="898.857" y="-139.857" type="line" smooth="yes"/>
			<point x="898.857" y="-356.429"/>
			<point x="990.571" y="-489"/>
			<point x="1230.29" y="-489" type="curve" smooth="yes"/>
			<point x="1298.14" y="-489"/>
			<point x="1368.71" y="-479.571"/>
			<point x="1407.86" y="-459.286" type="curve"/>
			<point x="1407.86" y="-267.714" type="line"/>
			<point x="1373.29" y="-278.857"/>
			<point x="1343.14" y="-287.714"/>
			<point x="1293.43" y="-287.714" type="curve" smooth="yes"/>
			<point x="1204.71" y="-287.714"/>
			<point x="1150.14" y="-239"/>
		</contour>
	</outline>
	<anchor name="bottom" x="654.857" y="-489"/>
	<anchor name="top" x="654.857" y="1110.71"/>
	<anchor name="topright" x="1230.14" y="1110.71"/>
</glyph>
<glyph name="uni0275" format="2">
	<unicode hex="0275"/>
	<advance width="1251"/>
	<outline>
		<contour>
			<point x="1147.57" y="557" type="curve" smooth="yes"/>
			<point x="1147.57" y="905.429"/>
			<point x="956.571" y="1131.14"/>
			<point x="630.571" y="1131.14" type="curve" smooth="yes"/>
			<point x="299.286" y="1131.14"/>
			<point x="101" y="918.714"/>
			<point x="101" y="557" type="curve" smooth="yes"/>
			<point x="101" y="202.429"/>
			<point x="301.429" y="-20"/>
			<point x="622" y="-20" type="curve" smooth="yes"/>
			<point x="960.714" y="-20"/>
			<point x="1147.57" y="204.143"/>
		</contour>
		<contour>
			<point x="624.286" y="158.429" type="curve" smooth="yes"/>
			<point x="438.143" y="158.429"/>
			<point x="345.143" y="283.857"/>
			<point x="336.571" y="483.143" type="curve"/>
			<point x="911.571" y="483.143" type="line"/>
			<point x="905.286" y="286"/>
			<point x="813.143" y="158.429"/>
		</contour>
		<contour>
			<point x="628.286" y="952.714" type="curve" smooth="yes"/>
			<point x="818" y="952.714"/>
			<point x="903.857" y="822.857"/>
			<point x="912.714" y="631.714" type="curve"/>
			<point x="336.571" y="631.714" type="line"/>
			<point x="346.286" y="835.714"/>
			<point x="447.714" y="952.714"/>
		</contour>
	</outline>
	<anchor name="bottom" x="626" y="0"/>
	<anchor name="top" x="626" y="1110.71"/>
</glyph>
<glyph name="uni0276" format="2">
	<unicode hex="0276"/>
	<advance width="1780"/>
	<outline>
		<contour>
			<point x="595.714" y="1134.57" type="curve" smooth="yes"/>
			<point x="279.571" y="1134.57"/>
			<point x="89.1429" y="913.857"/>
			<point x="89.1429" y="560.714" type="curve" smooth="yes"/>
			<point x="89.1429" y="204.714"/>
			<point x="288.429" y="-14.8571"/>
			<point x="595.714" y="-14.8571" type="curve" smooth="yes"/>
			<point x="743.857" y="-14.8571"/>
			<point x="852.571" y="49"/>
			<point x="906.286" y="135.286" type="curve"/>
			<point x="906.286" y="0" type="line"/>
			<point x="1665" y="0" type="line"/>
			<point x="1665" y="184.714" type="line"/>
			<point x="1146.71" y="184.714" type="line"/>
			<point x="1146.71" y="487" type="line"/>
			<point x="1635.71" y="487" type="line"/>
			<point x="1635.71" y="664.857" type="line"/>
			<point x="1146.71" y="664.857" type="line"/>
			<point x="1146.71" y="929.857" type="line"/>
			<point x="1665" y="929.857" type="line"/>
			<point x="1665" y="1114" type="line"/>
			<point x="906.286" y="1114" type="line"/>
			<point x="906.286" y="986.714" type="line"/>
			<point x="852.571" y="1074.57"/>
			<point x="753.571" y="1134.57"/>
		</contour>
		<contour>
			<point x="626" y="948.714" type="curve" smooth="yes"/>
			<point x="811.143" y="948.714"/>
			<point x="906.571" y="814"/>
			<point x="906.571" y="560.714" type="curve" smooth="yes"/>
			<point x="906.571" y="323.429"/>
			<point x="816.286" y="169.286"/>
			<point x="624.857" y="169.286" type="curve" smooth="yes"/>
			<point x="438.143" y="169.286"/>
			<point x="343.714" y="316.571"/>
			<point x="343.714" y="560.714" type="curve" smooth="yes"/>
			<point x="343.714" y="804"/>
			<point x="439" y="948.714"/>
		</contour>
	</outline>
	<anchor name="bottom" x="890" y="0"/>
	<anchor name="top" x="890" y="1110.71"/>
</glyph>
<glyph name="uni027B" format="2">
	<unicode hex="027B"/>
	<advance width="894"/>
	<outline>
		<contour>
			<point x="806.857" y="-489" type="curve" smooth="yes"/>
			<point x="877.429" y="-489"/>
			<point x="947.571" y="-478.429"/>
			<point x="989.571" y="-459.286" type="curve"/>
			<point x="989.571" y="-266.571" type="line"/>
			<point x="953.857" y="-277.714"/>
			<point x="922" y="-287.714"/>
			<point x="869.286" y="-287.714" type="curve" smooth="yes"/>
			<point x="779.429" y="-287.714"/>
			<point x="729.429" y="-232.143"/>
			<point x="729.429" y="-123.143" type="curve" smooth="yes"/>
			<point x="729.429" y="1110.71" type="line"/>
			<point x="478.857" y="1110.71" type="line"/>
			<point x="478.857" y="531.286" type="line" smooth="yes"/>
			<point x="478.857" y="299.857"/>
			<point x="338" y="215"/>
			<point x="175.571" y="215" type="curve" smooth="yes"/>
			<point x="126.714" y="215"/>
			<point x="85.7143" y="219.857"/>
			<point x="59.2857" y="228.143" type="curve"/>
			<point x="39.8571" y="-5.42857" type="line"/>
			<point x="67.7143" y="-12.5714"/>
			<point x="115.286" y="-18.2857"/>
			<point x="157.857" y="-18.2857" type="curve" smooth="yes"/>
			<point x="314.143" y="-18.2857"/>
			<point x="425.571" y="75.1429"/>
			<point x="478.286" y="184.714" type="curve"/>
			<point x="487.429" y="184.714" type="line"/>
			<point x="481.143" y="130"/>
			<point x="478.857" y="79.2857"/>
			<point x="478.857" y="-15.8571" type="curve" smooth="yes"/>
			<point x="478.857" y="-135.286" type="line" smooth="yes"/>
			<point x="478.857" y="-353"/>
			<point x="569.857" y="-489"/>
		</contour>
	</outline>
	<anchor name="bottom" x="448.429" y="-489"/>
	<anchor name="top" x="448.429" y="1110.71"/>
</glyph>
<glyph name="uni027E" format="2">
	<unicode hex="027E"/>
	<advance width="787"/>
	<outline>
		<contour>
			<point x="523.571" y="1134.57" type="curve" smooth="yes"/>
			<point x="287.286" y="1134.57"/>
			<point x="156.571" y="1001.86"/>
			<point x="156.571" y="737.143" type="curve" smooth="yes"/>
			<point x="156.571" y="0" type="line"/>
			<point x="407.857" y="0" type="line"/>
			<point x="407.857" y="718.714" type="line" smooth="yes"/>
			<point x="407.857" y="840.286"/>
			<point x="458.429" y="919.571"/>
			<point x="585.571" y="919.571" type="curve" smooth="yes"/>
			<point x="639.857" y="919.571"/>
			<point x="680.286" y="910"/>
			<point x="718.714" y="896.571" type="curve"/>
			<point x="748.714" y="1101.57" type="line"/>
			<point x="687.286" y="1119.86"/>
			<point x="621.286" y="1134.57"/>
		</contour>
	</outline>
	<anchor name="bottom" x="394.286" y="0"/>
	<anchor name="top" x="394.286" y="1110.71"/>
</glyph>
<glyph name="uni0288" format="2">
	<unicode hex="0288"/>
	<advance width="840"/>
	<outline>
		<contour>
			<point x="588.857" y="-289.429" type="curve" smooth="yes"/>
			<point x="488.714" y="-289.429"/>
			<point x="441.143" y="-235.429"/>
			<point x="441.143" y="-134.857" type="curve" smooth="yes"/>
			<point x="441.143" y="920.286" type="line"/>
			<point x="769.714" y="920.286" type="line"/>
			<point x="769.714" y="1110.71" type="line"/>
			<point x="441.143" y="1110.71" type="line"/>
			<point x="441.143" y="1354.57" type="line"/>
			<point x="275.286" y="1354.57" type="line"/>
			<point x="208.571" y="1107.86" type="line"/>
			<point x="41.1429" y="1031.57" type="line"/>
			<point x="41.1429" y="920.286" type="line"/>
			<point x="191.143" y="920.286" type="line"/>
			<point x="191.143" y="-134" type="line" smooth="yes"/>
			<point x="191.143" y="-398.714"/>
			<point x="317.714" y="-490.714"/>
			<point x="516.286" y="-490.714" type="curve" smooth="yes"/>
			<point x="625.429" y="-490.714"/>
			<point x="713.857" y="-469"/>
			<point x="774.857" y="-443" type="curve"/>
			<point x="774.857" y="-253.714" type="line"/>
			<point x="715" y="-274.857"/>
			<point x="656.286" y="-289.429"/>
		</contour>
	</outline>
	<anchor name="bottom" x="467.143" y="-490.714"/>
	<anchor name="top" x="376.714" y="1354.57"/>
	<anchor name="topright" x="754.857" y="1355.71"/>
</glyph>
<glyph name="uni0289" format="2">
	<unicode hex="0289"/>
	<advance width="1287"/>
	<outline>
		<contour>
			<point x="8.57143" y="502.429" type="line"/>
			<point x="1279.29" y="502.429" type="line"/>
			<point x="1279.29" y="669.429" type="line"/>
			<point x="8.57143" y="669.429" type="line"/>
		</contour>
		<contour>
			<point x="1129" y="1110.71" type="line"/>
			<point x="882.857" y="1110.71" type="line"/>
			<point x="882.857" y="562.429" type="line" smooth="yes"/>
			<point x="882.857" y="307.429"/>
			<point x="792" y="178.429"/>
			<point x="606.714" y="178.429" type="curve" smooth="yes"/>
			<point x="464.857" y="178.429"/>
			<point x="394.143" y="269.286"/>
			<point x="394.143" y="457" type="curve" smooth="yes"/>
			<point x="394.143" y="1110.71" type="line"/>
			<point x="148" y="1110.71" type="line"/>
			<point x="148" y="385.571" type="line" smooth="yes"/>
			<point x="148" y="109.571"/>
			<point x="300.714" y="-20"/>
			<point x="531.857" y="-20" type="curve" smooth="yes"/>
			<point x="710" y="-20"/>
			<point x="835" y="59.1429"/>
			<point x="895.714" y="177.857" type="curve"/>
			<point x="910.571" y="177.857" type="line"/>
			<point x="942" y="0" type="line"/>
			<point x="1129" y="0" type="line"/>
		</contour>
	</outline>
	<anchor name="bottom" x="637.143" y="0"/>
	<anchor name="top" x="644" y="1110.71"/>
</glyph>
<glyph name="uni028F" format="2">
	<unicode hex="028F"/>
	<advance width="1092"/>
	<outline>
		<contour>
			<point x="1093.14" y="1110.71" type="line"/>
			<point x="809.714" y="1110.71" type="line"/>
			<point x="546.857" y="624.857" type="line"/>
			<point x="281.429" y="1110.71" type="line"/>
			<point x="-1.42857" y="1110.71" type="line"/>
			<point x="419.286" y="395.286" type="line"/>
			<point x="419.286" y="0" type="line"/>
			<point x="669.857" y="0" type="line"/>
			<point x="669.857" y="395.286" type="line"/>
		</contour>
	</outline>
	<anchor name="bottom" x="546.286" y="0"/>
	<anchor name="top" x="546.286" y="1110.71"/>
</glyph>
<glyph name="uni0290" format="2">
	<unicode hex="0290"/>
	<advance width="985"/>
	<outline>
		<contour>
			<point x="960.286" y="-492" type="curve" smooth="yes"/>
			<point x="1019.86" y="-492"/>
			<point x="1076.57" y="-481.857"/>
			<point x="1115.43" y="-467.286" type="curve"/>
			<point x="1115.43" y="-292" type="line"/>
			<point x="1090" y="-300.857"/>
			<point x="1056.14" y="-308.857"/>
			<point x="1021.43" y="-308.857" type="curve" smooth="yes"/>
			<point x="955.286" y="-308.857"/>
			<point x="918.857" y="-273.857"/>
			<point x="918.857" y="-193" type="curve" smooth="yes"/>
			<point x="918.857" y="192.714" type="line"/>
			<point x="356.571" y="192.714" type="line"/>
			<point x="906" y="944" type="line"/>
			<point x="906" y="1110.71" type="line"/>
			<point x="98.4286" y="1110.71" type="line"/>
			<point x="98.4286" y="918" type="line"/>
			<point x="620.571" y="918" type="line"/>
			<point x="60.5714" y="150.714" type="line"/>
			<point x="60.5714" y="0" type="line"/>
			<point x="708.714" y="0" type="line"/>
			<point x="708.714" y="-211.714" type="line" smooth="yes"/>
			<point x="708.714" y="-402"/>
			<point x="805.143" y="-492"/>
		</contour>
	</outline>
	<anchor name="bottom" x="492.714" y="-492"/>
	<anchor name="top" x="492.714" y="1110.71"/>
</glyph>
<glyph name="uni0291" format="2">
	<unicode hex="0291"/>
	<advance width="1182"/>
	<outline>
		<contour>
			<point x="500" y="-176.571" type="line"/>
			<point x="524.429" y="-111"/>
			<point x="546.143" y="-54.7143"/>
			<point x="571.429" y="0" type="curve"/>
			<point x="760.714" y="0" type="line" smooth="yes"/>
			<point x="989.714" y="0"/>
			<point x="1160.57" y="84"/>
			<point x="1160.57" y="285.571" type="curve" smooth="yes"/>
			<point x="1160.57" y="425.429"/>
			<point x="1074.14" y="514.286"/>
			<point x="916.857" y="514.286" type="curve" smooth="yes"/>
			<point x="730.714" y="514.286"/>
			<point x="601.143" y="391.429"/>
			<point x="501.857" y="192.714" type="curve"/>
			<point x="353.143" y="192.714" type="line"/>
			<point x="913.429" y="956" type="line"/>
			<point x="913.429" y="1110.71" type="line"/>
			<point x="98.4286" y="1110.71" type="line"/>
			<point x="98.4286" y="918" type="line"/>
			<point x="620.571" y="918" type="line"/>
			<point x="60.5714" y="150.714" type="line"/>
			<point x="60.5714" y="0" type="line"/>
			<point x="419.857" y="0" type="line"/>
			<point x="401.429" y="-38.7143"/>
			<point x="382.571" y="-84.8571"/>
			<point x="365.286" y="-131.143" type="curve"/>
		</contour>
		<contour>
			<point x="664.857" y="192.714" type="line"/>
			<point x="719.571" y="306.286"/>
			<point x="798.857" y="382.143"/>
			<point x="899.286" y="382.143" type="curve" smooth="yes"/>
			<point x="966" y="382.143"/>
			<point x="999.286" y="345.857"/>
			<point x="999.286" y="298.143" type="curve" smooth="yes"/>
			<point x="999.286" y="237"/>
			<point x="941.857" y="192.714"/>
			<point x="821.714" y="192.714" type="curve" smooth="yes"/>
		</contour>
	</outline>
	<anchor name="bottom" x="591.143" y="-176.571"/>
	<anchor name="top" x="591.143" y="1110.71"/>
</glyph>
<glyph name="uni0292" format="2">
	<unicode hex="0292"/>
	<advance width="1094"/>
	<outline>
		<contour>
			<point x="986.714" y="1110.71" type="line"/>
			<point x="76" y="1110.71" type="line"/>
			<point x="76" y="918" type="line"/>
			<point x="663.286" y="918" type="line"/>
			<point x="222.286" y="463.286" type="line"/>
			<point x="222.286" y="301.143" type="line"/>
			<point x="332.857" y="301.143" type="line" smooth="yes"/>
			<point x="672.571" y="301.143"/>
			<point x="771.429" y="189.857"/>
			<point x="771.429" y="11" type="curve" smooth="yes"/>
			<point x="771.429" y="-165.143"/>
			<point x="663.857" y="-291.429"/>
			<point x="430.714" y="-291.429" type="curve" smooth="yes"/>
			<point x="283.714" y="-291.429"/>
			<point x="143" y="-254.857"/>
			<point x="25.5714" y="-201" type="curve"/>
			<point x="25.5714" y="-419.143" type="line"/>
			<point x="143.286" y="-464.714"/>
			<point x="260.714" y="-492"/>
			<point x="440.429" y="-492" type="curve" smooth="yes"/>
			<point x="835.143" y="-492"/>
			<point x="1021.86" y="-279.286"/>
			<point x="1021.86" y="28.7143" type="curve" smooth="yes"/>
			<point x="1021.86" y="285.714"/>
			<point x="862.286" y="455.571"/>
			<point x="507.429" y="470.429" type="curve"/>
			<point x="986.714" y="954.857" type="line"/>
		</contour>
	</outline>
	<anchor name="bottom" x="548.429" y="-492"/>
	<anchor name="top" x="548.429" y="1110.71"/>
</glyph>
<glyph name="cstretched" format="2">
	<unicode hex="0297"/>
	<advance width="1043"/>
	<outline>
		<contour>
			<point x="623.286" y="-490.714" type="curve" smooth="yes"/>
			<point x="748" y="-490.714"/>
			<point x="858.429" y="-465.857"/>
			<point x="944.429" y="-414" type="curve"/>
			<point x="944.429" y="-200.143" type="line"/>
			<point x="860.143" y="-253.143"/>
			<point x="782.714" y="-287.143"/>
			<point x="673.857" y="-287.143" type="curve" smooth="yes"/>
			<point x="474.429" y="-287.143"/>
			<point x="352.571" y="-117.714"/>
			<point x="352.571" y="317.143" type="curve" smooth="yes"/>
			<point x="352.571" y="728.571"/>
			<point x="473.571" y="929.286"/>
			<point x="677.286" y="929.286" type="curve" smooth="yes"/>
			<point x="767.429" y="929.286"/>
			<point x="825.286" y="903.143"/>
			<point x="903" y="867.429" type="curve"/>
			<point x="975.286" y="1063.29" type="line"/>
			<point x="903.143" y="1098.43"/>
			<point x="800.571" y="1131.14"/>
			<point x="649.286" y="1131.14" type="curve" smooth="yes"/>
			<point x="328.857" y="1131.14"/>
			<point x="97.5714" y="888.714"/>
			<point x="97.5714" y="314.857" type="curve" smooth="yes"/>
			<point x="97.5714" y="-264.143"/>
			<point x="293.143" y="-490.714"/>
		</contour>
	</outline>
	<anchor name="bottom" x="522.286" y="-490.714"/>
	<anchor name="top" x="522.286" y="1110.71"/>
</glyph>
<glyph name="uni029D" format="2">
	<unicode hex="029D"/>
	<advance width="575"/>
	<outline>
		<contour>
			<point x="82.1429" y="-492" type="curve" smooth="yes"/>
			<point x="305.714" y="-492"/>
			<point x="392.571" y="-350.714"/>
			<point x="405.143" y="-158.857" type="curve"/>
			<point x="550.143" y="-158.857" type="line"/>
			<point x="550.143" y="-42.8571" type="line"/>
			<point x="408.857" y="-42.8571" type="line"/>
			<point x="408.857" y="1109" type="line"/>
			<point x="164.571" y="1109" type="line"/>
			<point x="164.571" y="-42.8571" type="line"/>
			<point x="98.5714" y="-42.8571" type="line" smooth="yes"/>
			<point x="-80.8571" y="-42.8571"/>
			<point x="-173.143" y="-135.143"/>
			<point x="-173.143" y="-273.286" type="curve" smooth="yes"/>
			<point x="-173.143" y="-389.714"/>
			<point x="-91.7143" y="-492"/>
		</contour>
		<contour>
			<point x="53" y="-366.286" type="curve" smooth="yes"/>
			<point x="0.142857" y="-366.286"/>
			<point x="-39.8571" y="-329.571"/>
			<point x="-39.8571" y="-267.571" type="curve" smooth="yes"/>
			<point x="-39.8571" y="-202.714"/>
			<point x="0.714286" y="-158.857"/>
			<point x="102.571" y="-158.857" type="curve" smooth="yes"/>
			<point x="163.714" y="-158.857" type="line"/>
			<point x="163.714" y="-213" type="line" smooth="yes"/>
			<point x="163.714" y="-326.143"/>
			<point x="119.857" y="-366.286"/>
		</contour>
		<contour>
			<point x="287" y="1288.86" type="curve" smooth="yes"/>
			<point x="372.571" y="1288.86"/>
			<point x="427.714" y="1322"/>
			<point x="427.714" y="1414.14" type="curve" smooth="yes"/>
			<point x="427.714" y="1506.57"/>
			<point x="372.571" y="1539.86"/>
			<point x="287" y="1539.86" type="curve" smooth="yes"/>
			<point x="204.857" y="1539.86"/>
			<point x="148" y="1506.57"/>
			<point x="148" y="1414.14" type="curve" smooth="yes"/>
			<point x="148" y="1322"/>
			<point x="204.857" y="1288.86"/>
		</contour>
	</outline>
	<anchor name="bottom" x="287.857" y="-492"/>
	<anchor name="top" x="287.857" y="1539.86"/>
</glyph>
<glyph name="qhook" format="2">
	<unicode hex="02A0"/>
	<advance width="1272"/>
	<outline>
		<contour>
			<point x="859.143" y="-492" type="line"/>
			<point x="1107.43" y="-492" type="line"/>
			<point x="1107.43" y="1228.71" type="line" smooth="yes"/>
			<point x="1107.43" y="1320.86"/>
			<point x="1150.14" y="1374.14"/>
			<point x="1229" y="1374.14" type="curve" smooth="yes"/>
			<point x="1278" y="1374.14"/>
			<point x="1324.43" y="1366.71"/>
			<point x="1356.29" y="1353.86" type="curve"/>
			<point x="1356.29" y="1546.29" type="line"/>
			<point x="1320.29" y="1558.86"/>
			<point x="1249" y="1571.86"/>
			<point x="1162.14" y="1571.86" type="curve" smooth="yes"/>
			<point x="993" y="1571.86"/>
			<point x="859.143" y="1476.43"/>
			<point x="859.143" y="1265.29" type="curve" smooth="yes"/>
			<point x="859.143" y="1157.71" type="line" smooth="yes"/>
			<point x="859.143" y="1082"/>
			<point x="863.143" y="1004"/>
			<point x="870.571" y="926.857" type="curve"/>
			<point x="864.286" y="926.857" type="line"/>
			<point x="810.714" y="1041.86"/>
			<point x="710.857" y="1131.14"/>
			<point x="532.429" y="1131.14" type="curve" smooth="yes"/>
			<point x="268.429" y="1131.14"/>
			<point x="99.2857" y="927.571"/>
			<point x="99.2857" y="550" type="curve" smooth="yes"/>
			<point x="99.2857" y="176.857"/>
			<point x="259.143" y="-20"/>
			<point x="515.286" y="-20" type="curve" smooth="yes"/>
			<point x="700.857" y="-20"/>
			<point x="809.571" y="75.7143"/>
			<point x="859.143" y="188.857" type="curve"/>
			<point x="868.286" y="188.857" type="line"/>
			<point x="862.857" y="128.286"/>
			<point x="859.143" y="49.7143"/>
			<point x="859.143" y="-10.5714" type="curve" smooth="yes"/>
		</contour>
		<contour>
			<point x="606.714" y="178.429" type="curve" smooth="yes"/>
			<point x="443.571" y="178.429"/>
			<point x="348.571" y="294.714"/>
			<point x="348.571" y="546.571" type="curve" smooth="yes"/>
			<point x="348.571" y="803.143"/>
			<point x="451.714" y="929.286"/>
			<point x="613" y="929.286" type="curve" smooth="yes"/>
			<point x="791.571" y="929.286"/>
			<point x="877.143" y="805"/>
			<point x="877.143" y="554.143" type="curve" smooth="yes"/>
			<point x="877.143" y="533.857" type="line"/>
			<point x="874.857" y="303.571"/>
			<point x="790.429" y="178.429"/>
		</contour>
	</outline>
	<anchor name="bottom" x="636.857" y="-492"/>
	<anchor name="top" x="636.857" y="1571.86"/>
</glyph>
<glyph name="uni02A2" format="2">
	<unicode hex="02A2"/>
	<advance width="947"/>
	<outline>
		<contour>
			<point x="512.857" y="1565.29" type="curve" smooth="yes"/>
			<point x="223.571" y="1565.29"/>
			<point x="45.5714" y="1378.14"/>
			<point x="45.5714" y="1132.71" type="curve" smooth="yes"/>
			<point x="45.5714" y="878.571"/>
			<point x="188.571" y="739.286"/>
			<point x="423.429" y="630" type="curve"/>
			<point x="423.429" y="453.286" type="line"/>
			<point x="201.286" y="453.286" type="line"/>
			<point x="201.286" y="288.143" type="line"/>
			<point x="423.429" y="288.143" type="line"/>
			<point x="423.429" y="0" type="line"/>
			<point x="676.857" y="0" type="line"/>
			<point x="676.857" y="288.143" type="line"/>
			<point x="868" y="288.143" type="line"/>
			<point x="868" y="453.286" type="line"/>
			<point x="676.857" y="453.286" type="line"/>
			<point x="676.857" y="737.429" type="line"/>
			<point x="407.286" y="836.286"/>
			<point x="299.429" y="967.143"/>
			<point x="299.429" y="1131" type="curve" smooth="yes"/>
			<point x="299.429" y="1273"/>
			<point x="400.571" y="1361.29"/>
			<point x="537.571" y="1361.29" type="curve" smooth="yes"/>
			<point x="670" y="1361.29"/>
			<point x="787.429" y="1302.29"/>
			<point x="850" y="1269.43" type="curve"/>
			<point x="940.143" y="1451.29" type="line"/>
			<point x="814.571" y="1517.71"/>
			<point x="683.714" y="1565.29"/>
		</contour>
	</outline>
	<anchor name="bottom" x="474.286" y="0"/>
	<anchor name="top" x="474.286" y="1565.29"/>
</glyph>
<glyph name="uni02A4" format="2">
	<unicode hex="02A4"/>
	<advance width="2107"/>
	<outline>
		<contour>
			<point x="1453" y="-492" type="curve" smooth="yes"/>
			<point x="1847.71" y="-492"/>
			<point x="2035.43" y="-279.286"/>
			<point x="2035.43" y="28.7143" type="curve" smooth="yes"/>
			<point x="2035.43" y="285.714"/>
			<point x="1874.86" y="455.571"/>
			<point x="1520" y="470.429" type="curve"/>
			<point x="1999.86" y="954.857" type="line"/>
			<point x="1999.86" y="1110.71" type="line"/>
			<point x="1109.14" y="1110.71" type="line"/>
			<point x="1109.14" y="1556" type="line"/>
			<point x="860.857" y="1556" type="line"/>
			<point x="860.857" y="1192.57" type="line" smooth="yes"/>
			<point x="860.857" y="1105.43"/>
			<point x="867.143" y="1003.43"/>
			<point x="873.857" y="927.429" type="curve"/>
			<point x="867.143" y="927.429" type="line"/>
			<point x="813.571" y="1042.43"/>
			<point x="713" y="1131.14"/>
			<point x="542.286" y="1131.14" type="curve" smooth="yes"/>
			<point x="270.143" y="1131.14"/>
			<point x="101" y="927.571"/>
			<point x="101" y="545.714" type="curve" smooth="yes"/>
			<point x="101" y="176.857"/>
			<point x="260" y="-20"/>
			<point x="526.857" y="-20" type="curve" smooth="yes"/>
			<point x="708.143" y="-20"/>
			<point x="808.429" y="70.5714"/>
			<point x="860.857" y="180.714" type="curve"/>
			<point x="871.571" y="180.714" type="line"/>
			<point x="921.286" y="0" type="line"/>
			<point x="1109.14" y="0" type="line"/>
			<point x="1109.14" y="918" type="line"/>
			<point x="1675.86" y="918" type="line"/>
			<point x="1235.43" y="463.286" type="line"/>
			<point x="1235.43" y="301.143" type="line"/>
			<point x="1346" y="301.143" type="line" smooth="yes"/>
			<point x="1686.14" y="301.143"/>
			<point x="1785" y="189.857"/>
			<point x="1785" y="11" type="curve" smooth="yes"/>
			<point x="1785" y="-165.143"/>
			<point x="1677" y="-291.429"/>
			<point x="1443.86" y="-291.429" type="curve" smooth="yes"/>
			<point x="1296.86" y="-291.429"/>
			<point x="1155.57" y="-254.857"/>
			<point x="1038.71" y="-201" type="curve"/>
			<point x="1038.71" y="-419.143" type="line"/>
			<point x="1155.86" y="-464.714"/>
			<point x="1273.71" y="-492"/>
		</contour>
		<contour>
			<point x="618.286" y="178.429" type="curve" smooth="yes"/>
			<point x="444.429" y="178.429"/>
			<point x="350.286" y="294.714"/>
			<point x="350.286" y="542.286" type="curve" smooth="yes"/>
			<point x="350.286" y="803.143"/>
			<point x="453.429" y="929.286"/>
			<point x="622.857" y="929.286" type="curve" smooth="yes"/>
			<point x="805.714" y="929.286"/>
			<point x="879.714" y="796"/>
			<point x="879.714" y="554.143" type="curve" smooth="yes"/>
			<point x="879.714" y="533.857" type="line"/>
			<point x="877.429" y="303.571"/>
			<point x="806.286" y="178.429"/>
		</contour>
	</outline>
	<anchor name="bottom" x="1335.14" y="-492"/>
	<anchor name="top" x="1358.57" y="1556"/>
</glyph>
<glyph name="dzligcurl" format="2">
	<unicode hex="02A5"/>
	<advance width="2206"/>
	<outline>
		<contour>
			<point x="1529.14" y="-176.571" type="line"/>
			<point x="1553.14" y="-111"/>
			<point x="1575.29" y="-54.7143"/>
			<point x="1600.14" y="0" type="curve"/>
			<point x="1789.43" y="0" type="line" smooth="yes"/>
			<point x="2018.43" y="0"/>
			<point x="2189.71" y="84"/>
			<point x="2189.71" y="285.571" type="curve" smooth="yes"/>
			<point x="2189.71" y="425.429"/>
			<point x="2102.86" y="514.286"/>
			<point x="1945.57" y="514.286" type="curve" smooth="yes"/>
			<point x="1759.43" y="514.286"/>
			<point x="1629.86" y="391.429"/>
			<point x="1531" y="192.714" type="curve"/>
			<point x="1381.86" y="192.714" type="line"/>
			<point x="1942.14" y="956" type="line"/>
			<point x="1942.14" y="1110.71" type="line"/>
			<point x="1109.14" y="1110.71" type="line"/>
			<point x="1109.14" y="1556" type="line"/>
			<point x="860.857" y="1556" type="line"/>
			<point x="860.857" y="1192.57" type="line" smooth="yes"/>
			<point x="860.857" y="1105.43"/>
			<point x="867.143" y="1003.43"/>
			<point x="873.857" y="927.429" type="curve"/>
			<point x="867.143" y="927.429" type="line"/>
			<point x="813.571" y="1042.43"/>
			<point x="713" y="1131.14"/>
			<point x="542.286" y="1131.14" type="curve" smooth="yes"/>
			<point x="270.143" y="1131.14"/>
			<point x="101" y="927.571"/>
			<point x="101" y="545.714" type="curve" smooth="yes"/>
			<point x="101" y="176.857"/>
			<point x="260" y="-20"/>
			<point x="526.857" y="-20" type="curve" smooth="yes"/>
			<point x="708.143" y="-20"/>
			<point x="808.429" y="70.5714"/>
			<point x="860.857" y="180.714" type="curve"/>
			<point x="871.571" y="180.714" type="line"/>
			<point x="921.286" y="0" type="line"/>
			<point x="1448.57" y="0" type="line"/>
			<point x="1430.71" y="-38.7143"/>
			<point x="1411.29" y="-84.8571"/>
			<point x="1394.43" y="-131.143" type="curve"/>
		</contour>
		<contour>
			<point x="618.286" y="178.429" type="curve" smooth="yes"/>
			<point x="444.429" y="178.429"/>
			<point x="350.286" y="294.714"/>
			<point x="350.286" y="542.286" type="curve" smooth="yes"/>
			<point x="350.286" y="803.143"/>
			<point x="453.429" y="929.286"/>
			<point x="622.857" y="929.286" type="curve" smooth="yes"/>
			<point x="805.714" y="929.286"/>
			<point x="879.714" y="796"/>
			<point x="879.714" y="554.143" type="curve" smooth="yes"/>
			<point x="879.714" y="533.857" type="line"/>
			<point x="877.429" y="303.571"/>
			<point x="806.286" y="178.429"/>
		</contour>
		<contour>
			<point x="1109.14" y="177.286" type="line"/>
			<point x="1109.14" y="918" type="line"/>
			<point x="1649.71" y="918" type="line"/>
		</contour>
		<contour>
			<point x="1694.57" y="192.714" type="line"/>
			<point x="1748.29" y="306.286"/>
			<point x="1827.57" y="382.143"/>
			<point x="1928.43" y="382.143" type="curve" smooth="yes"/>
			<point x="1994.71" y="382.143"/>
			<point x="2028.43" y="345.857"/>
			<point x="2028.43" y="298.143" type="curve" smooth="yes"/>
			<point x="2028.43" y="237"/>
			<point x="1971" y="192.714"/>
			<point x="1851.43" y="192.714" type="curve" smooth="yes"/>
		</contour>
	</outline>
	<anchor name="bottom" x="1340.14" y="-102.857"/>
	<anchor name="top" x="1340.14" y="1556"/>
</glyph>
<glyph name="uni02A7" format="2">
	<unicode hex="02A7"/>
	<advance width="1280"/>
	<outline>
		<contour>
			<point x="1036" y="-158.143" type="curve" smooth="yes"/>
			<point x="1036" y="1237.71" type="line" smooth="yes"/>
			<point x="1036" y="1322.29"/>
			<point x="1085" y="1365.86"/>
			<point x="1161.43" y="1365.86" type="curve" smooth="yes"/>
			<point x="1208.43" y="1365.86"/>
			<point x="1246.86" y="1356.14"/>
			<point x="1265.71" y="1349.86" type="curve"/>
			<point x="1265.71" y="1541.43" type="line"/>
			<point x="1242" y="1551.57"/>
			<point x="1181.86" y="1567.57"/>
			<point x="1112" y="1567.57" type="curve" smooth="yes"/>
			<point x="898.143" y="1567.57"/>
			<point x="784.286" y="1466.86"/>
			<point x="784.286" y="1250" type="curve" smooth="yes"/>
			<point x="784.286" y="1110.71" type="line"/>
			<point x="441.143" y="1110.71" type="line"/>
			<point x="441.143" y="1354.57" type="line"/>
			<point x="275.286" y="1354.57" type="line"/>
			<point x="208.571" y="1107.86" type="line"/>
			<point x="41.1429" y="1031.57" type="line"/>
			<point x="41.1429" y="920.286" type="line"/>
			<point x="191.143" y="920.286" type="line"/>
			<point x="191.143" y="336.143" type="line" smooth="yes"/>
			<point x="191.143" y="71.4286"/>
			<point x="317.714" y="-20"/>
			<point x="525.286" y="-20" type="curve" smooth="yes"/>
			<point x="631.143" y="-20"/>
			<point x="719.571" y="-0.857143"/>
			<point x="784.286" y="27.7143" type="curve"/>
			<point x="784.286" y="-156.286" type="line" smooth="yes"/>
			<point x="784.286" y="-240.571"/>
			<point x="741.857" y="-290.286"/>
			<point x="662" y="-290.286" type="curve" smooth="yes"/>
			<point x="615.571" y="-290.286"/>
			<point x="586.571" y="-282.286"/>
			<point x="548.143" y="-270.286" type="curve"/>
			<point x="548.143" y="-462.714" type="line"/>
			<point x="589.429" y="-483.857"/>
			<point x="651" y="-492"/>
			<point x="715.714" y="-492" type="curve" smooth="yes"/>
			<point x="953.429" y="-492"/>
			<point x="1036" y="-338.714"/>
		</contour>
		<contour>
			<point x="597.857" y="180.714" type="curve" smooth="yes"/>
			<point x="488.714" y="180.714"/>
			<point x="441.143" y="234.714"/>
			<point x="441.143" y="335.286" type="curve" smooth="yes"/>
			<point x="441.143" y="920.286" type="line"/>
			<point x="784.286" y="920.286" type="line"/>
			<point x="784.286" y="216.143" type="line"/>
			<point x="721.857" y="194.143"/>
			<point x="663.143" y="180.714"/>
		</contour>
	</outline>
	<anchor name="bottom" x="808.714" y="-492"/>
	<anchor name="top" x="909.286" y="1567.57"/>
</glyph>
<glyph name="uni02AA" format="2">
	<unicode hex="02AA"/>
	<advance width="1444"/>
	<outline>
		<contour>
			<point x="867.143" y="-20" type="curve" smooth="yes"/>
			<point x="1207.86" y="-20"/>
			<point x="1356" y="100"/>
			<point x="1356" y="327.143" type="curve" smooth="yes"/>
			<point x="1356" y="513"/>
			<point x="1225.71" y="586.857"/>
			<point x="1049.86" y="655.143" type="curve" smooth="yes"/>
			<point x="875.714" y="721.857"/>
			<point x="816" y="753.429"/>
			<point x="816" y="832.286" type="curve" smooth="yes"/>
			<point x="816" y="906.429"/>
			<point x="877.571" y="945.286"/>
			<point x="983.143" y="945.286" type="curve" smooth="yes"/>
			<point x="1070" y="945.286"/>
			<point x="1168.71" y="913.429"/>
			<point x="1263.57" y="867.286" type="curve"/>
			<point x="1339.29" y="1048.57" type="line"/>
			<point x="1227.57" y="1100.71"/>
			<point x="1112.14" y="1131.14"/>
			<point x="972.286" y="1131.14" type="curve" smooth="yes"/>
			<point x="716" y="1131.14"/>
			<point x="566.714" y="1015.29"/>
			<point x="566.714" y="827.714" type="curve" smooth="yes"/>
			<point x="566.714" y="636.429"/>
			<point x="663.714" y="563.714"/>
			<point x="855.857" y="487.857" type="curve" smooth="yes"/>
			<point x="1057" y="408.143"/>
			<point x="1107.29" y="371.143"/>
			<point x="1107.29" y="292.857" type="curve" smooth="yes"/>
			<point x="1107.29" y="210.429"/>
			<point x="1044.86" y="163"/>
			<point x="867.143" y="163" type="curve" smooth="yes"/>
			<point x="686.286" y="163"/>
			<point x="540" y="218.714"/>
			<point x="415.429" y="289.571" type="curve"/>
			<point x="415.429" y="1556" type="line"/>
			<point x="165.429" y="1556" type="line"/>
			<point x="165.429" y="0" type="line"/>
			<point x="415.429" y="0" type="line"/>
			<point x="415.429" y="80.1429" type="line"/>
			<point x="527.143" y="28.2857"/>
			<point x="667.714" y="-20"/>
		</contour>
	</outline>
	<anchor name="bottom" x="866.143" y="0"/>
	<anchor name="top" x="866.143" y="1556"/>
</glyph>
<glyph name="uni02AF" format="2">
	<unicode hex="02AF"/>
	<advance width="1303"/>
	<outline>
		<contour>
			<point x="85.1429" y="1136.86" type="curve" smooth="yes"/>
			<point x="11" y="1136.86"/>
			<point x="-41.1429" y="1120"/>
			<point x="-68" y="1112.86" type="curve"/>
			<point x="-68" y="922.429" type="line"/>
			<point x="-45.4286" y="929.571"/>
			<point x="-15.8571" y="940.714"/>
			<point x="34.2857" y="940.714" type="curve" smooth="yes"/>
			<point x="112.286" y="940.714"/>
			<point x="149.714" y="884.143"/>
			<point x="149.714" y="774" type="curve" smooth="yes"/>
			<point x="149.714" y="384.429" type="line" smooth="yes"/>
			<point x="149.714" y="102.857"/>
			<point x="305.857" y="-21.7143"/>
			<point x="533.571" y="-21.7143" type="curve" smooth="yes"/>
			<point x="727.714" y="-21.7143"/>
			<point x="826.143" y="58.5714"/>
			<point x="886.857" y="177.857" type="curve"/>
			<point x="895.429" y="177.857" type="line"/>
			<point x="888.857" y="104.571"/>
			<point x="885.714" y="52.1429"/>
			<point x="885.714" y="-39.7143" type="curve" smooth="yes"/>
			<point x="885.714" y="-177.571" type="line" smooth="yes"/>
			<point x="885.714" y="-357.571"/>
			<point x="967.143" y="-489"/>
			<point x="1221.71" y="-489" type="curve" smooth="yes"/>
			<point x="1282.71" y="-489"/>
			<point x="1352.86" y="-481.857"/>
			<point x="1397" y="-463.857" type="curve"/>
			<point x="1397" y="-272.286" type="line"/>
			<point x="1356.29" y="-284.571"/>
			<point x="1325.57" y="-291.143"/>
			<point x="1276.29" y="-291.143" type="curve" smooth="yes"/>
			<point x="1183.57" y="-291.143"/>
			<point x="1129.57" y="-232.143"/>
			<point x="1129.57" y="-119.714" type="curve" smooth="yes"/>
			<point x="1129.57" y="1109" type="line"/>
			<point x="885.714" y="1109" type="line"/>
			<point x="885.714" y="559" type="line" smooth="yes"/>
			<point x="885.714" y="304"/>
			<point x="793.714" y="175"/>
			<point x="608.429" y="175" type="curve" smooth="yes"/>
			<point x="467.143" y="175"/>
			<point x="394.714" y="263.571"/>
			<point x="394.714" y="452.143" type="curve" smooth="yes"/>
			<point x="394.714" y="791.429" type="line" smooth="yes"/>
			<point x="394.714" y="1023.14"/>
			<point x="315" y="1136.86"/>
		</contour>
	</outline>
	<anchor name="bottom" x="651.714" y="-489"/>
	<anchor name="top" x="651.714" y="1110.71"/>
</glyph>
<glyph name="uni02BE" format="2">
	<unicode hex="02BE"/>
	<advance width="372"/>
	<outline>
		<contour>
			<point x="61" y="1644.86" type="curve"/>
			<point x="61" y="1527" type="line"/>
			<point x="131.143" y="1527"/>
			<point x="178.571" y="1483"/>
			<point x="178.571" y="1411.29" type="curve" smooth="yes"/>
			<point x="178.571" y="1339.14"/>
			<point x="128.571" y="1296.14"/>
			<point x="61" y="1296.14" type="curve"/>
			<point x="61" y="1178" type="line"/>
			<point x="203" y="1178"/>
			<point x="310.714" y="1265.57"/>
			<point x="310.714" y="1412.43" type="curve" smooth="yes"/>
			<point x="310.714" y="1556.86"/>
			<point x="201.857" y="1644.86"/>
		</contour>
	</outline>
</glyph>
<glyph name="uni02BF" format="2">
	<unicode hex="02BF"/>
	<advance width="372"/>
	<outline>
		<contour>
			<point x="310.714" y="1178" type="curve"/>
			<point x="310.714" y="1297" type="line"/>
			<point x="240.571" y="1297"/>
			<point x="193.143" y="1340"/>
			<point x="193.143" y="1411" type="curve" smooth="yes"/>
			<point x="193.143" y="1482.71"/>
			<point x="243.143" y="1526.71"/>
			<point x="310.714" y="1526.71" type="curve"/>
			<point x="310.714" y="1644.86" type="line"/>
			<point x="170.286" y="1644.86"/>
			<point x="61" y="1556.86"/>
			<point x="61" y="1413.29" type="curve" smooth="yes"/>
			<point x="61" y="1265.57"/>
			<point x="168" y="1178"/>
		</contour>
	</outline>
</glyph>
<glyph name="uni02C8" format="2">
	<unicode hex="02C8"/>
	<advance width="317"/>
	<outline>
		<contour>
			<point x="235" y="1574.86" type="line"/>
			<point x="82" y="1574.86" type="line"/>
			<point x="82" y="1016" type="line"/>
			<point x="235" y="1016" type="line"/>
		</contour>
	</outline>
	<anchor name="_top" x="158" y="906.143"/>
	<anchor name="top" x="161.429" y="1574.86"/>
</glyph>
<glyph name="uni02D0" format="2">
	<unicode hex="02D0"/>
	<advance width="612"/>
	<outline>
		<contour>
			<point x="305.714" y="813" type="line"/>
			<point x="488.714" y="1098" type="line"/>
			<point x="123.714" y="1098" type="line"/>
		</contour>
		<contour>
			<point x="123.714" y="0" type="line"/>
			<point x="488.714" y="0" type="line"/>
			<point x="305.714" y="285" type="line"/>
		</contour>
	</outline>
</glyph>
<glyph name="breve" format="2">
	<unicode hex="02D8"/>
	<advance width="841"/>
	<outline>
		<contour>
			<point x="759.429" y="1551.14" type="curve"/>
			<point x="612" y="1551.14" type="line"/>
			<point x="590.286" y="1443.71"/>
			<point x="525.571" y="1399.14"/>
			<point x="418.286" y="1399.14" type="curve" smooth="yes"/>
			<point x="300.714" y="1399.14"/>
			<point x="245.286" y="1439.14"/>
			<point x="224.429" y="1551.14" type="curve"/>
			<point x="82" y="1551.14" type="line"/>
			<point x="92.8571" y="1355.86"/>
			<point x="206.286" y="1241"/>
			<point x="418.286" y="1241" type="curve" smooth="yes"/>
			<point x="623" y="1241"/>
			<point x="743.286" y="1359.86"/>
		</contour>
	</outline>
</glyph>
<glyph name="ring" format="2">
	<unicode hex="02DA"/>
	<advance width="646"/>
	<outline>
		<contour>
			<point x="321.571" y="1243" type="curve" smooth="yes"/>
			<point x="456.429" y="1243"/>
			<point x="564.857" y="1333.86"/>
			<point x="564.857" y="1476" type="curve" smooth="yes"/>
			<point x="564.857" y="1613.57"/>
			<point x="455.286" y="1707.86"/>
			<point x="321.571" y="1707.86" type="curve" smooth="yes"/>
			<point x="182.857" y="1707.86"/>
			<point x="82" y="1615.29"/>
			<point x="82" y="1474.86" type="curve" smooth="yes"/>
			<point x="82" y="1333"/>
			<point x="183.714" y="1243"/>
		</contour>
		<contour>
			<point x="321.571" y="1360" type="curve" smooth="yes"/>
			<point x="250.714" y="1360"/>
			<point x="205.857" y="1410"/>
			<point x="205.857" y="1474.86" type="curve" smooth="yes"/>
			<point x="205.857" y="1540.86"/>
			<point x="256.143" y="1589.71"/>
			<point x="321.571" y="1589.71" type="curve" smooth="yes"/>
			<point x="384.429" y="1589.71"/>
			<point x="436" y="1540.86"/>
			<point x="436" y="1474.86" type="curve" smooth="yes"/>
			<point x="436" y="1410"/>
			<point x="387.857" y="1360"/>
		</contour>
	</outline>
</glyph>
<glyph name="tilde" format="2">
	<unicode hex="02DC"/>
	<advance width="930"/>
	<outline>
		<contour>
			<point x="82" y="1249.43" type="curve"/>
			<point x="206.714" y="1249.43" type="line"/>
			<point x="221.571" y="1352.43"/>
			<point x="264.429" y="1370.14"/>
			<point x="302.286" y="1370.14" type="curve" smooth="yes"/>
			<point x="410.429" y="1370.14"/>
			<point x="499.143" y="1249.71"/>
			<point x="627.857" y="1249.71" type="curve" smooth="yes"/>
			<point x="746.857" y="1249.71"/>
			<point x="834.143" y="1334.14"/>
			<point x="848.571" y="1531.71" type="curve"/>
			<point x="721.714" y="1531.71" type="line"/>
			<point x="708.571" y="1429"/>
			<point x="663.571" y="1410.14"/>
			<point x="624.143" y="1410.14" type="curve" smooth="yes"/>
			<point x="518.143" y="1410.14"/>
			<point x="420.143" y="1530.57"/>
			<point x="304" y="1530.57" type="curve" smooth="yes"/>
			<point x="174.857" y="1530.57"/>
			<point x="95.4286" y="1450.14"/>
		</contour>
	</outline>
</glyph>
<glyph name="hungarumlaut" format="2">
	<unicode hex="02DD"/>
	<advance width="1022"/>
	<outline>
		<contour>
			<point x="939.714" y="1569" type="line"/>
			<point x="701" y="1569" type="line"/>
			<point x="652.286" y="1477"/>
			<point x="551" y="1341.57"/>
			<point x="487.143" y="1262.71" type="curve"/>
			<point x="487.143" y="1241" type="line"/>
			<point x="621.571" y="1241" type="line"/>
			<point x="719" y="1320.71"/>
			<point x="889.857" y="1468.86"/>
			<point x="939.714" y="1550.57" type="curve"/>
		</contour>
		<contour>
			<point x="533.857" y="1569" type="line"/>
			<point x="295.857" y="1569" type="line"/>
			<point x="245.429" y="1477"/>
			<point x="146.286" y="1341.57"/>
			<point x="82" y="1262.71" type="curve"/>
			<point x="82" y="1241" type="line"/>
			<point x="216.429" y="1241" type="line"/>
			<point x="312.714" y="1320.71"/>
			<point x="483.571" y="1468.86"/>
			<point x="533.857" y="1550.57" type="curve"/>
		</contour>
	</outline>
</glyph>
<glyph name="uni02EF" format="2">
	<unicode hex="02EF"/>
	<advance width="792"/>
	<outline>
		<contour>
			<point x="359.143" y="-453.857" type="line"/>
			<point x="433" y="-453.857" type="line"/>
			<point x="709.857" y="-58" type="line"/>
			<point x="594" y="-58" type="line"/>
			<point x="395.714" y="-332" type="line"/>
			<point x="199.857" y="-58" type="line"/>
			<point x="82" y="-58" type="line"/>
		</contour>
	</outline>
</glyph>
<glyph name="uni02F3" format="2">
	<unicode hex="02F3"/>
	<advance width="675"/>
	<outline>
		<contour>
			<point x="333.143" y="-575.571" type="curve" smooth="yes"/>
			<point x="469" y="-575.571"/>
			<point x="575.286" y="-484.714"/>
			<point x="575.286" y="-342.571" type="curve" smooth="yes"/>
			<point x="575.286" y="-206.714"/>
			<point x="466.714" y="-111.857"/>
			<point x="333.143" y="-111.857" type="curve" smooth="yes"/>
			<point x="194.429" y="-111.857"/>
			<point x="93" y="-205"/>
			<point x="93" y="-343.714" type="curve" smooth="yes"/>
			<point x="93" y="-485.571"/>
			<point x="195.286" y="-575.571"/>
		</contour>
		<contour>
			<point x="334.286" y="-458.571" type="curve" smooth="yes"/>
			<point x="262.857" y="-458.571"/>
			<point x="219.714" y="-408.571"/>
			<point x="219.714" y="-343.714" type="curve" smooth="yes"/>
			<point x="219.714" y="-278.857"/>
			<point x="268.857" y="-228.857"/>
			<point x="334.286" y="-228.857" type="curve" smooth="yes"/>
			<point x="398.286" y="-228.857"/>
			<point x="449.143" y="-278.857"/>
			<point x="449.143" y="-343.714" type="curve" smooth="yes"/>
			<point x="449.143" y="-408.571"/>
			<point x="400.571" y="-458.571"/>
		</contour>
	</outline>
</glyph>
<glyph name="uni02F7" format="2">
	<unicode hex="02F7"/>
	<advance width="930"/>
	<outline>
		<contour>
			<point x="82" y="-411.714" type="curve"/>
			<point x="206.714" y="-411.714" type="line"/>
			<point x="221.571" y="-308.714"/>
			<point x="264.429" y="-291"/>
			<point x="302.286" y="-291" type="curve" smooth="yes"/>
			<point x="410.429" y="-291"/>
			<point x="499.143" y="-411.429"/>
			<point x="627.857" y="-411.429" type="curve" smooth="yes"/>
			<point x="746.857" y="-411.429"/>
			<point x="834.143" y="-327"/>
			<point x="848.571" y="-129.429" type="curve"/>
			<point x="721.714" y="-129.429" type="line"/>
			<point x="708.571" y="-232.143"/>
			<point x="663.571" y="-251"/>
			<point x="624.143" y="-251" type="curve" smooth="yes"/>
			<point x="518.143" y="-251"/>
			<point x="420.143" y="-130.571"/>
			<point x="304" y="-130.571" type="curve" smooth="yes"/>
			<point x="174.857" y="-130.571"/>
			<point x="95.4286" y="-211"/>
		</contour>
	</outline>
</glyph>
<glyph name="uni02FF" format="2">
	<unicode hex="02FF"/>
	<advance width="1038"/>
	<outline>
		<contour>
			<point x="546.714" y="-453.857" type="line"/>
			<point x="546.714" y="-355.143" type="line"/>
			<point x="276.714" y="-213.571" type="line"/>
			<point x="955.857" y="-213.571" type="line"/>
			<point x="955.857" y="-121.857" type="line"/>
			<point x="276.714" y="-121.857" type="line"/>
			<point x="546.714" y="17.1429" type="line"/>
			<point x="546.714" y="116.286" type="line"/>
			<point x="82" y="-133.143" type="line"/>
			<point x="82" y="-203.143" type="line"/>
		</contour>
	</outline>
</glyph>
<glyph name="gravecomb" format="2">
	<unicode hex="0300"/>
	<outline>
		<contour>
			<point x="-773.714" y="1569" type="curve"/>
			<point x="-1045.57" y="1569" type="line"/>
			<point x="-1045.57" y="1550.57" type="line"/>
			<point x="-958.714" y="1466.57"/>
			<point x="-779" y="1319.57"/>
			<point x="-668.857" y="1241" type="curve"/>
			<point x="-501.857" y="1241" type="line"/>
			<point x="-501.857" y="1262.71" type="line"/>
			<point x="-579.571" y="1341.29"/>
			<point x="-708" y="1478.71"/>
		</contour>
	</outline>
	<anchor name="_top" x="-774.143" y="1110.71"/>
	<anchor name="top" x="-774.143" y="1567.86"/>
</glyph>
<glyph name="acutecomb" format="2">
	<unicode hex="0301"/>
	<outline>
		<contour>
			<point x="-96" y="1569" type="line"/>
			<point x="-366.714" y="1569" type="line"/>
			<point x="-430.714" y="1478.71"/>
			<point x="-560.286" y="1341.29"/>
			<point x="-639.714" y="1262.71" type="curve"/>
			<point x="-639.714" y="1241" type="line"/>
			<point x="-472.714" y="1241" type="line"/>
			<point x="-363" y="1319.57"/>
			<point x="-181.714" y="1466.57"/>
			<point x="-96" y="1550.57" type="curve"/>
		</contour>
	</outline>
	<anchor name="_top" x="-485.143" y="1110.71"/>
	<anchor name="top" x="-485.143" y="1567.86"/>
</glyph>
<glyph name="macroncomb" format="2">
	<unicode hex="0304"/>
	<outline>
		<contour>
			<point x="318" y="1404.14" type="line"/>
			<point x="-321.143" y="1404.14" type="line"/>
			<point x="-321.143" y="1247.86" type="line"/>
			<point x="318" y="1247.86" type="line"/>
		</contour>
	</outline>
	<anchor name="_top" x="-2.85714" y="1110.71"/>
	<anchor name="top" x="-2.85714" y="1407.57"/>
</glyph>
<glyph name="brevecomb" format="2">
	<unicode hex="0306"/>
	<outline>
		<contour>
			<point x="339.143" y="1551.14" type="curve"/>
			<point x="191.714" y="1551.14" type="line"/>
			<point x="170" y="1443.71"/>
			<point x="105.286" y="1399.14"/>
			<point x="-2" y="1399.14" type="curve" smooth="yes"/>
			<point x="-119.571" y="1399.14"/>
			<point x="-175" y="1439.14"/>
			<point x="-195.857" y="1551.14" type="curve"/>
			<point x="-338.286" y="1551.14" type="line"/>
			<point x="-327.429" y="1355.86"/>
			<point x="-214" y="1241"/>
			<point x="-2" y="1241" type="curve" smooth="yes"/>
			<point x="202.714" y="1241"/>
			<point x="323" y="1359.86"/>
		</contour>
	</outline>
	<anchor name="_top" x="0.285714" y="1110.71"/>
	<anchor name="top" x="0.285714" y="1546.57"/>
</glyph>
<glyph name="dblverticallineabovecomb" format="2">
	<unicode hex="030E"/>
	<outline>
		<contour>
			<point x="-84.4286" y="1574.86" type="line"/>
			<point x="-249.429" y="1574.86" type="line"/>
			<point x="-249.429" y="1221" type="line"/>
			<point x="-84.4286" y="1221" type="line"/>
		</contour>
		<contour>
			<point x="249.429" y="1574.86" type="line"/>
			<point x="84.4286" y="1574.86" type="line"/>
			<point x="84.4286" y="1221" type="line"/>
			<point x="249.429" y="1221" type="line"/>
		</contour>
	</outline>
	<anchor name="_top" x="0" y="1110.71"/>
	<anchor name="top" x="2.28571" y="1574.86"/>
</glyph>
<glyph name="breveinvertedcomb" format="2">
	<unicode hex="0311"/>
	<outline>
		<contour>
			<point x="4" y="1555.71" type="curve" smooth="yes"/>
			<point x="-200.714" y="1555.71"/>
			<point x="-341.571" y="1431.57"/>
			<point x="-357.714" y="1241" type="curve"/>
			<point x="-214.143" y="1241" type="line"/>
			<point x="-202.857" y="1348.86"/>
			<point x="-104.429" y="1388.43"/>
			<point x="4" y="1388.43" type="curve" smooth="yes"/>
			<point x="121" y="1388.43"/>
			<point x="211.286" y="1354.57"/>
			<point x="220.143" y="1241" type="curve"/>
			<point x="361.429" y="1241" type="line"/>
			<point x="350.571" y="1436.14"/>
			<point x="213.714" y="1555.71"/>
		</contour>
	</outline>
	<anchor name="_top" x="1.71429" y="1110.71"/>
	<anchor name="top" x="5.14286" y="1555.71"/>
</glyph>
<glyph name="lefttackbelowcomb" format="2">
	<unicode hex="0318"/>
	<outline>
		<contour>
			<point x="-161.571" y="-202.429" type="line"/>
			<point x="-161.571" y="-301" type="line"/>
			<point x="54.8571" y="-301" type="line"/>
			<point x="54.8571" y="-434.857" type="line"/>
			<point x="161.571" y="-434.857" type="line"/>
			<point x="161.571" y="-68.5714" type="line"/>
			<point x="54.8571" y="-68.5714" type="line"/>
			<point x="54.8571" y="-202.429" type="line"/>
		</contour>
	</outline>
	<anchor name="_bottom" x="0" y="0"/>
	<anchor name="bottom" x="2.28571" y="-434.857"/>
</glyph>
<glyph name="horncomb" format="2">
	<unicode hex="031B"/>
	<outline>
		<contour>
			<point x="-170.857" y="1266" type="curve"/>
			<point x="-170.857" y="1111.29" type="line"/>
			<point x="155.143" y="1152.86"/>
			<point x="258" y="1294.43"/>
			<point x="278" y="1534" type="curve"/>
			<point x="261.857" y="1556" type="line"/>
			<point x="32.4286" y="1556" type="line"/>
			<point x="32.4286" y="1364.43"/>
			<point x="-11.5714" y="1293.29"/>
		</contour>
	</outline>
	<anchor name="_topright" x="30.5714" y="1266"/>
</glyph>
<glyph name="hookretroflexbelowcomb" format="2">
	<unicode hex="0322"/>
	<outline>
		<contour>
			<point x="254.286" y="-488.429" type="curve" smooth="yes"/>
			<point x="310.429" y="-488.429"/>
			<point x="370" y="-476.714"/>
			<point x="405.143" y="-463.571" type="curve"/>
			<point x="405.143" y="-293.571" type="line"/>
			<point x="380.286" y="-302.286"/>
			<point x="344.429" y="-312"/>
			<point x="305.143" y="-312" type="curve" smooth="yes"/>
			<point x="240" y="-312"/>
			<point x="204.143" y="-271.286"/>
			<point x="204.143" y="-191" type="curve" smooth="yes"/>
			<point x="204.143" y="95" type="line"/>
			<point x="0" y="95" type="line"/>
			<point x="0" y="-204.714" type="line" smooth="yes"/>
			<point x="0" y="-398.429"/>
			<point x="97" y="-488.429"/>
		</contour>
	</outline>
	<anchor name="_bottom" x="203.571" y="0"/>
	<anchor name="bottom" x="203.571" y="-488.429"/>
</glyph>
<glyph name="dotbelowcomb" format="2">
	<unicode hex="0323"/>
	<outline>
		<contour>
			<point x="-680.286" y="-392" type="curve" smooth="yes"/>
			<point x="-594.714" y="-392"/>
			<point x="-537.286" y="-358.857"/>
			<point x="-537.286" y="-266.714" type="curve" smooth="yes"/>
			<point x="-537.286" y="-173.143"/>
			<point x="-594.714" y="-140.286"/>
			<point x="-680.286" y="-140.286" type="curve" smooth="yes"/>
			<point x="-763" y="-140.286"/>
			<point x="-819.857" y="-173.143"/>
			<point x="-819.857" y="-266.714" type="curve" smooth="yes"/>
			<point x="-819.857" y="-358.857"/>
			<point x="-763" y="-392"/>
		</contour>
	</outline>
	<anchor name="_bottom" x="-676.571" y="0"/>
	<anchor name="bottom" x="-676.571" y="-392"/>
</glyph>
<glyph name="dieresisbelowcomb" format="2">
	<unicode hex="0324"/>
	<outline>
		<contour>
			<point x="-339.429" y="-256.714" type="curve" smooth="yes"/>
			<point x="-339.429" y="-332.286"/>
			<point x="-292.857" y="-373.286"/>
			<point x="-222.143" y="-373.286" type="curve" smooth="yes"/>
			<point x="-150.286" y="-373.286"/>
			<point x="-102" y="-332.286"/>
			<point x="-102" y="-256.714" type="curve" smooth="yes"/>
			<point x="-102" y="-180.714"/>
			<point x="-150.286" y="-139.429"/>
			<point x="-222.143" y="-139.429" type="curve" smooth="yes"/>
			<point x="-292.857" y="-139.429"/>
			<point x="-339.429" y="-180.714"/>
		</contour>
		<contour>
			<point x="96.7143" y="-256.714" type="curve" smooth="yes"/>
			<point x="96.7143" y="-332.286"/>
			<point x="143.286" y="-373.286"/>
			<point x="215.143" y="-373.286" type="curve" smooth="yes"/>
			<point x="287.571" y="-373.286"/>
			<point x="335.857" y="-332.286"/>
			<point x="335.857" y="-256.714" type="curve" smooth="yes"/>
			<point x="335.857" y="-180.714"/>
			<point x="287.571" y="-139.429"/>
			<point x="215.143" y="-139.429" type="curve" smooth="yes"/>
			<point x="143.286" y="-139.429"/>
			<point x="96.7143" y="-180.714"/>
		</contour>
	</outline>
	<anchor name="_bottom" x="-2" y="0"/>
	<anchor name="bottom" x="0.285714" y="-373.286"/>
</glyph>
<glyph name="ogonekcomb" format="2">
	<unicode hex="0328"/>
	<outline>
		<contour>
			<point x="-19.4286" y="-228.571" type="curve" smooth="yes"/>
			<point x="-19.4286" y="-148.571"/>
			<point x="44.2857" y="-82"/>
			<point x="137.571" y="0" type="curve"/>
			<point x="33.7143" y="39" type="line"/>
			<point x="-132" y="-77.1429"/>
			<point x="-187.286" y="-172.286"/>
			<point x="-187.286" y="-266.857" type="curve" smooth="yes"/>
			<point x="-187.286" y="-397"/>
			<point x="-86.4286" y="-471.429"/>
			<point x="42.4286" y="-471.429" type="curve" smooth="yes"/>
			<point x="103.143" y="-471.429"/>
			<point x="150.429" y="-460.571"/>
			<point x="185.571" y="-449.143" type="curve"/>
			<point x="185.571" y="-301.857" type="line"/>
			<point x="160.143" y="-312.143"/>
			<point x="112.857" y="-320.429"/>
			<point x="76.1429" y="-320.429" type="curve" smooth="yes"/>
			<point x="15" y="-320.429"/>
			<point x="-19.4286" y="-290.857"/>
		</contour>
	</outline>
	<anchor name="_bottom" x="-0.857143" y="0"/>
	<anchor name="bottom" x="0" y="-471.429"/>
</glyph>
<glyph name="bridgebelowcomb" format="2">
	<unicode hex="032A"/>
	<outline>
		<contour>
			<point x="-360.286" y="-96.2857" type="line"/>
			<point x="-360.286" y="-406.571" type="line"/>
			<point x="-253" y="-406.571" type="line"/>
			<point x="-253" y="-194.857" type="line"/>
			<point x="253" y="-194.857" type="line"/>
			<point x="253" y="-406.571" type="line"/>
			<point x="360.286" y="-406.571" type="line"/>
			<point x="360.286" y="-96.2857" type="line"/>
		</contour>
	</outline>
	<anchor name="_bottom" x="0" y="0"/>
	<anchor name="bottom" x="2.28571" y="-406.571"/>
</glyph>
